<?xml version="1.0" encoding="UTF-8" standalone="no"?>
<svg width="448px" height="459px" viewBox="0 0 448 459" version="1.1" xmlns="http://www.w3.org/2000/svg" xmlns:xlink="http://www.w3.org/1999/xlink" xmlns:sketch="http://www.bohemiancoding.com/sketch/ns">
    <!-- Generator: Sketch 3.4.1 (15681) - http://www.bohemiancoding.com/sketch -->
    <title>logo</title>
    <desc>Created with Sketch.</desc>
    <defs></defs>
    <g id="Page-1" stroke="none" stroke-width="1" fill="none" fill-rule="evenodd" sketch:type="MSPage">
        <g id="minisumo2" sketch:type="MSLayerGroup" transform="translate(0.000000, -1.000000)">
            <g id="Page-1" sketch:type="MSShapeGroup">
                <g id="minisumo2">
                    <g id="Page-1">
                        <g id="Artboard-2-Copy-2">
                            <g id="600x636_plate_blue" transform="translate(0.250000, 0.000000)">
                                <g id="Page-1">
                                    <g id="Artboard-2">
                                        <g id="logo" transform="translate(0.000000, 0.206424)">
                                            <path d="M168.145944,28.4854962 L35.3571154,28.4854962 L86.743181,79.891585 L69.2110426,97.430555 L-2.84217094e-14,28.4854962 L5.62159339,67.9594641 L75.7855943,138.150806 L69.2110426,144.72792 L7.80615219,83.299102 L41.1770976,329.852556 L169.180138,412.978702 L174.395394,398.649905 L174.346078,398.649905 L175.13387,396.620958 L177.927613,388.945213 L178.091079,389.00471 L178.113742,388.946342 L272.85824,388.946342 L272.861343,388.945213 L272.947034,388.946342 L273.577843,390.913778 L281.548472,412.812902 L405.848367,332.091607 L439.528236,83.257538 L378.081797,144.72792 L371.507245,138.150806 L441.712794,67.9178995 L447,28.4854962 L378.081797,97.430555 L360.549658,79.891585 L411.935724,28.4854962 L279.332166,28.4854962 C278.828194,58.7396804 254.13161,83.110252 223.738887,83.110252 C193.346163,83.110252 168.649909,58.7396804 168.145944,28.4854962 L168.145944,28.4854962 L168.145944,28.4854962 Z M387.777964,391.889653 L296.63638,454.26659 L284.954585,422.171119 L393.421797,351.731688 L387.777964,391.889653 L387.777964,391.889653 L387.777964,391.889653 Z M59.1498927,391.376323 L154.157065,454.254256 L165.774026,422.336919 L53.2293623,349.24956 L59.1498927,391.376323 L59.1498927,391.376323 L59.1498927,391.376323 Z M184.72171,398.649905 L162.663829,459.253435 L288.125127,459.253435 L266.067246,398.649905 L184.72171,398.649905 L184.72171,398.649905 L184.72171,398.649905 Z M165.104317,109.519024 L165.203133,109.519024 L170.69937,92.875811 C170.929715,92.119455 171.423118,91.724761 172.081439,91.724761 C172.90434,91.724761 173.496559,92.316971 173.496559,93.106359 C173.496559,93.303537 173.463846,93.533747 173.36503,93.829683 L166.881649,112.742302 C166.453673,113.926384 165.992983,114.419836 165.071604,114.419836 C164.182938,114.419836 163.689197,113.926384 163.294272,112.742302 L156.810891,93.829683 C156.712075,93.533747 156.679362,93.303537 156.679362,93.106359 C156.679362,92.316971 157.271581,91.724761 158.094482,91.724761 C158.785516,91.724761 159.246206,92.119455 159.509602,92.875811 L165.104317,109.519024 L165.104317,109.519024 L165.104317,109.519024 Z M177.054932,99.816157 C177.054932,98.89498 177.647488,98.335802 178.437338,98.335802 C179.227188,98.335802 179.819745,98.89498 179.819745,99.816157 L179.819745,112.939817 C179.819745,113.860658 179.227188,114.419836 178.437338,114.419836 C177.647488,114.419836 177.054932,113.860658 177.054932,112.939817 L177.054932,99.816157 L177.054932,99.816157 L177.054932,99.816157 Z M183.852297,99.816157 C183.852297,98.89498 184.444516,98.335802 185.234366,98.335802 C186.024216,98.335802 186.616773,98.89498 186.616773,99.816157 L186.616773,100.276577 L186.649486,100.276577 C187.406623,99.059463 188.920558,98.138623 191.059764,98.138623 C194.48256,98.138623 196.52295,100.473756 196.52295,104.059033 L196.52295,112.939817 C196.52295,113.860658 195.930394,114.419836 195.140544,114.419836 C194.350694,114.419836 193.758138,113.860658 193.758138,112.939817 L193.758138,104.716969 C193.758138,102.184321 192.606413,100.704303 190.236863,100.704303 C188.097657,100.704303 186.616773,102.217016 186.616773,104.552485 L186.616773,112.939817 C186.616773,113.860658 186.024216,114.419836 185.234366,114.419836 C184.444516,114.419836 183.852297,113.860658 183.852297,112.939817 L183.852297,99.816157 L183.852297,99.816157 L183.852297,99.816157 Z M200.564946,99.816157 C200.564946,98.89498 201.157165,98.335802 201.947015,98.335802 C202.736865,98.335802 203.329421,98.89498 203.329421,99.816157 L203.329421,100.276577 L203.362135,100.276577 C204.119272,99.059463 205.633207,98.138623 207.772413,98.138623 C211.194872,98.138623 213.235599,100.473756 213.235599,104.059033 L213.235599,112.939817 C213.235599,113.860658 212.643043,114.419836 211.853193,114.419836 C211.063343,114.419836 210.471124,113.860658 210.471124,112.939817 L210.471124,104.716969 C210.471124,102.184321 209.319062,100.704303 206.949512,100.704303 C204.810306,100.704303 203.329421,102.217016 203.329421,104.552485 L203.329421,112.939817 C203.329421,113.860658 202.736865,114.419836 201.947015,114.419836 C201.157165,114.419836 200.564946,113.860658 200.564946,112.939817 L200.564946,99.816157 L200.564946,99.816157 L200.564946,99.816157 Z M217.25365,110.374138 C216.891438,109.288813 216.727195,108.203489 216.727195,106.361471 C216.727195,104.552485 216.891438,103.467161 217.25365,102.3815 C218.109265,99.684368 220.41305,98.138623 223.473635,98.138623 C226.534557,98.138623 228.838343,99.684368 229.693958,102.3815 C230.055832,103.467161 230.220412,104.552485 230.220412,106.361471 C230.220412,108.203489 230.055832,109.288813 229.693958,110.374138 C228.838343,113.038575 226.534557,114.617351 223.473635,114.617351 C220.41305,114.617351 218.109265,113.038575 217.25365,110.374138 L217.25365,110.374138 L217.25365,110.374138 Z M237.408318,112.709607 L232.636504,100.342303 C232.537689,100.079062 232.504637,99.881883 232.504637,99.651673 C232.504637,98.928011 233.031429,98.335802 233.853993,98.335802 C234.512314,98.335802 234.94029,98.730496 235.170634,99.322705 L239.251414,110.275717 L239.317179,110.275717 L243.299481,99.322705 C243.529825,98.730496 243.957801,98.335802 244.615785,98.335802 C245.438686,98.335802 245.965141,98.928011 245.965141,99.651673 C245.965141,99.881883 245.932427,100.079062 245.833611,100.342303 L241.028746,112.709607 C240.535005,113.992447 240.107029,114.419836 239.218363,114.419836 C238.330035,114.419836 237.902059,113.992447 237.408318,112.709607 L237.408318,112.709607 L237.408318,112.709607 Z M248.786275,110.242685 C248.457452,109.255782 248.25982,108.137763 248.25982,106.262714 C248.25982,104.388001 248.424401,103.269645 248.753561,102.283079 C249.642227,99.552915 251.912962,98.039865 254.907782,98.039865 C258.001418,98.039865 260.239439,99.552915 261.095054,102.250047 C261.456928,103.302677 261.621508,104.519454 261.621508,106.065535 C261.621508,106.690439 261.19387,107.117828 260.535548,107.117828 L251.287692,107.117828 C251.156162,107.117828 251.090061,107.183891 251.090061,107.315343 C251.090061,108.0717 251.156162,108.598183 251.353457,109.223087 C251.946013,111.032073 253.393847,111.952914 255.335758,111.952914 C256.882408,111.952914 257.935653,111.492494 259.120429,110.604348 C259.449589,110.341443 259.745699,110.209654 260.074859,110.209654 C260.73318,110.209654 261.226583,110.703106 261.226583,111.361041 C261.226583,111.755735 261.062003,112.084703 260.798944,112.347608 C259.449589,113.597753 257.573779,114.518593 255.138127,114.518593 C251.879911,114.518593 249.674941,113.005544 248.786275,110.242685 L248.786275,110.242685 L248.786275,110.242685 Z M265.658445,112.84106 L265.658445,99.717399 C265.658445,98.796559 266.250664,98.237381 267.040514,98.237381 C267.830365,98.237381 268.42292,98.796559 268.42292,99.717399 L268.42292,100.441061 L268.455634,100.441061 C269.113955,99.026769 270.562126,98.039865 272.5037,98.039865 C273.589998,98.039865 274.313746,98.303107 274.840537,98.599043 C275.400042,98.89498 275.630387,99.322705 275.630387,99.783125 C275.630387,100.572513 275.070882,101.164723 274.247981,101.164723 C274.050687,101.164723 273.787291,101.098997 273.556947,101.000239 C272.964727,100.770029 272.405222,100.605545 271.746901,100.605545 C269.377351,100.605545 268.42292,102.579015 268.42292,105.210421 L268.42292,112.84106 C268.42292,113.7619 267.830365,114.321078 267.040514,114.321078 C266.250664,114.321078 265.658445,113.7619 265.658445,112.84106 L265.658445,112.84106 L265.658445,112.84106 Z M291.162645,113.005544 C291.162645,113.7619 290.570426,114.321078 289.747525,114.321078 C289.253784,114.321078 288.858859,114.090868 288.529699,113.630448 L287.904429,112.643881 L287.871716,112.643881 C286.818469,113.827963 285.337584,114.518593 283.033799,114.518593 C279.512187,114.518593 277.471797,112.775333 277.471797,109.782265 C277.471797,106.525955 279.709818,104.914148 283.626018,104.914148 L287.213394,104.914148 C287.344924,104.914148 287.411026,104.848421 287.411026,104.716969 L287.411026,103.960276 C287.411026,101.756595 286.390493,100.506787 283.626018,100.506787 C282.408529,100.506787 281.157989,100.901481 280.400853,101.296175 C280.137457,101.427628 279.841348,101.526385 279.611003,101.526385 C278.886917,101.526385 278.426227,101.065965 278.426227,100.342303 C278.426227,99.914578 278.623859,99.487189 279.084549,99.223947 C280.071692,98.566349 281.717158,98.039865 283.889413,98.039865 C288.10206,98.039865 290.076686,100.046367 290.076686,103.927581 L290.076686,109.58475 C290.076686,110.407169 290.14245,110.736137 290.372795,111.196557 L290.932301,112.216155 C291.06383,112.446366 291.162645,112.742302 291.162645,113.005544 L291.162645,113.005544 L291.162645,113.005544 Z M176.627293,93.533747 C176.627293,92.514149 177.449857,91.724761 178.437338,91.724761 C179.42482,91.724761 180.247383,92.514149 180.247383,93.533747 C180.247383,94.520651 179.42482,95.342733 178.437338,95.342733 C177.449857,95.342733 176.627293,94.520651 176.627293,93.533747 L176.627293,93.533747 L176.627293,93.533747 Z" id="Rectangle-1" fill="#000000"></path>
                                            <path d="M227.027961,109.58475 C227.291357,108.729636 227.390172,107.874521 227.390172,106.361471 C227.390172,104.848421 227.291357,104.026339 227.027961,103.170888 C226.501506,101.592112 225.217916,100.704303 223.473635,100.704303 C221.729355,100.704303 220.446101,101.592112 219.91931,103.170888 C219.656251,104.026339 219.557436,104.848421 219.557436,106.361471 C219.557436,107.874521 219.656251,108.729636 219.91931,109.58475 C220.446101,111.163526 221.729355,112.051672 223.473635,112.051672 C225.217916,112.051672 226.501506,111.163526 227.027961,109.58475 L227.027961,109.58475 L227.027961,109.58475 L227.027961,109.58475 L227.027961,109.58475 Z" id="Fill-7-path" fill="#000000"></path>
                                            <path d="M258.593974,104.914148 C258.725504,104.914148 258.791268,104.848421 258.791268,104.716969 C258.791268,103.993307 258.725504,103.434129 258.560923,102.940678 C258.034469,101.361901 256.717827,100.473756 254.940833,100.473756 C253.163501,100.473756 251.847197,101.361901 251.320405,102.940678 C251.156162,103.434129 251.090061,103.993307 251.090061,104.716969 C251.090061,104.848421 251.156162,104.914148 251.287692,104.914148 L258.593974,104.914148 L258.593974,104.914148 L258.593974,104.914148 L258.593974,104.914148 Z" id="Fill-9-path" fill="#000000"></path>
                                            <path d="M287.411026,109.058603 L287.411026,107.315343 C287.411026,107.183891 287.344924,107.117828 287.213394,107.117828 L284.053994,107.117828 C281.355283,107.117828 280.137457,107.907216 280.137457,109.683508 C280.137457,111.32801 281.322232,112.150429 283.428724,112.150429 C285.864039,112.150429 287.411026,110.999042 287.411026,109.058603 L287.411026,109.058603 L287.411026,109.058603 L287.411026,109.058603 L287.411026,109.058603 Z" id="Fill-11-path" fill="#000000"></path>
                                            <path d="M224.040055,6.8429638 C223.376001,8.5272388 223.024919,11.0999967 223.024919,14.2831653 C223.024919,18.8320896 223.673459,23.9361473 224.732438,28.9175162 C226.491221,22.409278 227.408216,15.8993547 227.554247,11.1111196 C227.786953,3.4916038 224.811356,4.8893801 224.040055,6.8429638 L224.040055,6.8429638 L224.040055,6.8429638 L224.040055,6.8429638 L224.040055,6.8429638 Z M244.07972,34.4230091 C244.226089,37.108344 244.629107,39.7764891 245.496863,42.4635094 C246.555506,39.6517779 247.108265,36.701853 247.232713,34.1658343 C247.457324,29.5899454 243.822057,29.7008372 244.07972,34.4230091 L244.07972,34.4230091 L244.07972,34.4230091 L244.07972,34.4230091 L244.07972,34.4230091 Z M209.982274,57.3095325 L210.245332,57.3017802 C203.515081,57.0082032 198.076514,47.9592276 193.009939,29.6637609 C189.389849,16.5893108 187.616902,3.3419504 187.597678,3.2098239 C187.44389,2.1393301 188.262744,1.1466966 189.333865,0.9929985 C190.404648,0.8379522 191.435298,1.5825116 191.589423,2.6530054 C191.608309,2.7827724 193.520542,15.8140792 197.078241,28.6502298 C201.375201,44.1558737 206.43874,53.1408082 210.986281,53.3878712 C213.351447,53.2233873 217.533066,49.1422985 221.770669,38.0595195 C222.013492,37.4251778 222.252606,36.7820726 222.483625,36.1318892 C220.335651,28.4817012 219.105009,20.2628976 219.105009,14.2831653 C219.105009,10.5603681 219.539393,7.574041 220.393996,5.406763 C221.916026,1.5491429 224.544588,0.9956949 225.975559,0.9731121 C227.258812,0.9528887 229.251987,1.2093892 230.489711,4.5287289 C231.099804,6.1644677 231.473145,8.3118593 231.473145,11.1111196 C231.473145,17.1424217 229.663774,27.1078559 226.606899,36.2414328 C229.47019,45.7575697 233.528037,53.3602326 236.779171,53.3602326 C238.751773,53.3602326 241.176295,50.8289327 243.193752,47.3457835 C241.278146,42.9535905 240.161497,37.9880634 240.161497,34.4809829 C240.161497,32.3895427 240.510555,30.6836961 241.20024,29.410968 C242.123981,27.7044472 243.66456,26.7643946 245.537334,26.7643946 C247.44552,26.7643946 248.914938,27.7529834 249.992803,29.3071544 C250.8211,30.5023593 251.151273,32.1252899 251.151273,34.1658343 C251.151273,37.7453822 249.784381,42.8999985 247.545684,47.4327441 C249.286255,50.8191579 251.391061,53.2570932 253.140737,53.2570932 C253.854031,53.2570932 254.671199,52.8806005 256.338922,51.0439755 C257.067055,50.2431271 258.306803,50.1827942 259.10677,50.9094893 C259.908087,51.6361851 259.968455,52.8745332 259.241335,53.6753808 C257.334835,55.7749109 255.567621,57.1733613 253.140737,57.1733613 C250.114215,57.1733613 247.417191,54.7431784 245.275624,51.3331701 C242.88685,54.8011521 239.942618,57.2765007 236.779508,57.2765007 C231.831309,57.2765007 226.92493,50.6341136 223.803977,42.113981 C220.29889,50.4696297 214.703837,57.0220221 209.982274,57.3004319 L209.982274,57.3095325 L209.982274,57.3095325 L209.982274,57.3095325 Z M245.680667,18.8270338 L245.677295,18.8270338 C245.156573,18.8270338 244.653727,18.3312226 244.299273,17.8067615 C244.006873,17.3749912 243.839595,16.7372789 243.840269,16.2269743 C243.842967,15.0998549 244.477006,14.1348601 245.681679,14.1348601 C246.863082,14.1348601 247.523089,15.2262513 247.521402,16.3543819 C247.519716,17.4434138 246.763254,18.8270338 245.680667,18.8270338 L245.680667,18.8270338 L245.680667,18.8270338 Z M245.539357,9.6523359 C242.483831,9.6523359 239.991183,12.4114864 239.983426,15.8123939 C239.982077,17.3517342 240.486273,18.9712943 241.368193,20.2743576 C242.437965,21.8558301 243.954936,22.7436388 245.526205,22.7436388 L245.536322,22.7436388 C248.801958,22.7436388 251.084497,19.1020725 251.089893,15.8164386 C251.094277,12.4128346 248.607699,9.6580659 245.539357,9.6523359 L245.539357,9.6523359 L245.539357,9.6523359 L245.539357,9.6523359 L245.539357,9.6523359 Z" id="Fill-14" fill="#000000"></path>
                                            <g id="title" transform="translate(95.987723, 162.861210)">
                                                <path d="M132.938111,20.0886149 L132.938111,24.6408057 L117.432316,24.6408057 C119.089713,23.2155513 120.120968,21.6981695 120.526109,20.0886149 L132.938111,20.0886149 L132.938111,20.0886149 L132.938111,20.0886149 L132.938111,20.0886149 Z" id="-" fill="#FFFFFF"></path>
                                                <path d="M157.673779,36.9392055 L157.673779,23.5756315 L140.072008,23.5398999 C141.166917,22.7776246 142.113048,21.7295116 142.910427,20.3955296 C143.707807,19.0615476 144.106491,17.7752272 144.106491,16.5365296 L144.106491,9.60462222 L140.072008,9.60462222 L140.072008,2.52978889 C141.333534,2.52978889 142.190407,2.44641626 142.642652,2.27966851 C143.451933,2.01763634 143.975578,1.41020723 144.213601,0.457362962 L149.854737,0.528825925 C150.735425,1.76752348 151.747011,2.5059667 152.889525,2.74417778 L164.457424,2.67271481 L164.457424,9.60462222 L151.996941,9.53315924 C150.5926,10.4860035 149.890441,12.153456 149.890441,14.5355666 C149.890441,15.1549154 149.949945,15.8338068 150.068957,16.5722611 L164.457424,16.5365296 L164.457424,43.9068443 L140.072008,43.9068443 L140.072008,36.9392055 L157.673779,36.9392055 L157.673779,36.9392055 L157.673779,36.9392055 L157.673779,36.9392055 Z M141.857177,33.0802055 C141.857177,32.1750034 142.416525,31.7224092 143.535237,31.7224092 C144.653949,31.7224092 145.213296,32.2821968 145.213296,33.4017888 C145.213296,34.330812 144.713453,34.7953166 143.713754,34.7953166 C142.47603,34.7953166 141.857177,34.2236186 141.857177,33.0802055 L141.857177,33.0802055 L141.857177,33.0802055 L141.857177,33.0802055 L141.857177,33.0802055 Z M187.414704,46.550974 L187.414704,43.9068443 L169.812933,43.9068443 L169.812933,37.1178629 L173.776008,37.1178629 L173.847416,9.60462222 L169.812933,9.60462222 L169.812933,3.53027037 L180.702467,3.53027037 L180.702467,36.9392055 L187.414704,36.974937 L187.414704,2.67271481 L194.198348,2.67271481 L194.198348,46.550974 L187.414704,46.550974 L187.414704,46.550974 L187.414704,46.550974 L187.414704,46.550974 Z M206.301797,9.60462222 L206.301797,43.9068443 L199.553857,43.9068443 L199.553857,2.85137222 L209.765026,2.85137222 C209.955446,2.89901443 210.12206,2.92283518 210.264874,2.92283518 C210.788526,2.92283518 211.264567,2.69653806 211.69301,2.24393703 C212.026243,1.91044154 212.192857,1.43402655 212.192857,0.814677773 L212.192857,0.457362962 L217.79829,0.528825925 C217.869697,1.5054913 218.131518,2.12483078 218.583764,2.38686296 C218.9408,2.62507403 219.559652,2.74417778 220.44034,2.74417778 L220.833078,2.74417778 L232.436679,2.67271481 L232.365273,43.9068443 L225.760146,43.9068443 L225.688739,9.60462222 L219.976196,9.53315924 C218.571856,10.4860035 217.869696,12.153456 217.869696,14.5355666 C217.869696,15.1549154 217.929202,15.8338068 218.048213,16.5722611 L218.048213,26.6485389 C218.143423,31.1983702 218.286235,34.0449498 218.476654,35.1883629 C218.881295,38.9282767 219.845277,41.8344081 221.368628,43.9068443 L212.12145,43.9068443 L212.050044,9.60462222 L206.301797,9.60462222 L206.301797,9.60462222 L206.301797,9.60462222 L206.301797,9.60462222 Z M262.177604,2.67271481 L262.141901,43.9068443 L237.792188,43.9068443 L237.792188,2.67271481 L262.177604,2.67271481 L262.177604,2.67271481 L262.177604,2.67271481 L262.177604,2.67271481 Z M255.215443,36.9392055 L255.215443,9.60462222 L244.647239,9.60462222 L244.647239,36.9392055 L255.215443,36.9392055 L255.215443,36.9392055 L255.215443,36.9392055 L255.215443,36.9392055 Z M248.396095,14.4641037 C248.396095,13.5589016 248.931641,13.1063074 250.002748,13.1063074 C251.145262,13.1063074 251.716511,13.6780054 251.716511,14.8214185 C251.716511,15.7027995 251.204767,16.1434833 250.181265,16.1434833 C248.991146,16.1434833 248.396095,15.5836957 248.396095,14.4641037 L248.396095,14.4641037 L248.396095,14.4641037 L248.396095,14.4641037 L248.396095,14.4641037 Z" id="sumo" fill="#FFFFFF"></path>
                                                <path d="M8.84823624,9.60462222 L8.84823624,43.9068443 L2.10029538,43.9068443 L2.10029538,2.85137222 L12.3114651,2.85137222 C12.5018842,2.89901443 12.6684983,2.92283518 12.8113126,2.92283518 C13.3349649,2.92283518 13.8110054,2.69653806 14.2394482,2.24393703 C14.5726815,1.91044154 14.7392956,1.43402655 14.7392956,0.814677773 L14.7392956,0.457362962 L20.344728,0.528825925 C20.4161351,1.5054913 20.6779574,2.12483078 21.1302026,2.38686296 C21.4872383,2.62507403 22.1060908,2.74417778 22.9867789,2.74417778 L23.3795162,2.74417778 L34.9831182,2.67271481 L34.9117114,43.9068443 L28.3065841,43.9068443 L28.2351773,9.60462222 L22.5226348,9.53315924 C21.1182945,10.4860035 20.4161348,12.153456 20.4161348,14.5355666 C20.4161348,15.1549154 20.4756399,15.8338068 20.5946517,16.5722611 L20.5946517,26.6485389 C20.6898612,31.1983702 20.8326734,34.0449498 21.0230924,35.1883629 C21.4277329,38.9282767 22.3917148,41.8344081 23.9150671,43.9068443 L14.6678889,43.9068443 L14.5964821,9.60462222 L8.84823624,9.60462222 L8.84823624,9.60462222 L8.84823624,9.60462222 L8.84823624,9.60462222 Z M50.9425338,23.1111222 C50.9425338,27.3751003 51.0377418,31.9844153 51.2281609,36.9392055 L57.9403983,36.974937 L57.9403983,43.9068443 L40.3386268,43.9068443 L40.3386268,37.1178629 L44.3017031,37.1178629 L44.3731099,9.60462222 L40.3386268,9.60462222 L40.3386268,3.53027037 C42.6474575,3.53027037 44.0279748,2.50597814 44.4802201,0.457362962 L50.1213558,0.528825925 C51.0020438,1.76752348 52.0136298,2.5059667 53.156144,2.74417778 L57.9403983,2.67271481 L57.9403983,9.60462222 L52.2635592,9.53315924 C51.3828712,10.1763291 50.9425338,14.7022715 50.9425338,23.1111222 L50.9425338,23.1111222 L50.9425338,23.1111222 L50.9425338,23.1111222 L50.9425338,23.1111222 Z M53.620288,13.4636222 C53.620288,12.5584201 54.1677346,12.1058259 55.262644,12.1058259 C56.4051582,12.1058259 56.9764068,12.6775239 56.9764068,13.820937 C56.9764068,14.702318 56.4527623,15.1430018 55.4054576,15.1430018 C54.2153386,15.1430018 53.620288,14.5832142 53.620288,13.4636222 L53.620288,13.4636222 L53.620288,13.4636222 L53.620288,13.4636222 L53.620288,13.4636222 Z M80.9333821,9.60462222 L75.2208395,9.53315924 C73.816499,10.4860035 73.1143394,12.153456 73.1143394,14.5355666 C73.1143394,15.1549154 73.1738443,15.8338068 73.2928561,16.5722611 L73.2928561,26.6485389 C73.4118679,31.1983702 73.5546806,34.0449498 73.7212972,35.1883629 C74.1497396,38.9282767 75.1256225,41.8344081 76.6489748,43.9068443 L67.2232799,43.9068443 L67.3303901,9.60462222 L63.2959069,9.60462222 L63.2959069,3.53027037 C66.0569829,3.29205929 67.4375002,2.26776707 67.4375002,0.457362962 L73.0786362,0.528825925 C73.9593242,1.76752348 74.9709103,2.5059667 76.1134242,2.74417778 L87.6813229,2.67271481 L87.6456197,43.9068443 L80.8976783,43.9068443 L80.9333821,9.60462222 L80.9333821,9.60462222 L80.9333821,9.60462222 L80.9333821,9.60462222 Z M103.640738,23.1111222 C103.640738,27.3751003 103.735946,31.9844153 103.926365,36.9392055 L110.638603,36.974937 L110.638603,43.9068443 L93.0368315,43.9068443 L93.0368315,37.1178629 L96.999908,37.1178629 L97.0713144,9.60462222 L93.0368315,9.60462222 L93.0368315,3.53027037 C95.3456624,3.53027037 96.7261791,2.50597814 97.1784246,0.457362962 L102.81956,0.528825925 C103.700248,1.76752348 104.711834,2.5059667 105.854349,2.74417778 L110.638603,2.67271481 L110.638603,9.60462222 L104.961763,9.53315924 C104.081075,10.1763291 103.640738,14.7022715 103.640738,23.1111222 L103.640738,23.1111222 L103.640738,23.1111222 L103.640738,23.1111222 L103.640738,23.1111222 Z M106.318492,13.4636222 C106.318492,12.5584201 106.865939,12.1058259 107.960849,12.1058259 C109.103363,12.1058259 109.674611,12.6775239 109.674611,13.820937 C109.674611,14.702318 109.150967,15.1430018 108.103662,15.1430018 C106.913543,15.1430018 106.318492,14.5832142 106.318492,13.4636222 L106.318492,13.4636222 L106.318492,13.4636222 L106.318492,13.4636222 L106.318492,13.4636222 Z" id="mini" fill="#FFFFFF"></path>
                                                <path d="M55.3566591,151.43439 C55.4137477,151.548657 55.4422916,151.60579 55.4422916,151.60579 C55.5564687,151.77719 55.8561792,152.034287 56.3414321,152.377088 C56.8266849,152.719889 57.1263954,152.891287 57.2405725,152.891287 L82.2452408,152.891287 L80.8751218,148.520597 C80.8751218,148.349196 81.0321132,148.077816 81.3461,147.706449 C81.6600876,147.335081 82.016886,146.963719 82.4165056,146.592351 C82.816126,146.220984 83.1729237,145.849622 83.4869112,145.478254 C83.8008981,145.106886 83.9578894,144.835506 83.9578894,144.664106 C83.9578894,143.292902 84.0292487,142.207382 84.1719707,141.407513 C84.314692,140.607644 84.5287704,139.86492 84.8142137,139.179319 C85.0996563,138.493717 85.4421826,137.793842 85.8418029,137.079674 C86.2414226,136.365505 86.6981245,135.4371 87.2119218,134.29443 L84.1291543,134.894329 C82.7590284,135.351396 81.617274,135.579927 80.703857,135.579927 L76.0797063,135.579927 L71.455555,135.579927 C70.1425183,135.579927 69.3432902,134.751504 69.0578473,133.094633 C69.4574672,130.866427 70.0711605,128.681104 70.8989447,126.538598 C71.7267289,124.396093 73.6441143,117.365806 73.6441143,117.365806 L58.6336438,117.365806 C58.6336438,117.365806 56.9123191,124.681756 56.0845348,127.395596 C55.2567506,130.109437 54.4575226,132.780387 53.6868269,135.408527 C52.9161312,138.036668 52.2596225,140.321973 51.7172811,142.264511 C51.1749397,144.20705 50.903773,145.264003 50.903773,145.435404 L50.903773,146.463802 C51.8171901,146.463802 52.8590409,146.506651 54.0293565,146.592351 C55.1996722,146.678051 56.2129792,147.063696 57.0693076,147.749299 C57.0122191,147.863565 56.8980437,148.049247 56.726778,148.306347 C56.5555123,148.563448 56.3699772,148.834828 56.1701672,149.120495 C55.9703572,149.406163 55.7990941,149.677543 55.6563727,149.934643 C55.5136512,150.191744 55.4422916,150.348859 55.4422916,150.405993 C55.4422916,150.405993 55.4137477,150.477408 55.3566591,150.620242 C55.2995706,150.763076 55.2710268,150.920191 55.2710268,151.091591 C55.2710268,151.205858 55.2995706,151.320123 55.3566591,151.43439 L55.3566591,151.43439 L55.3566591,151.43439 L55.3566591,151.43439 Z M87.040657,152.462788 C87.4402766,152.462788 88.0967856,152.448504 89.0102026,152.419937 C89.9236196,152.391371 90.865567,152.377088 91.8360725,152.377088 C92.8636665,152.377088 93.8198861,152.391371 94.7047588,152.419937 C95.5896315,152.448504 96.2604119,152.462788 96.7171208,152.462788 C96.8312978,152.462788 97.1310084,152.505637 97.6162615,152.591337 C98.1015139,152.677037 98.6010315,152.77702 99.1148289,152.891287 C99.6286256,153.005553 100.128143,153.105536 100.613396,153.191236 C101.098649,153.276936 101.398359,153.319785 101.512536,153.319785 L102.111964,153.319785 L102.454493,153.319785 L106.136688,147.3208 L110.932103,147.3208 L111.103368,153.491185 C111.617165,153.491185 112.102411,153.319787 112.55912,152.976986 C113.015828,152.691319 113.486802,152.391373 113.972054,152.077138 C114.457307,151.762904 114.757018,151.60579 114.871195,151.60579 C115.099549,151.60579 115.456348,151.748621 115.941601,152.034288 C116.426853,152.319956 116.755107,152.462788 116.926373,152.462788 C116.983462,152.462788 117.183269,152.477071 117.5258,152.505638 C117.868332,152.534205 118.125226,152.548488 118.296492,152.548488 C118.524846,152.548488 118.824557,152.534205 119.195632,152.505638 C119.566708,152.477071 119.780787,152.462788 119.837875,152.462788 C119.952053,152.462788 120.251763,152.319956 120.737016,152.034288 C121.222269,151.748621 121.52198,151.60579 121.636157,151.60579 C121.807422,151.60579 122.078589,151.677205 122.449665,151.820039 C122.82074,151.962873 123.220354,152.119988 123.648519,152.291388 C124.076683,152.462788 124.476297,152.64847 124.847373,152.848437 C125.218448,153.048404 125.461071,153.205518 125.575248,153.319785 C125.632337,153.148385 125.717969,152.862722 125.832146,152.462788 C125.946323,152.062853 126.046226,151.634359 126.131859,151.17729 C126.217492,150.720223 126.288852,150.291728 126.34594,149.891794 C126.403029,149.491859 126.431572,149.206196 126.431572,149.034795 C126.602838,147.206524 126.816917,144.964068 127.073815,142.307361 C127.330715,139.650654 127.601881,136.879722 127.887323,133.994481 C128.172767,131.10924 128.458205,128.238325 128.743648,125.381651 C129.029091,122.524976 129.271714,119.925442 129.471524,117.582969 C129.671333,115.240496 129.828325,113.326553 129.942502,111.841083 C130.056679,110.355612 130.085223,109.527189 130.028135,109.355789 L129.942502,106.613395 C129.657059,106.613395 129.44298,106.641961 129.300259,106.699095 C129.157537,106.756228 128.829283,106.89906 128.315486,107.127593 C127.801689,107.24186 127.202267,107.470391 126.517205,107.813192 C125.832142,108.155993 125.403984,108.384524 125.232718,108.49879 C125.004364,108.041722 124.747469,107.770342 124.462027,107.684642 C124.176584,107.598942 123.805514,107.556093 123.348805,107.556093 C122.720831,107.556093 122.164226,107.713207 121.678973,108.027441 C121.19372,108.341676 120.637115,108.49879 120.00914,108.49879 L119.495346,108.49879 L118.467757,107.641792 C118.467757,107.641792 118.396397,107.627509 118.253676,107.598943 C118.110955,107.570376 118.011051,107.556093 117.953963,107.556093 C117.896874,107.556093 117.811242,107.570376 117.697065,107.598943 C117.582888,107.627509 117.5258,107.641792 117.5258,107.641792 L116.583844,108.49879 C116.583844,108.49879 116.526756,108.513074 116.412579,108.54164 C116.298402,108.570207 116.21277,108.58449 116.155681,108.58449 C115.984416,108.58449 115.855969,108.570207 115.770336,108.54164 C115.684702,108.513074 115.641887,108.49879 115.641887,108.49879 C115.52771,108.384524 115.356447,108.09886 115.128092,107.641792 C114.899738,107.184724 114.728475,106.899061 114.614297,106.784794 C114.614297,106.784794 114.55721,106.770511 114.443033,106.741944 C114.328856,106.713378 114.214681,106.699095 114.100504,106.699095 C114.043414,106.699095 113.957783,106.713378 113.843606,106.741944 C113.729429,106.770511 113.672341,106.784794 113.672341,106.784794 C113.501075,106.841928 113.315541,106.970476 113.11573,107.170443 C112.91592,107.370411 112.787473,107.527525 112.730385,107.641792 L87.040657,152.462788 L87.040657,152.462788 L87.040657,152.462788 L87.040657,152.462788 Z M116.155681,125.038851 L114.528665,136.094126 L109.39072,136.008426 C110.018694,135.037156 110.375492,134.437264 110.461125,134.20873 C110.546758,133.980196 110.589573,133.837365 110.589573,133.780231 C110.817928,133.608831 111.017735,133.408866 111.189001,133.180333 C111.360266,132.951799 111.617161,132.537587 111.959692,131.937686 C112.302224,131.337784 112.801742,130.495078 113.45826,129.409542 C114.114778,128.324005 115.01391,126.867123 116.155681,125.038851 L116.155681,125.038851 L116.155681,125.038851 L116.155681,125.038851 L116.155681,125.038851 Z M132.254577,144.321307 C132.254577,144.435574 132.368753,144.706954 132.597107,145.135454 C132.825462,145.563956 132.996724,145.863902 133.110901,146.035302 C135.280267,148.663443 137.563776,150.477404 139.961496,151.47724 C142.359216,152.477076 145.213601,152.976986 148.524739,152.976986 C150.86537,152.976986 153.120335,152.577058 155.2897,151.777189 C157.459065,150.97732 159.371504,149.834668 161.027072,148.349197 C162.682641,146.863726 164.00993,145.092615 165.008981,143.03581 C166.00803,140.979004 166.507548,138.693699 166.507548,136.179826 C166.507548,134.522954 166.250653,133.05179 165.736856,131.766286 C165.223059,130.480783 164.580822,129.280998 163.810127,128.166894 C163.039431,127.052791 162.211659,125.952988 161.326786,124.867452 C160.441913,123.781916 159.599869,122.553564 158.800629,121.182361 C158.914807,121.182361 159.128885,121.168077 159.442873,121.139511 C159.75686,121.110944 159.970939,121.096661 160.085116,121.096661 C160.941444,121.096661 161.683585,121.282342 162.311559,121.653709 C162.939533,122.025077 163.538954,122.453572 164.10984,122.939206 C164.680726,123.424841 165.265875,123.853336 165.865304,124.224704 C166.464734,124.596071 167.106971,124.781752 167.792034,124.781752 L168.305829,124.267554 L168.391461,121.696559 L170.874802,121.096661 L170.617904,117.15447 L173.529407,117.582969 L175.242055,116.211772 C174.956612,115.126236 174.899524,114.497777 175.070791,114.326377 C173.243956,112.098171 170.946176,110.398475 168.17738,109.227238 C165.408584,108.056002 162.568471,107.470392 159.656953,107.470392 C157.658854,107.470392 155.603696,107.784622 153.491419,108.413091 C151.379142,109.041559 149.43816,109.969964 147.668414,111.198334 C145.898668,112.426704 144.442932,113.912152 143.301161,115.654723 C142.159389,117.397295 141.588512,119.382654 141.588512,121.61086 C141.588512,123.496265 141.973854,125.138828 142.74455,126.538598 C143.515245,127.938369 144.442921,129.252419 145.527603,130.480789 C146.612286,131.709159 147.754041,132.93751 148.9529,134.16588 C150.151761,135.39425 151.150795,136.779716 151.950035,138.322321 C151.77877,138.779388 151.550419,139.050769 151.264976,139.136469 C150.979533,139.222169 150.66555,139.265018 150.323019,139.265018 C149.238337,139.265018 148.282117,138.993638 147.454333,138.45087 C146.626549,137.908102 145.827321,137.293926 145.056625,136.608324 C144.285929,135.922723 143.529517,135.308547 142.787366,134.765779 C142.045215,134.223011 141.245986,133.951631 140.389658,133.951631 C140.275481,133.951631 139.990042,133.837366 139.533334,133.608831 L138.848274,136.694025 L136.193669,137.636723 L138.848274,140.807615 L133.282166,141.150414 L132.254577,144.321307 L132.254577,144.321307 L132.254577,144.321307 L132.254577,144.321307 Z M185.089784,107.727492 L184.661622,107.727492 C184.661622,107.727492 184.604534,107.827474 184.490357,108.027441 C184.37618,108.227409 184.247733,108.470222 184.105011,108.75589 C183.96229,109.041557 183.819571,109.312937 183.676849,109.570037 C183.534127,109.827139 183.434224,109.984253 183.377135,110.041387 C183.148781,110.555588 182.849071,111.269746 182.477995,112.183882 C182.106919,113.098018 181.73585,113.997856 181.364773,114.883426 C180.993698,115.768995 180.665443,116.554568 180.380001,117.24017 C180.094558,117.925771 179.923295,118.354267 179.866206,118.525667 C179.409498,119.668337 178.924252,120.896688 178.410455,122.210758 C177.896658,123.524828 177.325781,125.067409 176.697806,126.838547 C176.012743,128.495419 175.370507,130.137982 174.771076,131.766286 C174.171647,133.39459 173.557954,135.037154 172.929979,136.694025 C172.359094,138.293762 171.816761,139.779211 171.302964,141.150414 C170.789166,142.521618 170.332465,143.735686 169.932845,144.792655 C169.533225,145.849625 169.219242,146.692331 168.990888,147.3208 C168.762534,147.949268 168.648358,148.292064 168.648358,148.349197 L168.220196,152.719887 C168.448551,152.719887 168.89098,152.677037 169.547499,152.591337 C170.204017,152.505637 170.917614,152.419938 171.68831,152.334238 C172.459005,152.248538 173.172601,152.162838 173.82912,152.077138 C174.485639,151.991438 174.956612,151.948589 175.242055,151.948589 C175.356232,151.948589 175.684487,151.762907 176.226828,151.39154 C176.769169,151.020173 177.097424,150.805925 177.211601,150.748792 L177.639763,150.748792 L178.067925,150.748792 L179.780574,151.948589 L180.208736,151.948589 L180.636898,151.948589 C180.693987,151.720055 180.836706,151.33441 181.06506,150.791641 C181.293414,150.248873 181.550309,149.663264 181.835752,149.034795 C182.121195,148.406327 182.37809,147.806435 182.606444,147.235099 C182.834798,146.663765 182.977517,146.206704 183.034606,145.863903 C183.320049,145.235435 183.748207,144.349879 184.319093,143.207209 C184.889978,142.06454 185.389495,141.093284 185.81766,140.293416 C186.245824,139.493547 186.488447,139.036486 186.545535,138.922219 L190.827157,138.922219 C190.598803,140.864758 190.113556,142.750135 189.371406,144.578406 C188.629254,146.406678 188.144008,148.32062 187.915654,150.320292 C187.858565,150.320292 187.830022,150.548823 187.830022,151.005891 C187.830022,151.577225 187.801478,151.891456 187.744389,151.948589 C187.972744,151.777189 188.429445,151.548658 189.114508,151.26299 C189.799571,150.977323 190.284816,150.805925 190.570259,150.748792 L191.084054,150.748792 L191.512216,150.748792 C191.569305,150.805925 191.68348,151.020173 191.854746,151.39154 C192.026011,151.762907 192.140187,151.948589 192.197276,151.948589 C192.311453,151.948589 192.625435,151.748624 193.139232,151.34869 C193.653029,150.948756 193.967011,150.748792 194.081189,150.748792 C194.138278,150.748792 194.45226,150.720226 195.023146,150.663092 C195.594031,150.605958 196.050733,150.577392 196.393264,150.577392 C196.678707,150.577392 197.106865,150.605958 197.677751,150.663092 C198.248636,150.720226 198.562618,150.748792 198.619707,150.748792 C198.733885,150.748792 198.990779,150.948756 199.390399,151.34869 C199.790019,151.748624 200.046914,151.948589 200.161091,151.948589 C200.275268,151.948589 200.446531,151.791474 200.674885,151.47724 C200.90324,151.163006 201.074503,150.920192 201.18868,150.748792 L217.287576,110.041387 L217.373209,109.527188 C217.030677,109.527188 216.431256,109.455772 215.574928,109.312938 C214.718599,109.170104 214.147722,109.070123 213.862279,109.012989 C213.805191,109.012989 213.676743,108.798742 213.476933,108.37024 C213.277123,107.94174 213.148676,107.727492 213.091587,107.727492 C213.034499,107.727492 212.82042,107.913173 212.449344,108.284541 C212.078269,108.655908 211.692927,109.055837 211.293306,109.484338 C210.893687,109.912839 210.508344,110.312768 210.137269,110.684135 C209.766193,111.055503 209.552114,111.241184 209.495026,111.241184 C209.380849,111.241184 209.309489,111.126919 209.280944,110.898385 C209.2524,110.669851 209.195312,110.427037 209.109679,110.169936 C209.024047,109.912836 208.909871,109.670022 208.76715,109.441488 C208.624428,109.212954 208.381806,109.098689 208.039274,109.098689 C207.4113,109.098689 206.783335,109.084406 206.155361,109.055839 C205.527387,109.027272 205.099229,109.012989 204.870874,109.012989 C204.2429,109.52719 203.557847,110.327047 202.815697,111.412583 C202.073545,112.49812 201.345676,113.669339 200.63207,114.926275 C199.918463,116.183212 199.276226,117.382997 198.70534,118.525667 C198.134454,119.668337 197.73484,120.525326 197.506486,121.096661 L194.252453,121.096661 C194.366631,120.068258 194.609254,119.011304 194.980329,117.925768 C195.351405,116.840232 195.751019,115.768995 196.179183,114.712026 C196.607348,113.655056 197.006961,112.612386 197.378037,111.583983 C197.749113,110.555581 197.991735,109.584325 198.105913,108.67019 C197.934647,108.67019 197.620665,108.684473 197.163956,108.71304 C196.707248,108.741607 196.222002,108.784456 195.708205,108.84159 C195.194408,108.898723 194.709162,108.941572 194.252453,108.970139 C193.795745,108.998706 193.481762,109.012989 193.310497,109.012989 C193.253408,109.012989 193.096417,109.070122 192.839519,109.184389 C192.58262,109.298655 192.297181,109.412921 191.983194,109.527188 C191.669208,109.641455 191.369497,109.75572 191.084054,109.869987 C190.798611,109.984254 190.627348,110.041387 190.570259,110.041387 C190.513171,110.041387 190.384723,109.884272 190.184914,109.570037 C189.985103,109.255804 189.856656,109.070123 189.799568,109.012989 L189.285773,109.012989 L188.857611,109.012989 C188.743433,109.070123 188.429451,109.298653 187.915654,109.698588 C187.401857,110.098522 187.087875,110.241353 186.973698,110.127086 C186.916609,110.069953 186.830977,109.969971 186.7168,109.827137 C186.602623,109.684303 186.402816,109.44149 186.117373,109.098689 C185.889019,108.641621 185.732028,108.298826 185.646395,108.070291 C185.560762,107.841757 185.517946,107.727492 185.517946,107.727492 L185.089784,107.727492 L185.089784,107.727492 L185.089784,107.727492 L185.089784,107.727492 Z M212.406528,138.150921 L212.406528,137.893822 L226.96404,108.32739 L227.30657,108.32739 C228.219987,108.32739 229.019215,108.441656 229.704278,108.67019 C230.38934,108.898724 231.245656,109.012989 232.273251,109.012989 C232.958313,109.012989 233.500647,108.941573 233.900267,108.79874 C234.299887,108.655906 234.670957,108.513074 235.013488,108.37024 C235.356019,108.227407 235.684274,108.084575 235.998261,107.941742 C236.312248,107.798908 236.726134,107.727492 237.239932,107.727492 L238.95258,109.527188 C238.324606,110.784125 237.810816,111.841079 237.411196,112.698081 C237.011576,113.555083 236.640506,114.369223 236.297974,115.140525 C235.955443,115.911827 235.627189,116.668834 235.313202,117.411569 C234.999215,118.154305 234.642416,119.011294 234.242796,119.982564 C233.443556,121.810835 232.601513,123.696212 231.71664,125.63875 C230.831767,127.581288 230.103899,129.152436 229.533013,130.352239 C229.475924,130.52364 229.290389,130.895002 228.976402,131.466336 C228.662415,132.037671 228.319889,132.651847 227.948813,133.308882 C227.577737,133.965917 227.220939,134.622942 226.878408,135.279978 C226.535877,135.937013 226.278982,136.436923 226.107716,136.779724 C225.993539,137.008258 225.750916,137.365337 225.37984,137.850971 C225.008765,138.336606 224.537791,138.57942 223.966906,138.57942 C223.909817,138.57942 223.824185,138.565137 223.710008,138.53657 C223.595831,138.508004 223.538743,138.49372 223.538743,138.49372 C223.481655,138.436587 223.338935,138.322322 223.110581,138.150921 C222.882227,137.97952 222.739507,137.893822 222.682419,137.893822 C222.568242,137.893822 222.282803,137.993803 221.826094,138.193771 C221.369386,138.393738 221.083948,138.49372 220.96977,138.49372 C220.912682,138.49372 220.841322,138.279473 220.75569,137.850971 C220.670057,137.422471 220.570153,136.951126 220.455976,136.436925 C220.341798,135.922723 220.241895,135.45138 220.156262,135.022878 C220.070629,134.594377 219.99927,134.38013 219.942182,134.38013 C219.885093,134.38013 219.742373,134.594377 219.514019,135.022878 C219.285665,135.45138 219.02877,135.922723 218.743328,136.436925 C218.457884,136.951126 218.20099,137.422471 217.972635,137.850971 C217.744281,138.279473 217.601562,138.49372 217.544474,138.49372 C217.430296,138.49372 217.144858,138.393738 216.688149,138.193771 C216.23144,137.993803 215.946002,137.893822 215.831825,137.893822 C215.717648,137.893822 215.532113,137.950954 215.275214,138.065221 C215.018316,138.179488 214.747149,138.322319 214.461706,138.49372 C214.176263,138.665121 213.919368,138.807952 213.691014,138.922219 C213.46266,139.036486 213.31994,139.093619 213.262852,139.093619 C213.148675,139.093619 212.991684,139.022203 212.791874,138.87937 C212.592064,138.736536 212.463617,138.607988 212.406528,138.49372 L212.406528,138.150921 L212.406528,138.150921 L212.406528,138.150921 L212.406528,138.150921 Z M212.406528,151.26299 C212.349439,151.09159 212.306623,150.648812 212.278079,149.934643 C212.249535,149.220475 212.235263,148.777697 212.235263,148.606297 C212.235263,146.37809 212.906044,144.83551 214.247625,143.978508 C215.589206,143.121505 217.344653,142.69301 219.514019,142.69301 C221.112499,142.69301 222.197166,143.050089 222.768052,143.764258 C223.338937,144.478427 223.624376,145.521097 223.624376,146.8923 C223.624376,148.834839 223.010683,150.334571 221.783279,151.39154 C220.555874,152.448509 218.857515,152.976986 216.688149,152.976986 C215.888909,152.976986 215.089681,152.862721 214.290441,152.634187 C213.491201,152.405653 212.863236,151.948592 212.406528,151.26299 L212.406528,151.26299 L212.406528,151.26299 L212.406528,151.26299 L212.406528,151.26299 Z M234.071531,138.150921 L234.071531,137.893822 L248.629044,108.32739 L248.971574,108.32739 C249.884991,108.32739 250.684219,108.441656 251.369282,108.67019 C252.054344,108.898724 252.91066,109.012989 253.938254,109.012989 C254.623317,109.012989 255.16565,108.941573 255.565271,108.79874 C255.96489,108.655906 256.335961,108.513074 256.678492,108.37024 C257.021023,108.227407 257.349278,108.084575 257.663265,107.941742 C257.977252,107.798908 258.391138,107.727492 258.904935,107.727492 L260.617584,109.527188 C259.989609,110.784125 259.47582,111.841079 259.0762,112.698081 C258.67658,113.555083 258.30551,114.369223 257.962978,115.140525 C257.620447,115.911827 257.292193,116.668834 256.978205,117.411569 C256.664218,118.154305 256.30742,119.011294 255.9078,119.982564 C255.10856,121.810835 254.266517,123.696212 253.381644,125.63875 C252.49677,127.581288 251.768902,129.152436 251.198017,130.352239 C251.140928,130.52364 250.955393,130.895002 250.641406,131.466336 C250.327418,132.037671 249.984892,132.651847 249.613817,133.308882 C249.242741,133.965917 248.885943,134.622942 248.543411,135.279978 C248.20088,135.937013 247.943985,136.436923 247.77272,136.779724 C247.658543,137.008258 247.41592,137.365337 247.044844,137.850971 C246.673769,138.336606 246.202794,138.57942 245.631909,138.57942 C245.574821,138.57942 245.489189,138.565137 245.375012,138.53657 C245.260835,138.508004 245.203747,138.49372 245.203747,138.49372 C245.146658,138.436587 245.003939,138.322322 244.775585,138.150921 C244.54723,137.97952 244.404511,137.893822 244.347422,137.893822 C244.233245,137.893822 243.947807,137.993803 243.491098,138.193771 C243.03439,138.393738 242.748952,138.49372 242.634774,138.49372 C242.577685,138.49372 242.506326,138.279473 242.420693,137.850971 C242.33506,137.422471 242.235157,136.951126 242.12098,136.436925 C242.006802,135.922723 241.906899,135.45138 241.821266,135.022878 C241.735633,134.594377 241.664274,134.38013 241.607185,134.38013 C241.550097,134.38013 241.407377,134.594377 241.179023,135.022878 C240.950669,135.45138 240.693774,135.922723 240.408331,136.436925 C240.122888,136.951126 239.865994,137.422471 239.637639,137.850971 C239.409285,138.279473 239.266566,138.49372 239.209477,138.49372 C239.0953,138.49372 238.809862,138.393738 238.353153,138.193771 C237.896444,137.993803 237.611006,137.893822 237.496829,137.893822 C237.382652,137.893822 237.197117,137.950954 236.940218,138.065221 C236.683319,138.179488 236.412153,138.322319 236.12671,138.49372 C235.841267,138.665121 235.584372,138.807952 235.356018,138.922219 C235.127664,139.036486 234.984944,139.093619 234.927856,139.093619 C234.813679,139.093619 234.656687,139.022203 234.456877,138.87937 C234.257068,138.736536 234.12862,138.607988 234.071531,138.49372 L234.071531,138.150921 L234.071531,138.150921 L234.071531,138.150921 L234.071531,138.150921 Z M234.071531,151.26299 C234.014443,151.09159 233.971627,150.648812 233.943083,149.934643 C233.914539,149.220475 233.900267,148.777697 233.900267,148.606297 C233.900267,146.37809 234.571047,144.83551 235.912629,143.978508 C237.25421,143.121505 239.009657,142.69301 241.179023,142.69301 C242.777503,142.69301 243.862169,143.050089 244.433055,143.764258 C245.003941,144.478427 245.28938,145.521097 245.28938,146.8923 C245.28938,148.834839 244.675686,150.334571 243.448282,151.39154 C242.220878,152.448509 240.522519,152.976986 238.353153,152.976986 C237.553913,152.976986 236.754685,152.862721 235.955445,152.634187 C235.156205,152.405653 234.52824,151.948592 234.071531,151.26299 L234.071531,151.26299 L234.071531,151.26299 L234.071531,151.26299 L234.071531,151.26299 Z" id="clash!!" fill="#FFFFFF"></path>
                                                <path d="M0.894757147,159.860851 C1.45310212,162.656031 2.44092843,165.107152 3.85826568,167.214287 C5.27560293,169.321424 7.16535756,171.020007 9.52758637,172.310091 C11.8898151,173.600174 14.8747685,174.245206 18.482536,174.245206 C19.599226,174.245206 21.3601338,174.073197 23.7653121,173.729175 C26.1704905,173.385153 28.5541583,172.826125 30.916387,172.052075 C33.2786158,171.278025 35.3616408,170.267476 37.1655246,169.020395 C38.9694084,167.773315 39.8713368,166.246739 39.8713368,164.440623 C39.8713368,164.354618 39.8498622,164.225611 39.8069127,164.0536 C39.763963,163.881589 39.7424885,163.795585 39.7424885,163.795585 C39.6565893,163.795585 39.377421,163.774084 38.9049753,163.731081 C38.4325295,163.688078 37.9386164,163.623575 37.423221,163.537569 C36.9078256,163.451563 36.435387,163.36556 36.0058908,163.279554 C35.5763947,163.193549 35.3616498,163.107544 35.3616498,163.021538 L36.0058908,160.312378 L37.1655246,153.474972 L34.7174089,152.700925 C34.4597112,149.174698 34.5885581,147.712626 35.1039535,148.314665 C33.3859689,149.002709 31.5821122,149.819749 29.6923292,150.76581 C27.8025462,151.711871 25.8698425,152.184895 23.8941603,152.184895 C23.6364626,152.184895 23.1854985,152.012887 22.5412542,151.668864 C21.89701,151.324842 21.4889948,151.066829 21.3171964,150.894818 C21.2312972,150.550796 21.1668737,149.798259 21.123924,148.637184 C21.0809745,147.476109 21.0595,146.723573 21.0595,146.37955 C21.0595,144.831451 21.3171938,142.853353 21.8325891,140.445197 C22.3479845,138.037042 23.1425405,135.693427 24.2162808,133.41428 C25.2900212,131.135133 26.6214392,129.178537 28.2105749,127.544432 C29.7997106,125.910326 31.6679908,125.093286 33.8154715,125.093286 L34.4597125,125.093286 C34.7174101,125.265297 35.2113233,125.523309 35.9414667,125.867332 C36.6716101,126.211354 37.4876406,126.598373 38.3895825,127.028401 C39.2915243,127.458428 40.1075548,127.845448 40.8376982,128.18947 C41.5678417,128.533492 42.0617548,128.791504 42.3194525,128.963515 L42.5771489,126.254355 L45.4118092,125.738324 L44.2521755,121.481071 L49.1484069,121.997102 L50.0430507,117.745816 L39.0982476,105.613129 C32.9135031,105.613129 27.3945606,106.924693 22.5412542,109.547862 C17.6879479,112.171031 13.5863213,115.611201 10.2362515,119.868475 C6.88618156,124.125749 4.35219235,128.98499 2.63420781,134.446341 C0.916223259,139.907693 0.0572438668,145.476468 0.0572438668,151.152834 C0.0572438668,154.163028 0.336412168,157.065671 0.894757147,159.860851 L0.894757147,159.860851 L0.894757147,159.860851 L0.894757147,159.860851 Z" id="c" fill="#FFFFFF"></path>
                                                <g id="はっけよい、のこった！-+-20-5-2015-kl-1700" transform="translate(46.000000, 161.000000)" fill="#FFFFFF">
                                                    <g id="Group" transform="translate(181.012277, 1.932366)">
                                                        <path d="M0,0 L2.51886775,0 L1.88451236,5.26492325 C1.88451236,5.26492325 1.25523182,5.31230619 0.50377355,4.53495129 C0.50294008,4.5340891 1.00838087,1.51251646 1.0075471,1.51165043 L0,0 L0,0 L0,0 Z" id="Rectangle-36-Copy-5"></path>
                                                        <rect id="Rectangle-36-Copy-4" transform="translate(1.256342, 7.190731) scale(1, -1) translate(-1.256342, -7.190731) " x="0.50068125" y="6.4349062" width="1.51132065" height="1.51165043"></rect>
                                                    </g>
                                                    <g id="Group-Copy" transform="translate(188.012277, 1.932366)">
                                                        <path d="M-2.55795385e-13,7.10542736e-15 L2.51886775,7.10542736e-15 L1.88451236,5.26492325 C1.88451236,5.26492325 1.25523182,5.31230619 0.50377355,4.53495129 C0.502940083,4.5340891 1.00838087,1.51251646 1.0075471,1.51165043 L-2.55795385e-13,7.10542736e-15 L-2.55795385e-13,7.10542736e-15 L-2.55795385e-13,7.10542736e-15 Z" id="Rectangle-36-Copy-5"></path>
                                                        <rect id="Rectangle-36-Copy-4" transform="translate(1.256342, 7.190731) scale(1, -1) translate(-1.256342, -7.190731) " x="0.50068125" y="6.4349062" width="1.51132065" height="1.51165043"></rect>
                                                    </g>
                                                    <g id="Group-Copy-2" transform="translate(197.012277, 1.932366)">
                                                        <path d="M0,0 L2.51886775,0 L1.88451236,5.26492325 C1.88451236,5.26492325 1.25523182,5.31230619 0.50377355,4.53495129 C0.50294008,4.5340891 1.00838087,1.51251646 1.0075471,1.51165043 L0,0 L0,0 L0,0 Z" id="Rectangle-36-Copy-5"></path>
                                                        <rect id="Rectangle-36-Copy-4" transform="translate(1.256342, 7.190731) scale(1, -1) translate(-1.256342, -7.190731) " x="0.50068125" y="6.4349062" width="1.51132065" height="1.51165043"></rect>
                                                    </g>
                                                    <path d="M3.69328649,8.5048528 C3.16128383,9.1761895 2.59445616,9.8063499 1.99278649,10.3953528 C1.39111681,10.9843558 1.03328706,11.2788528 0.919286486,11.2788528 C0.893953026,11.2788528 0.881286486,11.2566864 0.881286486,11.2123528 C0.881286486,11.1680193 0.938285916,11.057187 1.05228649,10.8798528 C2.69896139,8.384507 3.94028231,4.9962076 4.77628649,0.71485282 C5.29562242,0.89218704 5.86878335,1.12968467 6.49578649,1.42735282 C7.12278962,1.72502098 7.52178563,1.93085225 7.69278649,2.04485282 C7.86378734,2.15885339 7.94928649,2.26335235 7.94928649,2.35835282 C7.94928649,2.4533533 7.86695398,2.516686 7.70228649,2.54835282 C7.537619,2.58001965 7.40778696,2.66551879 7.31278649,2.80485282 C7.21778601,2.94418685 7.03412118,3.2861834 6.76178649,3.8308528 C6.48945179,4.3755222 6.10628896,5.027849 5.61228649,5.7878528 C6.16962261,5.8511865 6.44828649,5.9841851 6.44828649,6.1868528 C6.44828649,6.3261869 6.32795436,6.446519 6.08728649,6.5478528 L6.08728649,17.5488528 C6.08728649,17.7388538 6.0429536,17.8781857 5.95428649,17.9668528 C5.86561938,18.0555199 5.61862185,18.1410191 5.21328649,18.2233528 C4.80795113,18.3056866 4.45962128,18.3468528 4.16828649,18.3468528 C3.8769517,18.3468528 3.71228668,18.327853 3.67428649,18.2898528 C3.6362863,18.2518526 3.61728649,18.1758534 3.61728649,18.0618528 L3.67428649,16.2758528 C3.68695322,15.7185167 3.69328649,15.1928553 3.69328649,14.6988528 L3.69328649,8.5048528 L3.69328649,8.5048528 L3.69328649,8.5048528 Z M9.73528649,1.03785282 C10.1026217,1.03785282 10.6631161,1.16451822 11.4167865,1.41785282 C12.1704569,1.67118742 12.7151181,1.99101756 13.0507865,2.37735282 C13.3864548,2.76368809 13.5542865,3.1785173 13.5542865,3.6218528 C13.5542865,4.0651884 13.4117879,4.432518 13.1267865,4.7238528 C12.8417851,5.0151876 12.4871219,5.1608528 12.0627865,5.1608528 C11.638451,5.1608528 11.3059544,5.0341874 11.0652865,4.7808528 C10.8246186,4.5275182 10.7042865,4.2298545 10.7042865,3.8878528 C10.7042865,3.7991857 10.7264529,3.6535205 10.7707865,3.4508528 C10.81512,3.2481851 10.8372865,3.0075209 10.8372865,2.72885282 C10.8372865,2.45018476 10.7486207,2.19685396 10.5712865,1.96885282 C10.3939523,1.74085168 10.1754545,1.55718685 9.91578649,1.41785282 C9.65611852,1.27851879 9.52628649,1.18035311 9.52628649,1.12335282 C9.52628649,1.06635254 9.59595246,1.03785282 9.73528649,1.03785282 L9.73528649,1.03785282 L9.73528649,1.03785282 L9.73528649,1.03785282 Z M14.8842865,5.5598528 C15.0996209,5.1545175 15.3022855,4.803021 15.4922865,4.5053528 C15.6822874,4.2076847 15.8121195,4.0208532 15.8817865,3.9448528 C15.9514535,3.8688524 16.0242861,3.8308528 16.1002865,3.8308528 C16.2902874,3.8308528 16.7557828,4.1316831 17.4967865,4.7333528 C18.2377902,5.3350225 18.6082865,5.7498517 18.6082865,5.9778528 C18.6082865,6.1171869 18.4436215,6.1868528 18.1142865,6.1868528 L7.85428649,6.1868528 C7.60095189,6.1868528 7.37295417,6.2565188 7.17028649,6.3958528 L6.67628649,5.5028528 C6.98028801,5.540853 7.29695151,5.5598528 7.62628649,5.5598528 L14.8842865,5.5598528 L14.8842865,5.5598528 L14.8842865,5.5598528 Z M12.4332865,16.6368528 C13.2692907,12.8495006 13.7252861,9.6195329 13.8012865,6.9468528 C14.5232901,7.124187 15.2262831,7.3268517 15.9102865,7.5548528 C16.5942899,7.782854 16.9932859,7.9380191 17.1072865,8.0203528 C17.2212871,8.1026866 17.2782865,8.1976856 17.2782865,8.3053528 C17.2782865,8.41302 17.1864541,8.4985192 17.0027865,8.5618528 C16.8191189,8.6251865 16.6512872,8.7803516 16.4992865,9.0273528 C16.3472857,9.2743541 16.1699542,9.6448504 15.9672865,10.1388528 C15.0679487,12.4188642 14.136958,14.5848426 13.1742865,16.6368528 L15.2262865,16.6368528 C15.4669544,16.206184 15.6917854,15.8293544 15.9007865,15.5063528 C16.1097875,15.1833512 16.2491195,14.9838532 16.3187865,14.9078528 C16.3884535,14.8318524 16.4612861,14.7938528 16.5372865,14.7938528 C16.7146207,14.7938528 17.1516163,15.1073497 17.8482865,15.7343528 C18.5449566,16.361356 18.8932865,16.795185 18.8932865,17.0358528 C18.8932865,17.1878536 18.7286215,17.2638528 18.3992865,17.2638528 L7.32228649,17.2638528 C7.06895189,17.2638528 6.84095417,17.3335188 6.63828649,17.4728528 L6.14428649,16.5798528 C6.44828801,16.617853 6.76495151,16.6368528 7.09428649,16.6368528 L12.4332865,16.6368528 L12.4332865,16.6368528 L12.4332865,16.6368528 Z M7.43628649,7.3078528 C7.60095398,7.3078528 8.08861577,7.6403495 8.89928649,8.3053528 C9.70995721,8.9703561 10.3464508,9.6923489 10.8087865,10.4713528 C11.2711221,11.2503567 11.5022865,12.0515154 11.5022865,12.8748528 C11.5022865,13.4448557 11.3281216,13.9293508 10.9797865,14.3283528 C10.6314514,14.7273548 10.2166222,14.9268528 9.73528649,14.9268528 C9.12728345,14.9268528 8.82328649,14.5531899 8.82328649,13.8058528 C8.82328649,13.6158519 8.85495284,13.3593544 8.91828649,13.0363528 C8.98162014,12.7133512 9.01328649,12.2446892 9.01328649,11.6303528 C9.01328649,11.0160164 8.88662109,10.3446898 8.63328649,9.6163528 C8.37995189,8.8880158 8.02528877,8.2388557 7.56928649,7.6688528 C7.44261919,7.5295188 7.37928649,7.4345197 7.37928649,7.3838528 C7.37928649,7.3331859 7.3982863,7.3078528 7.43628649,7.3078528 L7.43628649,7.3078528 L7.43628649,7.3078528 L7.43628649,7.3078528 Z M33.0192866,5.5028528 C33.3612883,5.7435207 33.7317846,6.0316845 34.1307866,6.3673528 C34.5297886,6.7030212 34.7704528,6.9310189 34.8527866,7.0513528 C34.9351203,7.1716868 34.9762866,7.2761857 34.9762866,7.3648528 C34.9762866,7.542187 34.868621,7.6308528 34.6532866,7.6308528 L27.3002866,7.6308528 L27.1862866,9.0178528 L29.3712866,9.0178528 C29.8272889,8.2831825 30.1154526,7.9158528 30.2357866,7.9158528 C30.3561205,7.9158528 30.6569508,8.0710179 31.1382866,8.3813528 C31.6196223,8.6916877 31.9932853,8.9386852 32.2592866,9.1223528 C32.5252879,9.3060204 32.6582866,9.4738521 32.6582866,9.6258528 C32.6582866,9.7778536 32.4239556,9.9298521 31.9552866,10.0818528 L31.9552866,16.8078528 L32.3352866,16.8078528 C32.4999541,16.516518 32.7026187,16.2030212 32.9432866,15.8673528 C33.1839545,15.5316845 33.3327863,15.3385197 33.3897866,15.2878528 C33.4467869,15.2371859 33.5069529,15.2118528 33.5702866,15.2118528 C33.6336202,15.2118528 33.8362849,15.3511848 34.1782866,15.6298528 C34.5202883,15.9085209 34.852785,16.2093512 35.1757866,16.5323528 C35.4987882,16.8553544 35.6602866,17.0865188 35.6602866,17.2258528 C35.6602866,17.3651869 35.5146214,17.4348528 35.2232866,17.4348528 L18.5982866,17.4348528 C18.344952,17.4348528 18.1169543,17.5045188 17.9142866,17.6438528 L17.4202866,16.7508528 C17.7242881,16.788853 18.0409516,16.8078528 18.3702866,16.8078528 L20.9922866,16.8078528 L20.9922866,9.9108528 C20.9922866,9.2775163 20.97962,8.7138553 20.9542866,8.2198528 C21.8789579,8.4605207 22.5882841,8.726518 23.0822866,9.0178528 L24.9062866,9.0178528 L25.0202866,7.6308528 L19.1872866,7.6308528 C18.933952,7.6308528 18.7059543,7.7005188 18.5032866,7.8398528 L18.0092866,6.9468528 C18.3132881,6.984853 18.6299516,7.0038528 18.9592866,7.0038528 L25.0772866,7.0038528 C25.0899533,6.8265186 25.0962866,6.6048542 25.0962866,6.3388528 C25.0962866,6.0728515 25.0899533,5.7878543 25.0772866,5.4838528 L21.6762866,5.4838528 C21.6636199,5.5725199 21.6097871,5.6516858 21.5147866,5.7213528 C21.4197861,5.7910198 21.1189558,5.8860189 20.6122866,6.0063528 C20.1056174,6.1266868 19.7889539,6.1868528 19.6622866,6.1868528 C19.5356193,6.1868528 19.4786199,6.1361867 19.4912866,6.0348528 C19.5419535,5.5915173 19.5672866,4.9328572 19.5672866,4.0588528 L19.5672866,2.93785282 C19.5672866,2.16518229 19.55462,1.50652221 19.5292866,0.96185282 C20.2766237,1.13918704 21.0239495,1.3798513 21.7712866,1.68385282 L30.7772866,1.68385282 C31.131955,0.98718267 31.3947857,0.63885282 31.5657866,0.63885282 C31.7367874,0.63885282 32.1927829,0.86051727 32.9337866,1.30385282 C33.6747903,1.74718837 34.0452866,2.05118533 34.0452866,2.21585282 C34.0452866,2.34252012 33.8299554,2.51351841 33.3992866,2.72885282 L33.3992866,3.6978528 C33.3992866,4.1285216 33.4056199,4.4198521 33.4182866,4.5718528 L33.4372866,5.0278528 C33.4372866,5.205187 33.2979546,5.3635188 33.0192866,5.5028528 L33.0192866,5.5028528 L33.0192866,5.5028528 L33.0192866,5.5028528 Z M29.5992866,2.31085282 C29.5866199,2.43752012 29.4916208,2.54518571 29.3142866,2.63385282 L29.3142866,4.8568528 L31.0622866,4.8568528 L31.0622866,2.31085282 L29.5992866,2.31085282 L29.5992866,2.31085282 L29.5992866,2.31085282 Z M25.7422866,2.31085282 C25.7296199,2.42485339 25.6409541,2.51351917 25.4762866,2.57685282 L25.4762866,4.8568528 L27.3192866,4.8568528 L27.3192866,2.31085282 L25.7422866,2.31085282 L25.7422866,2.31085282 L25.7422866,2.31085282 Z M21.9612866,2.31085282 C21.9232864,2.50085377 21.8282873,2.62751917 21.6762866,2.69085282 L21.6762866,4.8568528 L23.5192866,4.8568528 L23.5192866,2.31085282 L21.9612866,2.31085282 L21.9612866,2.31085282 L21.9612866,2.31085282 Z M32.4492866,5.7308528 C32.3099526,5.768853 32.0851215,5.8131859 31.7747866,5.8638528 C31.4644517,5.9145197 31.2776202,5.9398528 31.2142866,5.9398528 C31.1509529,5.9398528 31.1097867,5.9050198 31.0907866,5.8353528 C31.0717865,5.7656858 31.0622866,5.6485203 31.0622866,5.4838528 L26.1792866,5.4838528 C26.9772906,5.5978534 27.4554525,5.6865192 27.6137866,5.7498528 C27.7721207,5.8131865 27.8512866,5.9018523 27.8512866,6.0158528 C27.8512866,6.1678536 27.7056214,6.294519 27.4142866,6.3958528 L27.3572866,7.0038528 L31.6702866,7.0038528 C31.8729543,6.6365177 32.1326183,6.2121886 32.4492866,5.7308528 L32.4492866,5.7308528 L32.4492866,5.7308528 L32.4492866,5.7308528 Z M23.1582866,10.9178528 L29.6942866,10.9178528 L29.6942866,9.6448528 L23.5002866,9.6448528 C23.4116195,9.7715201 23.2976206,9.8538526 23.1582866,9.8918528 L23.1582866,10.9178528 L23.1582866,10.9178528 L23.1582866,10.9178528 Z M29.6942866,11.5448528 L23.1582866,11.5448528 L23.1582866,12.8368528 L29.6942866,12.8368528 L29.6942866,11.5448528 L29.6942866,11.5448528 L29.6942866,11.5448528 Z M29.6942866,14.7938528 L29.6942866,13.4638528 L23.1582866,13.4638528 L23.1582866,14.7938528 L29.6942866,14.7938528 L29.6942866,14.7938528 L29.6942866,14.7938528 Z M29.6942866,16.8078528 L29.6942866,15.4208528 L23.1582866,15.4208528 L23.1582866,16.8078528 L29.6942866,16.8078528 L29.6942866,16.8078528 L29.6942866,16.8078528 Z M40.6092867,9.7018528 C40.6092867,9.9805209 40.5142876,10.3541838 40.3242867,10.8228528 C39.8302842,12.0515256 39.4914543,12.9920162 39.3077867,13.6443528 C39.1241191,14.2966894 38.9974537,14.8983501 38.9277867,15.4493528 C38.8581197,16.0003556 38.7504541,16.3771851 38.6047867,16.5798528 C38.4591193,16.7825205 38.2976209,16.8838528 38.1202867,16.8838528 C37.9429525,16.8838528 37.7656209,16.7888538 37.5882867,16.5988528 C37.4109525,16.4088519 37.2399542,15.8483575 37.0752867,14.9173528 C36.9106192,13.9863482 36.8282867,13.1471899 36.8282867,12.3998528 C36.8282867,11.6525158 36.9074526,10.7690246 37.0657867,9.7493528 C37.2241208,8.7296811 37.4932848,7.3521948 37.8732867,5.6168528 C37.9112869,5.4268519 37.9302867,5.2241872 37.9302867,5.0088528 C37.9302867,4.5275171 37.8542874,4.1823539 37.7022867,3.9733528 C37.5502859,3.7643518 37.4742867,3.5648538 37.4742867,3.3748528 C37.4742867,3.1088515 37.6072853,2.97585282 37.8732867,2.97585282 C37.999954,2.97585282 38.1329526,3.0138524 38.2722867,3.0898528 C38.4116207,3.1658532 38.6554516,3.3621846 39.0037867,3.6788528 C39.3521218,3.9955211 39.5801195,4.2456852 39.6877867,4.4293528 C39.7954539,4.6130204 39.8492867,4.8093518 39.8492867,5.0183528 C39.8492867,5.2273539 39.7416211,5.5915169 39.5262867,6.1108528 C39.1082846,7.1241912 38.7694546,8.2895129 38.5097867,9.6068528 C38.2501187,10.9241927 38.1202867,12.0071819 38.1202867,12.8558528 C38.1202867,12.9951869 38.1392865,13.0648528 38.1772867,13.0648528 C38.2152869,13.0648528 38.265953,12.9951869 38.3292867,12.8558528 C38.6839551,12.0325154 39.0797845,11.2535232 39.5167867,10.5188528 C39.9537889,9.7841825 40.2672857,9.4168528 40.4572867,9.4168528 C40.5586205,9.4168528 40.6092867,9.5118519 40.6092867,9.7018528 L40.6092867,9.7018528 L40.6092867,9.7018528 L40.6092867,9.7018528 Z M48.3992867,3.9068528 C48.6146211,3.9068528 48.9819507,4.1031842 49.5012867,4.4958528 C50.0206226,4.8885215 50.2802867,5.1735186 50.2802867,5.3508528 C50.2802867,5.528187 49.9509566,5.6611857 49.2922867,5.7498528 C48.3676154,5.8765201 47.0122956,6.5985129 45.2262867,7.9158528 C44.694284,8.2958547 44.3079545,8.4858528 44.0672867,8.4858528 C43.9279526,8.4858528 43.8582867,8.4003537 43.8582867,8.2293528 C43.8582867,8.058352 44.0134518,7.7606883 44.3237867,7.3363528 C44.6341216,6.9120174 45.055284,6.5351878 45.5872867,6.2058528 C45.6886205,6.1298524 45.7392867,6.072853 45.7392867,6.0348528 C45.7392867,5.9968526 45.6696207,5.9905194 45.5302867,6.0158528 C44.5929487,6.1678536 43.8804558,6.2438528 43.3927867,6.2438528 C42.9051176,6.2438528 42.5757875,6.1868534 42.4047867,6.0728528 C42.2337858,5.9588523 42.084954,5.7276879 41.9582867,5.3793528 C41.8316194,5.0310177 41.7682867,4.7555205 41.7682867,4.5528528 C41.7682867,4.261518 41.869619,4.1158528 42.0722867,4.1158528 C42.198954,4.1158528 42.3572857,4.1950187 42.5472867,4.3533528 C42.7372876,4.5116869 42.933619,4.6161859 43.1362867,4.6668528 C43.3389544,4.7175197 43.7094507,4.7428528 44.2477867,4.7428528 C44.7861227,4.7428528 45.460616,4.6763535 46.2712867,4.5433528 C47.0819574,4.4103522 47.6044522,4.2710202 47.8387867,4.1253528 C48.0731212,3.9796854 48.2599526,3.9068528 48.3992867,3.9068528 L48.3992867,3.9068528 L48.3992867,3.9068528 L48.3992867,3.9068528 Z M50.9072867,15.1548528 C50.9072867,15.2941869 50.8249542,15.4113523 50.6602867,15.5063528 C50.4956192,15.6013533 49.9414581,15.6931857 48.9977867,15.7818528 C48.0541153,15.8705199 47.2719564,15.9148528 46.6512867,15.9148528 C44.991945,15.9148528 43.725291,15.6045226 42.8512867,14.9838528 C41.9772823,14.3631831 41.5402867,13.565191 41.5402867,12.5898528 C41.5402867,12.0705169 41.6447856,11.5701886 41.8537867,11.0888528 C42.0627877,10.6075171 42.2749523,10.3668528 42.4902867,10.3668528 C42.7056211,10.3668528 42.8132867,10.5441844 42.8132867,10.8988528 C42.8132867,11.076187 42.7879536,11.2630185 42.7372867,11.4593528 C42.6866198,11.6556871 42.6612867,11.8298521 42.6612867,11.9818528 C42.6612867,12.678523 43.0064499,13.2390174 43.6967867,13.6633528 C44.3871235,14.0876883 45.2959477,14.2998528 46.4232867,14.2998528 C47.2846243,14.2998528 47.9242846,14.1731874 48.3422867,13.9198528 C48.6209547,13.7551853 48.8806188,13.6728528 49.1212867,13.6728528 C49.3619545,13.6728528 49.7197843,13.8628509 50.1947867,14.2428528 C50.6697891,14.6228547 50.9072867,14.9268517 50.9072867,15.1548528 L50.9072867,15.1548528 L50.9072867,15.1548528 L50.9072867,15.1548528 Z M67.7502868,9.4548528 C67.7502868,10.4555245 67.4716229,11.3833485 66.9142868,12.2383528 C66.3569507,13.0933571 65.3151277,13.8026833 63.7887868,14.3663528 C62.2624458,14.9300223 60.6379621,15.2118528 58.9152868,15.2118528 C58.5226181,15.2118528 58.2597874,15.192853 58.1267868,15.1548528 C57.9937861,15.1168526 57.8892872,15.0503533 57.8132868,14.9553528 C57.7372864,14.8603523 57.6992868,14.7558534 57.6992868,14.6418528 C57.6992868,14.350518 57.9209512,14.185853 58.3642868,14.1478528 C60.9862999,13.8818515 62.8672811,13.3783565 64.0072868,12.6373528 C65.1472925,11.8963491 65.7172868,10.8481929 65.7172868,9.4928528 C65.7172868,8.6188485 65.4227897,7.9190221 64.8337868,7.3933528 C64.2447838,6.8676835 63.4436252,6.6048528 62.4302868,6.6048528 C61.6449495,6.6048528 60.495461,6.8265173 58.9817868,7.2698528 C57.4681125,7.7131884 56.0906263,8.2451831 54.8492868,8.8658528 C54.4946183,9.043187 54.1969546,9.1318528 53.9562868,9.1318528 C53.5382847,9.1318528 53.1772883,8.8595222 52.8732868,8.3148528 C52.5692853,7.7701834 52.4172868,7.3363544 52.4172868,7.0133528 C52.4172868,6.6903512 52.5312856,6.5288528 52.7592868,6.5288528 C52.9619545,6.5288528 53.174119,6.649185 53.3957868,6.8898528 C53.6174545,7.1305207 53.8106193,7.2508528 53.9752868,7.2508528 C54.1399543,7.2508528 54.3616187,7.1938534 54.6402868,7.0798528 C58.0476371,5.7751796 60.7582767,5.1228528 62.7722868,5.1228528 C64.2669609,5.1228528 65.4702822,5.5345154 66.3822868,6.3578528 C67.2942913,7.1811903 67.7502868,8.2135133 67.7502868,9.4548528 L67.7502868,9.4548528 L67.7502868,9.4548528 L67.7502868,9.4548528 Z M76.0242869,10.0248528 C76.1636209,10.0248528 76.2332869,10.0881855 76.2332869,10.2148528 C76.2332869,10.3415201 76.1762874,10.5631846 76.0622869,10.8798528 L75.6442869,12.0768528 C75.2009513,13.2928589 74.9317873,14.0623512 74.8367869,14.3853528 C74.7417864,14.7083544 74.6942869,14.9268523 74.6942869,15.0408528 C74.6942869,15.1548534 74.7069534,15.2530191 74.7322869,15.3353528 C74.7576203,15.4176866 74.7702869,15.5411853 74.7702869,15.7058528 C74.7702869,15.8705203 74.7132874,16.0161855 74.5992869,16.1428528 C74.4852863,16.2695201 74.3396211,16.3328528 74.1622869,16.3328528 C73.8329519,16.3328528 73.3864564,16.149188 72.8227869,15.7818528 C72.2591174,15.4145177 71.7492891,14.6291922 71.2932869,13.4258528 C70.8372846,12.2225135 70.6092869,10.7721946 70.6092869,9.0748528 C70.6092869,8.1375148 70.6567864,7.3996888 70.7517869,6.8613528 C70.8467873,6.3230168 70.8942869,5.9841869 70.8942869,5.8448528 C70.8942869,5.5028511 70.7929545,5.2115207 70.5902869,4.9708528 C70.3876192,4.730185 70.2862869,4.5275203 70.2862869,4.3628528 C70.2862869,4.1348517 70.4319521,4.0208528 70.7232869,4.0208528 C70.9132878,4.0208528 71.2521178,4.1221851 71.7397869,4.3248528 C72.227456,4.5275205 72.5441195,4.7016854 72.6897869,4.8473528 C72.8354543,4.9930202 72.9082869,5.1830183 72.9082869,5.4173528 C72.9082869,5.6516873 72.8069545,5.9905173 72.6042869,6.4338528 C72.3129521,7.0165224 72.1672869,8.0045125 72.1672869,9.3978528 C72.1672869,10.7151927 72.3034522,11.8013485 72.5757869,12.6563528 C72.8481216,13.5113571 73.0919525,13.9388528 73.3072869,13.9388528 C73.3832872,13.9388528 73.471953,13.8628536 73.5732869,13.7108528 L74.5612869,12.1718528 C74.8779551,11.6651836 75.1534524,11.2123548 75.3877869,10.8133528 C75.6221214,10.4143508 75.7677866,10.1831865 75.8247869,10.1198528 C75.8817872,10.0565192 75.9482865,10.0248528 76.0242869,10.0248528 L76.0242869,10.0248528 L76.0242869,10.0248528 L76.0242869,10.0248528 Z M84.4982869,11.3738528 C84.4982869,12.3618578 84.3747881,13.001518 84.1277869,13.2928528 C83.8807856,13.5841876 83.573622,13.7298528 83.2062869,13.7298528 C83.0162859,13.7298528 82.8516209,13.6475203 82.7122869,13.4828528 C82.5729528,13.3181853 82.5032869,13.1503537 82.5032869,12.9793528 C82.5032869,12.808352 82.5096201,12.6848532 82.5222869,12.6088528 C82.5856205,12.2035175 82.6172869,11.7538553 82.6172869,11.2598528 C82.6172869,10.0058466 82.3829559,8.8405249 81.9142869,7.7638528 C81.4456179,6.6871808 80.7552914,6.0475205 79.8432869,5.8448528 C79.3366177,5.7308523 79.0832869,5.5535207 79.0832869,5.3128528 C79.0832869,5.211519 79.1402863,5.10702 79.2542869,4.9993528 C79.3682874,4.8916856 79.5329525,4.8378528 79.7482869,4.8378528 C80.3816234,4.8378528 81.0782831,5.0310176 81.8382869,5.4173528 C82.5982907,5.8036881 83.2316177,6.576347 83.7382869,7.7353528 C84.2449561,8.8943586 84.4982869,10.1071798 84.4982869,11.3738528 L84.4982869,11.3738528 L84.4982869,11.3738528 L84.4982869,11.3738528 Z M99.422287,2.74785282 C99.6756216,2.74785282 100.077784,2.98851708 100.628787,3.4698528 C101.17979,3.9511886 101.455287,4.3311848 101.455287,4.6098528 C101.455287,4.7491869 101.379288,4.869519 101.227287,4.9708528 C101.075286,5.0721867 100.777623,5.1165196 100.334287,5.1038528 L99.859287,5.0848528 C98.7572815,5.0848528 97.8231241,5.2970174 97.056787,5.7213528 C96.2904498,6.1456883 95.5241241,6.677683 94.757787,7.3173528 C93.9914498,7.9570227 93.3929558,8.6410158 92.962287,9.3693528 C92.5316181,10.0976898 92.316287,10.8101827 92.316287,11.5068528 C92.316287,12.342857 92.5791177,13.0300168 93.104787,13.5683528 C93.6304563,14.1066888 94.2606166,14.3758528 94.995287,14.3758528 C95.2106214,14.3758528 95.4607855,14.3378532 95.745787,14.2618528 C96.0307884,14.1858524 96.2619527,14.1478528 96.439287,14.1478528 C96.7812887,14.1478528 97.2182843,14.3600174 97.750287,14.7843528 C98.2822896,15.2086883 98.548287,15.5538515 98.548287,15.8198528 C98.548287,16.2251882 97.8072944,16.4278528 96.325287,16.4278528 C95.1599478,16.4278528 94.1402913,16.2188549 93.266287,15.8008528 C92.3922826,15.3828507 91.7399558,14.7938566 91.309287,14.0338528 C90.8786181,13.273849 90.663287,12.4695237 90.663287,11.6208528 C90.663287,10.4175135 91.0876161,9.2426919 91.936287,8.0963528 C92.7849579,6.9500138 93.9629461,5.9778568 95.470287,5.1798528 C95.5842875,5.1165192 95.641287,5.065853 95.641287,5.0278528 C95.641287,4.9898526 95.6096206,4.9708528 95.546287,4.9708528 C95.356286,4.9708528 94.4126288,5.1228513 92.715287,5.4268528 C91.0179451,5.7308543 89.8209571,6.0095182 89.124287,6.2628528 C88.7569518,6.3895201 88.4846212,6.4528528 88.307287,6.4528528 C87.9399518,6.4528528 87.5757888,6.1235228 87.214787,5.4648528 C86.8537852,4.8061829 86.673287,4.3786871 86.673287,4.1823528 C86.673287,3.9860185 86.7492862,3.8878528 86.901287,3.8878528 C87.0532877,3.8878528 87.2749522,3.9765186 87.566287,4.1538528 C87.8576218,4.331187 88.0919527,4.4420193 88.269287,4.4863528 C88.4466212,4.5306864 88.6682856,4.5528528 88.934287,4.5528528 C89.2002883,4.5528528 89.9286143,4.4578538 91.119287,4.2678528 L93.247287,3.9638528 C94.3746259,3.8118521 95.337283,3.6883533 96.135287,3.5933528 C96.933291,3.4983523 97.5001186,3.4160198 97.835787,3.3463528 C98.1714553,3.2766858 98.4817855,3.1595203 98.766787,2.99485282 C99.0517884,2.83018533 99.2702862,2.74785282 99.422287,2.74785282 L99.422287,2.74785282 L99.422287,2.74785282 L99.422287,2.74785282 Z M103.573287,11.6968528 C104.586625,12.0261878 105.406784,12.336518 106.033787,12.6278528 C106.66079,12.9191876 107.170618,13.2263512 107.563287,13.5493528 C107.955956,13.8723544 108.20612,14.1573516 108.313787,14.4043528 C108.421454,14.6513541 108.475287,14.9616843 108.475287,15.3353528 C108.475287,15.7090214 108.370788,16.0795177 108.161787,16.4468528 C107.952786,16.814188 107.696289,16.9978528 107.392287,16.9978528 C107.088286,16.9978528 106.847621,16.9060204 106.670287,16.7223528 C106.492953,16.5386852 106.274455,16.1460225 106.014787,15.5443528 C105.755119,14.9426831 105.400456,14.3695222 104.950787,13.8248528 C104.501118,13.2801834 103.940624,12.7291889 103.269287,12.1718528 L103.573287,11.6968528 L103.573287,11.6968528 L103.573287,11.6968528 Z M122.976287,2.13985282 L130.595287,2.13985282 C131.025956,1.31651537 131.329953,0.90485282 131.507287,0.90485282 C131.633954,0.90485282 132.08045,1.19934988 132.846787,1.78835282 C133.613124,2.37735577 133.996287,2.76685187 133.996287,2.95685282 C133.996287,3.1215203 133.74929,3.2861853 133.255287,3.4508528 L133.255287,15.2498528 C133.255287,16.0605235 133.163455,16.611518 132.979787,16.9028528 C132.79612,17.1941876 132.42879,17.4380185 131.877787,17.6343528 C131.326784,17.8306871 130.949955,17.9288528 130.747287,17.9288528 C130.468619,17.9288528 130.316621,17.7641878 130.291287,17.4348528 C130.253287,16.9028502 130.094955,16.522854 129.816287,16.2948528 C129.537619,16.0668517 129.106957,15.8958534 128.524287,15.7818528 C128.296286,15.7311859 128.182287,15.6805197 128.182287,15.6298528 C128.182287,15.5791859 128.432451,15.5506862 128.932787,15.5443528 C129.433123,15.5380195 129.885952,15.4968532 130.291287,15.4208528 C130.696623,15.3448524 130.899287,15.1801874 130.899287,14.9268528 L130.899287,10.8608528 L127.859287,10.8608528 L127.859287,13.9578528 L127.878287,15.9148528 C127.878287,16.0795203 127.837121,16.212519 127.754787,16.3138528 C127.672453,16.4151867 127.469789,16.516519 127.146787,16.6178528 C126.823786,16.7191867 126.462789,16.7698528 126.063787,16.7698528 C125.664785,16.7698528 125.465287,16.5988545 125.465287,16.2568528 L125.503287,15.4588528 C125.515954,14.9268502 125.522287,14.4265218 125.522287,13.9578528 L125.522287,10.8608528 L122.596287,10.8608528 C122.46962,12.2415264 122.16879,13.3751817 121.693787,14.2618528 C121.218785,15.1485239 120.458792,16.0225152 119.413787,16.8838528 C118.368782,17.7451905 117.763955,18.1758528 117.599287,18.1758528 C117.561287,18.1758528 117.542287,18.1536864 117.542287,18.1093528 C117.542287,18.0650193 117.60562,17.9795201 117.732287,17.8528528 C118.580958,17.0041819 119.204785,16.0795245 119.603787,15.0788528 C120.002789,14.0781812 120.262453,12.9571924 120.382787,11.7158528 C120.503121,10.4745133 120.563287,8.9735283 120.563287,7.2128528 C120.563287,5.4521774 120.537954,3.4571973 120.487287,1.22785282 C121.424625,1.49385415 122.254284,1.79785111 122.976287,2.13985282 L122.976287,2.13985282 L122.976287,2.13985282 L122.976287,2.13985282 Z M122.805287,6.1298528 L125.522287,6.1298528 L125.522287,2.76685282 L122.995287,2.76685282 C122.86862,2.83018647 122.805287,3.1151836 122.805287,3.6218528 L122.805287,6.1298528 L122.805287,6.1298528 L122.805287,6.1298528 Z M127.859287,6.1298528 L130.899287,6.1298528 L130.899287,2.76685282 L128.201287,2.76685282 C128.226621,2.89352012 128.112622,3.0455186 127.859287,3.2228528 L127.859287,6.1298528 L127.859287,6.1298528 L127.859287,6.1298528 Z M125.522287,6.7568528 L122.786287,6.7568528 C122.77362,8.2261935 122.729288,9.3851819 122.653287,10.2338528 L125.522287,10.2338528 L125.522287,6.7568528 L125.522287,6.7568528 L125.522287,6.7568528 Z M130.899287,6.7568528 L127.859287,6.7568528 L127.859287,10.2338528 L130.899287,10.2338528 L130.899287,6.7568528 L130.899287,6.7568528 L130.899287,6.7568528 Z M141.472287,3.0138528 C141.358287,2.8365186 141.301287,2.58952107 141.301287,2.27285282 C141.275954,1.67751651 140.971957,1.18985472 140.389287,0.80985282 C140.249953,0.72118571 140.180287,0.65468638 140.180287,0.61035282 C140.180287,0.56601927 140.357619,0.54385282 140.712287,0.54385282 C142.928965,0.54385282 144.037287,1.05051442 144.037287,2.06385282 C144.037287,2.45652145 143.866289,2.77318495 143.524287,3.0138528 L146.868287,3.0138528 C147.260956,2.38051632 147.517453,1.98785358 147.637787,1.83585282 C147.758121,1.68385206 147.86262,1.60785282 147.951287,1.60785282 C148.103288,1.60785282 148.511784,1.8770168 149.176787,2.41535282 C149.841791,2.95368885 150.174287,3.2925188 150.174287,3.4318528 C150.174287,3.5711869 150.047622,3.6408528 149.794287,3.6408528 L145.690287,3.6408528 C146.082956,3.7675201 146.431286,3.9100187 146.735287,4.0683528 C147.039289,4.2266869 147.191287,4.3691855 147.191287,4.4958528 C147.191287,4.6351869 147.089955,4.7048528 146.887287,4.7048528 C146.68462,4.7048528 146.469288,4.7935186 146.241287,4.9708528 C146.013286,5.148187 145.531958,5.5915159 144.797287,6.3008528 L148.521287,6.3008528 C149.002623,5.540849 149.29712,5.1038534 149.404787,4.9898528 C149.512454,4.8758523 149.626453,4.8188528 149.746787,4.8188528 C149.867121,4.8188528 150.060286,4.939185 150.326287,5.1798528 L151.333287,6.0348528 C151.725956,6.3641878 151.922287,6.5953522 151.922287,6.7283528 C151.922287,6.8613535 151.795622,6.9278528 151.542287,6.9278528 L134.993287,6.9278528 C134.739953,6.9278528 134.511955,6.9975188 134.309287,7.1368528 L133.815287,6.2438528 C134.119289,6.281853 134.435952,6.3008528 134.765287,6.3008528 L139.477287,6.3008528 C139.27462,6.199519 139.160621,5.9493548 139.135287,5.5503528 C139.109954,5.1513508 139.011788,4.8093542 138.840787,4.5243528 C138.669786,4.2393514 138.413289,3.9448543 138.071287,3.6408528 L135.848287,3.6408528 C135.594953,3.6408528 135.366955,3.7105188 135.164287,3.8498528 L134.670287,2.95685282 C134.974289,2.99485301 135.290952,3.0138528 135.620287,3.0138528 L141.472287,3.0138528 L141.472287,3.0138528 L141.472287,3.0138528 Z M144.284287,3.6408528 L139.553287,3.6408528 C140.16129,3.818187 140.626786,4.0493514 140.949787,4.3343528 C141.272789,4.6193542 141.434287,4.9201846 141.434287,5.2368528 C141.434287,5.7308553 141.231623,6.0855184 140.826287,6.3008528 L143.657287,6.3008528 C143.948622,5.4395152 144.15762,4.5528574 144.284287,3.6408528 L144.284287,3.6408528 L144.284287,3.6408528 L144.284287,3.6408528 Z M138.983287,12.1148528 C138.995954,12.1781865 139.002287,12.2541857 139.002287,12.3428528 C139.002287,12.4315199 138.945288,12.5075192 138.831287,12.5708528 C138.717287,12.6341865 138.546288,12.6975192 138.318287,12.7608528 C139.407626,12.8621867 140.107452,12.9603523 140.417787,13.0553528 C140.728122,13.1503533 140.883287,13.248519 140.883287,13.3498528 C140.883287,13.4511867 140.756622,13.552519 140.503287,13.6538528 L140.503287,15.1928528 C140.503287,15.4841876 140.522287,15.6931855 140.560287,15.8198528 C140.598287,15.9465201 140.664787,16.0320193 140.759787,16.0763528 C140.854788,16.1206864 141.127118,16.158686 141.576787,16.1903528 C142.026456,16.2220196 142.539451,16.2378528 143.115787,16.2378528 C143.692123,16.2378528 144.148119,16.1871867 144.483787,16.0858528 C144.819456,15.984519 145.063286,15.7913542 145.215287,15.5063528 C145.367288,15.2213514 145.550953,14.6861901 145.766287,13.9008528 C145.842288,13.6221848 145.911954,13.4828528 145.975287,13.4828528 C146.038621,13.4828528 146.092454,13.7203504 146.136787,14.1953528 C146.181121,14.6703552 146.272953,15.0471848 146.412287,15.3258528 C146.551621,15.6045209 146.766952,15.8578517 147.058287,16.0858528 C147.349622,16.313854 147.495287,16.5418517 147.495287,16.7698528 C147.495287,17.137188 147.156457,17.4443516 146.478787,17.6913528 C145.801117,17.9383541 144.607296,18.0618528 142.897287,18.0618528 C142.251284,18.0618528 141.488125,18.0365197 140.607787,17.9858528 C139.72745,17.9351859 139.128955,17.7831874 138.812287,17.5298528 C138.495619,17.2765182 138.337287,16.7381903 138.337287,15.9148528 L138.337287,14.2808528 C138.337287,13.7741836 138.318287,13.2738553 138.280287,12.7798528 C137.824285,12.8685199 137.361956,12.9128528 136.893287,12.9128528 C136.753953,12.9128528 136.684287,12.8621867 136.684287,12.7608528 L136.722287,11.9248528 C136.747621,11.5448509 136.760287,11.1965211 136.760287,10.8798528 L136.760287,8.8278528 C136.760287,8.2705167 136.741287,7.7195222 136.703287,7.1748528 C137.754626,7.3648538 138.558951,7.5738517 139.116287,7.8018528 L145.728287,7.8018528 C145.930955,7.4978513 146.06712,7.3078532 146.136787,7.2318528 C146.206454,7.1558524 146.279287,7.1178528 146.355287,7.1178528 C146.469288,7.1178528 146.817618,7.238185 147.400287,7.4788528 C147.982957,7.7195207 148.372453,7.9031855 148.568787,8.0298528 C148.765122,8.1565201 148.863287,8.2895188 148.863287,8.4288528 C148.863287,8.5681869 148.679622,8.688519 148.312287,8.7898528 L148.312287,10.3858528 C148.312287,10.9431889 148.318621,11.3358517 148.331287,11.5638528 L148.350287,12.2098528 C148.350287,12.3111867 148.290121,12.3966858 148.169787,12.4663528 C148.049453,12.5360198 147.720123,12.6405188 147.181787,12.7798528 C146.643451,12.9191869 146.272955,12.9888528 146.070287,12.9888528 C145.94362,12.9888528 145.880287,12.8431876 145.880287,12.5518528 L145.880287,12.1148528 L138.983287,12.1148528 L138.983287,12.1148528 L138.983287,12.1148528 Z M138.983287,9.6448528 L145.880287,9.6448528 L145.880287,8.4288528 L139.287287,8.4288528 C139.23662,8.5301867 139.135288,8.6061859 138.983287,8.6568528 L138.983287,9.6448528 L138.983287,9.6448528 L138.983287,9.6448528 Z M145.880287,10.2718528 L138.983287,10.2718528 L138.983287,11.4878528 L145.880287,11.4878528 L145.880287,10.2718528 L145.880287,10.2718528 L145.880287,10.2718528 Z M141.187287,12.4188528 C142.099292,12.4188528 142.865617,12.5581848 143.486287,12.8368528 C144.106957,13.1155209 144.417287,13.5841829 144.417287,14.2428528 C144.417287,14.5848545 144.293788,14.876185 144.046787,15.1168528 C143.799786,15.3575207 143.486289,15.4778528 143.106287,15.4778528 C142.548951,15.4778528 142.232288,15.2118555 142.156287,14.6798528 C142.080287,14.1478502 141.978955,13.7393542 141.852287,13.4543528 C141.72562,13.1693514 141.538788,12.9476869 141.291787,12.7893528 C141.044786,12.6310187 140.921287,12.5296864 140.921287,12.4853528 C140.921287,12.4410193 141.009953,12.4188528 141.187287,12.4188528 L141.187287,12.4188528 L141.187287,12.4188528 L141.187287,12.4188528 Z M136.057287,13.1598528 C136.158621,13.1598528 136.380286,13.4258502 136.722287,13.9578528 C137.064289,14.4898555 137.235287,15.0598498 137.235287,15.6678528 C137.235287,16.2758559 137.067456,16.760351 136.731787,17.1213528 C136.396119,17.4823546 135.993956,17.6628528 135.525287,17.6628528 C135.183286,17.6628528 134.876122,17.5678538 134.603787,17.3778528 C134.331453,17.1878519 134.195287,16.9250212 134.195287,16.5893528 C134.195287,16.2536845 134.363119,15.9655207 134.698787,15.7248528 C135.034456,15.484185 135.30362,15.2435207 135.506287,15.0028528 C135.708955,14.762185 135.838787,14.5341872 135.895787,14.3188528 C135.952788,14.1035184 135.981287,13.7931882 135.981287,13.3878528 C135.981287,13.2358521 136.00662,13.1598528 136.057287,13.1598528 L136.057287,13.1598528 L136.057287,13.1598528 L136.057287,13.1598528 Z M147.191287,13.3498528 C147.343288,13.3498528 147.720118,13.4131855 148.321787,13.5398528 C148.923457,13.6665201 149.442785,13.8533516 149.879787,14.1003528 C150.316789,14.3473541 150.646119,14.6355178 150.867787,14.9648528 C151.089455,15.2941878 151.200287,15.6520176 151.200287,16.0383528 C151.200287,16.4246881 151.048289,16.7540181 150.744287,17.0263528 C150.440286,17.2986875 150.117289,17.4348528 149.775287,17.4348528 C149.433286,17.4348528 149.198955,17.3746868 149.072287,17.2543528 C148.94562,17.1340189 148.850621,16.9345209 148.787287,16.6558528 C148.635286,15.9338492 148.470621,15.3923546 148.293287,15.0313528 C148.115953,14.670351 147.773956,14.2111889 147.267287,13.6538528 C147.14062,13.5145188 147.077287,13.4290196 147.077287,13.3973528 C147.077287,13.365686 147.115287,13.3498528 147.191287,13.3498528 L147.191287,13.3498528 L147.191287,13.3498528 L147.191287,13.3498528 Z M152.273287,11.6968528 C153.286626,12.0261878 154.106784,12.336518 154.733787,12.6278528 C155.36079,12.9191876 155.870619,13.2263512 156.263287,13.5493528 C156.655956,13.8723544 156.90612,14.1573516 157.013787,14.4043528 C157.121455,14.6513541 157.175287,14.9616843 157.175287,15.3353528 C157.175287,15.7090214 157.070788,16.0795177 156.861787,16.4468528 C156.652786,16.814188 156.396289,16.9978528 156.092287,16.9978528 C155.788286,16.9978528 155.547622,16.9060204 155.370287,16.7223528 C155.192953,16.5386852 154.974455,16.1460225 154.714787,15.5443528 C154.455119,14.9426831 154.100456,14.3695222 153.650787,13.8248528 C153.201118,13.2801834 152.640624,12.7291889 151.969287,12.1718528 L152.273287,11.6968528 L152.273287,11.6968528 L152.273287,11.6968528 Z M166.918287,7.3458528 C168.273628,7.6371876 169.40095,7.9728509 170.300287,8.3528528 C171.199625,8.7328547 171.801286,9.0716847 172.105287,9.3693528 C172.409289,9.667021 172.561287,10.0406839 172.561287,10.4903528 C172.561287,10.9400217 172.497955,11.3010181 172.371287,11.5733528 C172.24462,11.8456875 172.038789,11.9818528 171.753787,11.9818528 C171.468786,11.9818528 171.066623,11.6620227 170.547287,11.0223528 C170.027952,10.382683 169.486457,9.8475216 168.922787,9.4168528 C168.359118,8.986184 167.684625,8.5935213 166.899287,8.2388528 C166.886621,9.9741948 166.892954,11.5290126 166.918287,12.9033528 C166.943621,14.277693 166.956287,15.0345188 166.956287,15.1738528 C166.956287,15.8578562 166.870788,16.48485 166.699787,17.0548528 C166.528787,17.6248557 166.272289,17.9098528 165.930287,17.9098528 C165.588286,17.9098528 165.277956,17.6185224 164.999287,17.0358528 C164.720619,16.4531832 164.581287,16.0415207 164.581287,15.8008528 C164.581287,15.560185 164.638287,15.256188 164.752287,14.8888528 C164.954955,14.2428496 165.056287,13.2485262 165.056287,11.9058528 L165.113287,4.0778528 C165.113287,3.6851842 165.087954,3.3716873 165.037287,3.1373528 C164.986621,2.90301832 164.840955,2.62752107 164.600287,2.31085282 C164.35962,1.99418457 164.239287,1.72185396 164.239287,1.49385282 C164.239287,1.26585168 164.410286,1.15185282 164.752287,1.15185282 C165.094289,1.15185282 165.623117,1.27851822 166.338787,1.53185282 C167.054458,1.78518742 167.412287,2.09551765 167.412287,2.46285282 C167.412287,2.64018704 167.342621,2.89035121 167.203287,3.2133528 C167.063953,3.5363544 166.981621,4.1158486 166.956287,4.9518528 C166.930954,5.787857 166.918287,6.585849 166.918287,7.3458528 L166.918287,7.3458528 L166.918287,7.3458528 L166.918287,7.3458528 Z M170.680287,1.70285282 C171.427625,1.70285282 172.24145,1.87068448 173.121787,2.20635282 C174.002125,2.54202117 174.442287,3.0518494 174.442287,3.7358528 C174.442287,4.0145209 174.350455,4.2773516 174.166787,4.5243528 C173.98312,4.7713541 173.786788,4.8948528 173.577787,4.8948528 C173.368786,4.8948528 173.118622,4.6541886 172.827287,4.1728528 C172.510619,3.6535169 171.988124,3.1816883 171.259787,2.75735282 C170.53145,2.33301737 170.167287,2.05118685 170.167287,1.91185282 C170.167287,1.77251879 170.338286,1.70285282 170.680287,1.70285282 L170.680287,1.70285282 L170.680287,1.70285282 L170.680287,1.70285282 Z M168.970287,3.0518528 C169.286956,3.0518528 169.746118,3.1468519 170.347787,3.3368528 C170.949457,3.5268538 171.484618,3.8086843 171.953287,4.1823528 C172.421956,4.5560214 172.656287,4.9106845 172.656287,5.2463528 C172.656287,5.5820212 172.564455,5.8511851 172.380787,6.0538528 C172.19712,6.2565205 171.994455,6.3578528 171.772787,6.3578528 C171.55112,6.3578528 171.307289,6.1678547 171.041287,5.7878528 C170.547285,5.1165161 170.018457,4.5686883 169.454787,4.1443528 C168.891118,3.7200174 168.609287,3.4318536 168.609287,3.2798528 C168.609287,3.1278521 168.72962,3.0518528 168.970287,3.0518528 L168.970287,3.0518528 L168.970287,3.0518528 L168.970287,3.0518528 Z" id="位置について、用意、ド"></path>
                                                </g>
                                                <path d="M28.2813276,74.4545454 L46.1847148,74.4545454 L48.6244549,65.5151514 L30.6851892,65.550909 L28.2813276,74.4545454 L28.2813276,74.4545454 Z M32.5508729,86.9696966 L24.9087457,86.9696966 L22.0384632,97.6969697 L4.09919758,97.6969697 L15.1497852,56.5757574 C15.795602,54.1919073 17.9243736,53 21.5361638,53 L64.5545229,53 C67.5922536,53 69.1110962,53.8581732 69.1110962,55.5745455 C69.1110962,55.8844459 69.0632586,56.2181803 68.9675822,56.5757574 L61.7201186,83.3939394 C61.074302,85.7777895 58.969449,86.9696966 55.4054973,86.9696966 L52.2840651,86.9696966 L72.0172573,112 L52.2840651,112 L32.5508729,86.9696966 L32.5508729,86.9696966 Z M116.995655,97.6969697 L73.9414177,97.6969697 C70.8797674,97.6969697 69.3489658,96.8268772 69.3489658,95.0866664 C69.3489658,94.8006043 69.3968034,94.4787897 69.4924798,94.121212 L79.5743473,56.5757574 C80.2201639,54.1919073 82.3489354,53 85.9607254,53 L128.979085,53 C132.016815,53 133.535658,53.8581732 133.535658,55.5745455 C133.535658,55.8844459 133.487821,56.2181803 133.392144,56.5757574 L123.310277,94.121212 C122.66446,96.5050621 120.559607,97.6969697 116.995655,97.6969697 L116.995655,97.6969697 L116.995655,97.6969697 Z M89.8356068,85.2175756 L107.774873,85.181818 L113.049017,65.5151514 L95.1097511,65.550909 L89.8356068,85.2175756 L89.8356068,85.2175756 Z M153.757869,86.9696966 L171.697135,86.9696966 L173.132276,81.6060603 L155.228889,81.6060603 L153.757869,86.9696966 L153.757869,86.9696966 Z M186.22794,53 C189.265671,53 190.784514,53.8581732 190.784514,55.5745455 C190.784514,55.8844459 190.736676,56.2181803 190.641,56.5757574 L186.801997,70.8787877 L188.595923,70.8787877 C191.609735,70.8787877 193.116618,71.736961 193.116618,73.4533335 C193.116618,73.7632339 193.068781,74.0969677 192.973104,74.4545454 L187.734839,94.121212 C187.089021,96.5050621 184.972209,97.6969697 181.384339,97.6969697 L132.948321,97.6969697 L144.967629,53 L186.22794,53 L186.22794,53 Z M159.534313,65.5151514 L158.099172,70.8787877 L168.862731,70.8787877 L170.297872,65.5151514 L159.534313,65.5151514 L159.534313,65.5151514 Z M245.844779,97.6969697 L202.790542,97.6969697 C199.728891,97.6969697 198.198089,96.8268772 198.198089,95.0866664 C198.198089,94.8006043 198.245927,94.4787897 198.341604,94.121212 L208.423471,56.5757574 C209.069288,54.1919073 211.198059,53 214.809849,53 L257.828208,53 C260.865939,53 262.384782,53.8581732 262.384782,55.5745455 C262.384782,55.8844459 262.336944,56.2181803 262.241268,56.5757574 L252.1594,94.121212 C251.513584,96.5050621 249.408731,97.6969697 245.844779,97.6969697 L245.844779,97.6969697 L245.844779,97.6969697 Z M218.684731,85.2175756 L236.623996,85.181818 L241.898141,65.5151514 L223.958875,65.550909 L218.684731,85.2175756 L218.684731,85.2175756 Z" id="ROBO" stroke="#FFFFFF" stroke-width="3"></path>
                                            </g>
                                        </g>
                                    </g>
                                </g>
                            </g>
                        </g>
                    </g>
                </g>
            </g>
        </g>
    </g>
</svg>