<?xml version="1.0" encoding="UTF-8" standalone="no"?>
<svg width="640px" height="668px" viewBox="0 0 640 668" version="1.1" xmlns="http://www.w3.org/2000/svg" xmlns:xlink="http://www.w3.org/1999/xlink" xmlns:sketch="http://www.bohemiancoding.com/sketch/ns">
    <!-- Generator: Sketch 3.4.1 (15681) - http://www.bohemiancoding.com/sketch -->
    <title>600x638_square_blue</title>
    <desc>Created with Sketch.</desc>
    <defs></defs>
    <g id="Page-1" stroke="none" stroke-width="1" fill="none" fill-rule="evenodd" sketch:type="MSPage">
        <g id="600x638_square_blue" sketch:type="MSLayerGroup">
            <g id="Page-1" sketch:type="MSShapeGroup">
                <g id="Artboard-2">
                    <g id="Rectangle-1-+-title-+-Group-+-Fill-13-+-Fill-14-+-Fill-15-Copy-2">
                        <path d="M0,85.5816993 L640,85.5816993 L570.560579,668 L69.4394213,668 L0,85.5816993 L0,85.5816993 Z" id="Rectangle-6" fill="#3FA9F5"></path>
                        <g id="title-copy-2" transform="translate(79.224122, 232.211339)">
                            <path d="M238.164917,35.9448765 L238.164917,44.0901833 L210.385552,44.0901833 C213.354857,41.5399531 215.202398,38.8248779 215.928228,35.9448765 L238.164917,35.9448765 L238.164917,35.9448765 Z" id="-" fill="#FFFFFF"></path>
                            <path d="M282.480038,66.0959046 L282.480038,42.1842502 L250.945631,42.1203153 C252.907214,40.7563638 254.602251,38.8809587 256.030794,36.4940437 C257.459338,34.1071286 258.173599,31.8054951 258.173599,29.5890739 L258.173599,17.1857024 L250.945631,17.1857024 L250.945631,4.52659126 C253.205715,4.52659126 254.740843,4.37741131 255.551062,4.07904693 C257.000927,3.61018861 257.939061,2.5233061 258.365492,0.818366781 L268.471853,0.946236591 C270.049648,3.16265771 271.861952,4.48396586 273.90882,4.91020069 L294.633258,4.78233088 L294.633258,17.1857024 L272.309712,17.0578326 C269.79377,18.7627719 268.535818,21.746371 268.535818,26.0087193 C268.535818,27.1169298 268.642424,28.3316809 268.855639,29.6530088 L294.633258,29.5890739 L294.633258,78.563211 L250.945631,78.563211 L250.945631,66.0959046 L282.480038,66.0959046 L282.480038,66.0959046 Z M254.143847,59.1909349 C254.143847,57.5712425 255.145945,56.7614085 257.15017,56.7614085 C259.154395,56.7614085 260.156493,57.7630453 260.156493,59.766349 C260.156493,61.4286648 259.261001,62.2598103 257.469991,62.2598103 C255.252551,62.2598103 254.143847,61.236862 254.143847,59.1909349 L254.143847,59.1909349 L254.143847,59.1909349 Z M335.762312,83.294394 L335.762312,78.563211 L304.227905,78.563211 L304.227905,66.4155791 L311.327944,66.4155791 L311.455873,17.1857024 L304.227905,17.1857024 L304.227905,6.31676859 L323.737021,6.31676859 L323.737021,66.0959046 L335.762312,66.1598395 L335.762312,4.78233088 L347.915531,4.78233088 L347.915531,83.294394 L335.762312,83.294394 L335.762312,83.294394 Z M369.599434,17.1857024 L369.599434,78.563211 L357.510179,78.563211 L357.510179,5.1020054 L375.803972,5.1020054 C376.145117,5.18725237 376.443614,5.22987521 376.699473,5.22987521 C377.637621,5.22987521 378.49047,4.8249582 379.258045,4.01511202 C379.855049,3.41838326 380.153546,2.56592639 380.153546,1.45771583 L380.153546,0.818366781 L390.195943,0.946236591 C390.323872,2.69379939 390.792939,3.80199333 391.603158,4.27085164 C392.242804,4.69708647 393.351508,4.91020069 394.929302,4.91020069 L395.63291,4.91020069 L416.421312,4.78233088 L416.293383,78.563211 L404.459985,78.563211 L404.332056,17.1857024 L394.097766,17.0578326 C391.581824,18.7627719 390.323872,21.746371 390.323872,26.0087193 C390.323872,27.1169298 390.430478,28.3316809 390.643693,29.6530088 L390.643693,47.682652 C390.814266,55.8237372 391.07012,60.9171671 391.411265,62.9630942 C392.136198,69.6549811 393.863217,74.854968 396.592374,78.563211 L380.025617,78.563211 L379.897689,17.1857024 L369.599434,17.1857024 L369.599434,17.1857024 Z M469.703585,4.78233088 L469.639621,78.563211 L426.015959,78.563211 L426.015959,4.78233088 L469.703585,4.78233088 L469.703585,4.78233088 Z M457.230544,66.0959046 L457.230544,17.1857024 L438.297107,17.1857024 L438.297107,66.0959046 L457.230544,66.0959046 L457.230544,66.0959046 Z M445.01336,25.8808495 C445.01336,24.2611571 445.972815,23.4513231 447.891754,23.4513231 C449.938623,23.4513231 450.962041,24.4742713 450.962041,26.5201985 C450.962041,28.0972674 450.045229,28.88579 448.211576,28.88579 C446.079421,28.88579 445.01336,27.8841532 445.01336,25.8808495 L445.01336,25.8808495 L445.01336,25.8808495 Z" id="sumo" fill="#FFFFFF"></path>
                            <path d="M15.8520339,17.1857024 L15.8520339,78.563211 L3.76277857,78.563211 L3.76277857,5.1020054 L22.0565724,5.1020054 C22.3977171,5.18725237 22.6962142,5.22987521 22.9520728,5.22987521 C23.8902207,5.22987521 24.7430697,4.8249582 25.5106453,4.01511202 C26.1076486,3.41838326 26.4061457,2.56592639 26.4061457,1.45771583 L26.4061457,0.818366781 L36.448543,0.946236591 C36.5764723,2.69379939 37.0455393,3.80199333 37.8557579,4.27085164 C38.4954043,4.69708647 39.604108,4.91020069 41.1819023,4.91020069 L41.8855097,4.91020069 L62.6739118,4.78233088 L62.5459832,78.563211 L50.7125851,78.563211 L50.5846564,17.1857024 L40.3503662,17.0578326 C37.8344239,18.7627719 36.5764717,21.746371 36.5764717,26.0087193 C36.5764717,27.1169298 36.6830778,28.3316809 36.8962932,29.6530088 L36.8962932,47.682652 C37.0668656,55.8237372 37.3227203,60.9171671 37.663865,62.9630942 C38.3887975,69.6549811 40.1158167,74.854968 42.8449744,78.563211 L26.2782171,78.563211 L26.1502885,17.1857024 L15.8520339,17.1857024 L15.8520339,17.1857024 Z M91.2659602,41.3530964 C91.2659602,48.9826999 91.43653,57.2302201 91.7776747,66.0959046 L103.802966,66.1598395 L103.802966,78.563211 L72.2685589,78.563211 L72.2685589,66.4155791 L79.3685978,66.4155791 L79.4965264,17.1857024 L72.2685589,17.1857024 L72.2685589,6.31676859 C76.4049385,6.31676859 78.8782006,4.48398632 79.6884193,0.818366781 L89.7947809,0.946236591 C91.3725752,3.16265771 93.1848793,4.48396586 95.2317476,4.91020069 L103.802966,4.78233088 L103.802966,17.1857024 L93.6326398,17.0578326 C92.0548455,18.2086666 91.2659602,26.3070069 91.2659602,41.3530964 L91.2659602,41.3530964 L91.2659602,41.3530964 Z M96.0632837,24.0906721 C96.0632837,22.4709798 97.0440601,21.6611457 99.0056422,21.6611457 C101.05251,21.6611457 102.075929,22.684094 102.075929,24.7300212 C102.075929,26.30709 101.137795,27.0956127 99.2614994,27.0956127 C97.129345,27.0956127 96.0632837,26.0939758 96.0632837,24.0906721 L96.0632837,24.0906721 L96.0632837,24.0906721 Z M144.995984,17.1857024 L134.761694,17.0578326 C132.245751,18.7627719 130.987799,21.746371 130.987799,26.0087193 C130.987799,27.1169298 131.094405,28.3316809 131.307621,29.6530088 L131.307621,47.682652 C131.520836,55.8237372 131.776691,60.9171671 132.075193,62.9630942 C132.842768,69.6549811 134.591109,74.854968 137.320266,78.563211 L120.433687,78.563211 L120.62558,17.1857024 L113.397613,17.1857024 L113.397613,6.31676859 C118.344211,5.89053376 120.817473,4.05775149 120.817473,0.818366781 L130.923835,0.946236591 C132.501629,3.16265771 134.313933,4.48396586 136.360802,4.91020069 L157.085239,4.78233088 L157.021275,78.563211 L144.93202,78.563211 L144.995984,17.1857024 L144.995984,17.1857024 Z M185.677288,41.3530964 C185.677288,48.9826999 185.847857,57.2302201 186.189002,66.0959046 L198.214293,66.1598395 L198.214293,78.563211 L166.679886,78.563211 L166.679886,66.4155791 L173.779925,66.4155791 L173.907854,17.1857024 L166.679886,17.1857024 L166.679886,6.31676859 C170.816266,6.31676859 173.289528,4.48398632 174.099747,0.818366781 L184.206108,0.946236591 C185.783903,3.16265771 187.596207,4.48396586 189.643075,4.91020069 L198.214293,4.78233088 L198.214293,17.1857024 L188.043967,17.0578326 C186.466173,18.2086666 185.677288,26.3070069 185.677288,41.3530964 L185.677288,41.3530964 L185.677288,41.3530964 Z M190.474611,24.0906721 C190.474611,22.4709798 191.455388,21.6611457 193.41697,21.6611457 C195.463838,21.6611457 196.487257,22.684094 196.487257,24.7300212 C196.487257,26.30709 195.549123,27.0956127 193.672827,27.0956127 C191.540672,27.0956127 190.474611,26.0939758 190.474611,24.0906721 L190.474611,24.0906721 L190.474611,24.0906721 Z" id="mini" fill="#FFFFFF"></path>
                            <path d="M99.1740747,270.963949 C99.2763516,271.168409 99.3274893,271.270637 99.3274893,271.270637 C99.532043,271.577326 100.068989,272.037354 100.938342,272.650733 C101.807695,273.264112 102.344641,273.570797 102.549195,273.570797 L147.346241,273.570797 L144.891609,265.750253 C144.891609,265.443563 145.172866,264.957979 145.735389,264.293485 C146.297911,263.628991 146.937132,262.964507 147.65307,262.300013 C148.369009,261.635519 149.008229,260.971034 149.570752,260.30654 C150.133275,259.642046 150.414532,259.156462 150.414532,258.849772 C150.414532,256.396256 150.542376,254.453918 150.798069,253.0227 C151.053761,251.591482 151.437293,250.262514 151.948678,249.035756 C152.460062,247.808998 153.073714,246.556701 153.789652,245.278828 C154.50559,244.000955 155.323793,242.339744 156.244285,240.295148 L150.721361,241.368556 C148.266716,242.186394 146.22121,242.595308 144.58478,242.595308 L136.300394,242.595308 L128.016009,242.595308 C125.663641,242.595308 124.231786,241.112997 123.720402,238.148331 C124.43634,234.161367 125.5358,230.251134 127.018814,226.417515 C128.501829,222.583896 131.936916,210.004493 131.936916,210.004493 L105.044948,210.004493 C105.044948,210.004493 101.961113,223.095037 100.478098,227.950955 C98.9950837,232.806873 97.5632289,237.586047 96.1824911,242.28862 C94.8017533,246.991193 93.6255869,251.080325 92.6539566,254.55614 C91.6823263,258.031955 91.1965185,259.923179 91.1965185,260.229868 L91.1965185,262.069997 C92.8329484,262.069997 94.6994734,262.146668 96.7961493,262.300013 C98.8928252,262.453357 100.708212,263.143398 102.242366,264.370157 C102.140089,264.574616 101.935538,264.906858 101.628707,265.366893 C101.321877,265.826927 100.989482,266.312511 100.631513,266.823661 C100.273544,267.33481 99.9667178,267.820394 99.7110256,268.280429 C99.4553334,268.740463 99.3274893,269.021591 99.3274893,269.123821 C99.3274893,269.123821 99.2763516,269.251606 99.1740747,269.507181 C99.0717978,269.762755 99.0206602,270.043883 99.0206602,270.350573 C99.0206602,270.555033 99.0717978,270.759489 99.1740747,270.963949 L99.1740747,270.963949 Z M155.937456,272.804077 C156.653394,272.804077 157.82956,272.77852 159.46599,272.727405 C161.10242,272.67629 162.789963,272.650733 164.52867,272.650733 C166.369654,272.650733 168.082766,272.67629 169.668057,272.727405 C171.253349,272.77852 172.455084,272.804077 173.273299,272.804077 C173.477853,272.804077 174.014798,272.880748 174.884152,273.034093 C175.753505,273.187438 176.648414,273.366337 177.568906,273.570797 C178.489398,273.775257 179.384307,273.954156 180.253661,274.107501 C181.123014,274.260846 181.65996,274.337517 181.864514,274.337517 L182.938415,274.337517 L183.552074,274.337517 L190.148899,263.603437 L198.740113,263.603437 L199.046942,274.644205 C199.967434,274.644205 200.836775,274.33752 201.65499,273.724141 C202.473205,273.212992 203.316976,272.676293 204.18633,272.114029 C205.055683,271.551765 205.592629,271.270637 205.797182,271.270637 C206.20629,271.270637 206.845511,271.526208 207.714864,272.037357 C208.584218,272.548506 209.172301,272.804077 209.479131,272.804077 C209.581408,272.804077 209.939372,272.829634 210.553033,272.880749 C211.166694,272.931864 211.626933,272.957421 211.933764,272.957421 C212.342872,272.957421 212.879817,272.931864 213.544617,272.880749 C214.209416,272.829634 214.592949,272.804077 214.695226,272.804077 C214.89978,272.804077 215.436725,272.548506 216.306079,272.037357 C217.175432,271.526208 217.712377,271.270637 217.916931,271.270637 C218.223762,271.270637 218.70957,271.398422 219.374369,271.653997 C220.039169,271.909572 220.755096,272.190699 221.522173,272.497389 C222.28925,272.804079 223.005177,273.136321 223.669977,273.494125 C224.334776,273.85193 224.769446,274.133057 224.974,274.337517 C225.076277,274.030828 225.22969,273.519686 225.434244,272.804077 C225.638798,272.088468 225.817779,271.321756 225.971195,270.503917 C226.12461,269.686078 226.252454,268.919366 226.354731,268.203757 C226.457008,267.488148 226.508146,266.977006 226.508146,266.670317 C226.814976,263.398962 227.198509,259.3865 227.658755,254.632812 C228.119001,249.879124 228.604809,244.921051 229.116193,239.758443 C229.627577,234.595836 230.138954,229.458863 230.650338,224.347371 C231.161723,219.235878 231.596393,214.58449 231.954362,210.393066 C232.312331,206.201642 232.593588,202.776994 232.798142,200.119018 C233.002696,197.461042 233.053833,195.978731 232.951556,195.672041 L232.798142,190.765033 C232.286758,190.765033 231.903225,190.816147 231.647533,190.918377 C231.391841,191.020607 230.803757,191.276178 229.883266,191.685097 C228.962774,191.889557 227.888883,192.29847 226.66156,192.911849 C225.434238,193.525228 224.667173,193.934142 224.360342,194.138601 C223.951235,193.320763 223.490996,192.835178 222.979611,192.681833 C222.468227,192.528489 221.803437,192.451817 220.985222,192.451817 C219.860176,192.451817 218.862992,192.732945 217.993638,193.295209 C217.124285,193.857474 216.127101,194.138601 215.002055,194.138601 L214.081568,194.138601 L212.240593,192.605161 C212.240593,192.605161 212.112749,192.579604 211.857057,192.528489 C211.601365,192.477374 211.422383,192.451817 211.320106,192.451817 C211.217829,192.451817 211.064416,192.477374 210.859862,192.528489 C210.655308,192.579604 210.553033,192.605161 210.553033,192.605161 L208.865473,194.138601 C208.865473,194.138601 208.763198,194.164158 208.558644,194.215273 C208.35409,194.266388 208.200677,194.291945 208.0984,194.291945 C207.79157,194.291945 207.56145,194.266388 207.408035,194.215273 C207.25462,194.164158 207.177913,194.138601 207.177913,194.138601 C206.973359,193.934142 206.666533,193.423 206.257426,192.605161 C205.848318,191.787323 205.541492,191.276181 205.336939,191.071721 C205.336939,191.071721 205.234663,191.046164 205.03011,190.995049 C204.825556,190.943934 204.621005,190.918377 204.416451,190.918377 C204.314175,190.918377 204.160762,190.943934 203.956208,190.995049 C203.751654,191.046164 203.649379,191.071721 203.649379,191.071721 C203.342548,191.173951 203.010153,191.403965 202.652184,191.761769 C202.294215,192.119574 202.064096,192.400702 201.961819,192.605161 L155.937456,272.804077 L155.937456,272.804077 Z M208.0984,223.733995 L205.183524,243.515372 L195.978652,243.362028 C197.103697,241.62412 197.742918,240.550723 197.896333,240.141804 C198.049749,239.732884 198.126455,239.477313 198.126455,239.375083 C198.535563,239.068394 198.893526,238.710595 199.200357,238.301675 C199.507188,237.892756 199.967427,237.151601 200.581088,236.078187 C201.194749,235.004774 202.089658,233.496906 203.265842,231.554539 C204.442026,229.612172 206.052863,227.00535 208.0984,223.733995 L208.0984,223.733995 L208.0984,223.733995 Z M236.940335,258.236396 C236.940335,258.440856 237.144885,258.926441 237.553993,259.693164 C237.9631,260.459888 238.269926,260.996587 238.47448,261.303276 C242.361001,266.00585 246.452015,269.251599 250.747643,271.040621 C255.043272,272.829643 260.157039,273.724141 266.089098,273.724141 C270.28245,273.724141 274.322326,273.008543 278.208847,271.577325 C282.095368,270.146107 285.521592,268.101541 288.487621,265.443565 C291.45365,262.785589 293.831552,259.616511 295.621397,255.936236 C297.411243,252.255962 298.306152,248.166829 298.306152,243.668716 C298.306152,240.70405 297.845913,238.071671 296.925421,235.771499 C296.004929,233.471328 294.854332,231.324533 293.473594,229.331051 C292.092856,227.337569 290.609864,225.369674 289.024572,223.427307 C287.43928,221.48494 285.930719,219.287031 284.498843,216.833514 C284.703397,216.833514 285.086929,216.807957 285.649452,216.756842 C286.211975,216.705728 286.595507,216.68017 286.800061,216.68017 C288.334214,216.68017 289.663794,217.012412 290.788839,217.676906 C291.913885,218.3414 292.987776,219.108113 294.010545,219.977067 C295.033313,220.84602 296.081636,221.612733 297.155543,222.277227 C298.22945,222.941721 299.380048,223.273963 300.60737,223.273963 L301.527857,222.353899 L301.681272,217.753578 L306.130294,216.68017 L305.67005,209.626346 L310.886144,210.393066 L313.954435,207.939562 C313.443051,205.997195 313.340776,204.872683 313.647606,204.565994 C310.374746,200.57903 306.258164,197.537737 301.297735,195.442025 C296.337307,193.346314 291.249109,192.298473 286.032988,192.298473 C282.453298,192.298473 278.771386,192.860729 274.987141,193.985257 C271.202897,195.109786 267.725535,196.770996 264.554952,198.968938 C261.384369,201.166879 258.776348,203.824816 256.730811,206.942826 C254.685273,210.060836 253.66252,213.61327 253.66252,217.600234 C253.66252,220.973819 254.352878,223.912884 255.733616,226.417515 C257.114354,228.922146 258.776328,231.273397 260.719589,233.471339 C262.662849,235.669281 264.708356,237.86719 266.856171,240.065132 C269.003985,242.263073 270.793803,244.74211 272.22568,247.502316 C271.918849,248.320155 271.509748,248.805739 270.998363,248.959084 C270.486979,249.112429 269.924464,249.1891 269.310803,249.1891 C267.367543,249.1891 265.654431,248.703515 264.171416,247.732332 C262.688401,246.761148 261.256547,245.662194 259.875809,244.435436 C258.495071,243.208678 257.139923,242.109723 255.810323,241.13854 C254.480724,240.167356 253.048869,239.681771 251.514716,239.681771 C251.310162,239.681771 250.798786,239.477315 249.980571,239.068395 L248.753254,244.58878 L243.997404,246.275564 L248.753254,251.949292 L238.781309,252.562668 L236.940335,258.236396 L236.940335,258.236396 Z M331.597108,192.758505 L330.830035,192.758505 C330.830035,192.758505 330.72776,192.937405 330.523206,193.295209 C330.318652,193.653014 330.088533,194.087484 329.832841,194.598633 C329.577148,195.109783 329.32146,195.595367 329.065768,196.055401 C328.810076,196.515436 328.631094,196.796564 328.528817,196.898794 C328.119709,197.818862 327.582764,199.096716 326.917964,200.732394 C326.253165,202.368071 325.588375,203.978167 324.923575,205.56273 C324.258775,207.147293 323.670692,208.552932 323.159308,209.77969 C322.647924,211.006448 322.341098,211.773161 322.238821,212.07985 C321.420606,214.124447 320.551265,216.322356 319.630773,218.673643 C318.710282,221.024929 317.687528,223.785094 316.562483,226.954219 C315.33516,229.918885 314.184563,232.857949 313.110655,235.771499 C312.036748,238.68505 310.937288,241.624114 309.812243,244.58878 C308.789474,247.451215 307.817858,250.109152 306.897366,252.562668 C305.976874,255.016184 305.158672,257.188536 304.442734,259.079788 C303.726796,260.971041 303.164281,262.478908 302.755174,263.603437 C302.346066,264.727965 302.141515,265.341335 302.141515,265.443565 L301.374443,273.264109 C301.78355,273.264109 302.576184,273.187438 303.752368,273.034093 C304.928552,272.880748 306.206994,272.727406 307.587732,272.574061 C308.96847,272.420716 310.246911,272.267374 311.423095,272.114029 C312.599279,271.960684 313.443051,271.884013 313.954435,271.884013 C314.158989,271.884013 314.747072,271.551771 315.718703,270.887277 C316.690333,270.222783 317.278416,269.839427 317.48297,269.737197 L318.250043,269.737197 L319.017115,269.737197 L322.085406,271.884013 L322.852479,271.884013 L323.619552,271.884013 C323.721828,271.475094 323.977517,270.785052 324.386624,269.813869 C324.795732,268.842685 325.255971,267.794845 325.767355,266.670317 C326.27874,265.545788 326.738979,264.472391 327.148086,263.450093 C327.557194,262.427794 327.812882,261.609968 327.915159,260.996588 C328.426543,259.87206 329.193608,258.287521 330.216377,256.242924 C331.239146,254.198327 332.134055,252.460446 332.901131,251.029228 C333.668208,249.59801 334.102878,248.780184 334.205155,248.575724 L341.875882,248.575724 C341.466775,252.051539 340.597434,255.425073 339.267835,258.696428 C337.938236,261.967784 337.068895,265.392432 336.659788,268.970477 C336.557511,268.970477 336.506373,269.37939 336.506373,270.197229 C336.506373,271.219527 336.455236,271.781783 336.352959,271.884013 C336.762066,271.577323 337.580269,271.16841 338.807591,270.657261 C340.034914,270.146112 340.904254,269.839427 341.415639,269.737197 L342.336126,269.737197 L343.103199,269.737197 C343.205475,269.839427 343.410026,270.222783 343.716857,270.887277 C344.023687,271.551771 344.228238,271.884013 344.330515,271.884013 C344.535069,271.884013 345.097583,271.526214 346.018075,270.810605 C346.938567,270.094996 347.501081,269.737197 347.705635,269.737197 C347.807912,269.737197 348.370426,269.686083 349.393195,269.583853 C350.415964,269.481623 351.234166,269.430509 351.847828,269.430509 C352.359212,269.430509 353.126277,269.481623 354.149046,269.583853 C355.171814,269.686083 355.734329,269.737197 355.836606,269.737197 C356.041159,269.737197 356.501398,270.094996 357.217337,270.810605 C357.933275,271.526214 358.393514,271.884013 358.598067,271.884013 C358.802621,271.884013 359.109447,271.602885 359.518555,271.040621 C359.927662,270.478357 360.234488,270.043886 360.439042,269.737197 L389.280976,196.898794 L389.434391,195.978729 C388.820729,195.978729 387.746838,195.850944 386.212685,195.595369 C384.678532,195.339795 383.655779,195.160895 383.144394,195.058665 C383.042117,195.058665 382.811998,194.675309 382.454029,193.908585 C382.09606,193.141862 381.86594,192.758505 381.763663,192.758505 C381.661387,192.758505 381.277854,193.090747 380.613054,193.755241 C379.948255,194.419735 379.257896,195.135334 378.541958,195.902057 C377.82602,196.668781 377.135661,197.38438 376.470862,198.048874 C375.806062,198.713368 375.42253,199.04561 375.320253,199.04561 C375.115699,199.04561 374.987855,198.841153 374.936716,198.432234 C374.885578,198.023314 374.783302,197.588844 374.629887,197.12881 C374.476472,196.668775 374.271921,196.234305 374.016229,195.825385 C373.760537,195.416466 373.325867,195.212009 372.712205,195.212009 C371.58716,195.212009 370.462131,195.186452 369.337085,195.135337 C368.21204,195.084223 367.444975,195.058665 367.035867,195.058665 C365.910822,195.978734 364.683518,197.409931 363.353918,199.352298 C362.024319,201.294665 360.720308,203.390345 359.441847,205.639402 C358.163386,207.888459 357.012789,210.035253 355.99002,212.07985 C354.967251,214.124447 354.251324,215.657872 353.842217,216.68017 L348.012464,216.68017 C348.217018,214.840033 348.651688,212.948809 349.316488,211.006442 C349.981287,209.064075 350.697215,207.147294 351.464291,205.256042 C352.231368,203.36479 352.947295,201.499123 353.612095,199.658986 C354.276894,197.818848 354.711565,196.080967 354.916118,194.445289 C354.609288,194.445289 354.046773,194.470846 353.228558,194.521961 C352.410343,194.573076 351.541003,194.649748 350.620511,194.751977 C349.700019,194.854207 348.830679,194.930879 348.012464,194.981993 C347.194249,195.033108 346.631735,195.058665 346.324904,195.058665 C346.222627,195.058665 345.94137,195.160894 345.481124,195.365353 C345.020878,195.569813 344.509501,195.77427 343.946979,195.978729 C343.384456,196.183189 342.84751,196.387646 342.336126,196.592106 C341.824741,196.796565 341.517915,196.898794 341.415639,196.898794 C341.313362,196.898794 341.083242,196.617666 340.725273,196.055401 C340.367304,195.493137 340.137185,195.160895 340.034908,195.058665 L339.11442,195.058665 L338.347348,195.058665 C338.142794,195.160895 337.58028,195.569809 336.659788,196.285417 C335.739296,197.001026 335.176781,197.256597 334.972228,197.052138 C334.869951,196.949908 334.716538,196.771008 334.511984,196.515434 C334.30743,196.259859 333.949467,195.825389 333.438082,195.212009 C333.028975,194.394171 332.747718,193.780801 332.594302,193.371881 C332.440887,192.962962 332.364181,192.758505 332.364181,192.758505 L331.597108,192.758505 L331.597108,192.758505 Z M380.536347,247.195628 L380.536347,246.735596 L406.616819,193.831913 L407.230478,193.831913 C408.866908,193.831913 410.298762,194.03637 411.526085,194.445289 C412.753407,194.854209 414.287537,195.058665 416.128521,195.058665 C417.355844,195.058665 418.327459,194.93088 419.043397,194.675305 C419.759336,194.419731 420.424125,194.16416 421.037787,193.908585 C421.651448,193.653011 422.239531,193.39744 422.802054,193.141865 C423.364577,192.886291 424.106073,192.758505 425.026565,192.758505 L428.094856,195.978729 C426.96981,198.227786 426.049332,200.11901 425.333394,201.652458 C424.617456,203.185905 423.952666,204.642659 423.339005,206.022762 C422.725343,207.402865 422.13726,208.75739 421.574737,210.086378 C421.012215,211.415366 420.372994,212.948791 419.657056,214.686698 C418.225179,217.958054 416.716618,221.331588 415.131327,224.807403 C413.546035,228.283218 412.242024,231.094496 411.219256,233.241323 C411.116979,233.548013 410.784584,234.212497 410.222061,235.234795 C409.659538,236.257094 409.045886,237.356048 408.381087,238.531691 C407.716287,239.707335 407.077066,240.88296 406.463405,242.058604 C405.849744,243.234247 405.389505,244.128745 405.082674,244.742124 C404.87812,245.151043 404.44345,245.78997 403.77865,246.658924 C403.113851,247.527878 402.270079,247.962348 401.24731,247.962348 C401.145034,247.962348 400.991621,247.936791 400.787067,247.885676 C400.582513,247.834561 400.480238,247.809004 400.480238,247.809004 C400.377961,247.706774 400.122273,247.502317 399.713165,247.195628 C399.304058,246.888938 399.048369,246.735596 398.946092,246.735596 C398.741539,246.735596 398.230162,246.914495 397.411947,247.2723 C396.593732,247.630104 396.082355,247.809004 395.877801,247.809004 C395.775525,247.809004 395.64768,247.425648 395.494265,246.658924 C395.34085,245.8922 395.161868,245.048816 394.957314,244.128748 C394.75276,243.208679 394.573779,242.365295 394.420363,241.598572 C394.266948,240.831848 394.139104,240.448492 394.036827,240.448492 C393.93455,240.448492 393.678862,240.831848 393.269754,241.598572 C392.860647,242.365295 392.400408,243.208679 391.889023,244.128748 C391.377639,245.048816 390.9174,245.8922 390.508292,246.658924 C390.099185,247.425648 389.843497,247.809004 389.74122,247.809004 C389.536666,247.809004 389.025289,247.630104 388.207074,247.2723 C387.388859,246.914495 386.877483,246.735596 386.672929,246.735596 C386.468375,246.735596 386.13598,246.837824 385.675734,247.042284 C385.215488,247.246744 384.729681,247.502314 384.218296,247.809004 C383.706912,248.115693 383.246673,248.371264 382.837565,248.575724 C382.428458,248.780184 382.172769,248.882412 382.070493,248.882412 C381.865939,248.882412 381.584682,248.754627 381.226713,248.499052 C380.868743,248.243477 380.638624,248.013464 380.536347,247.809004 L380.536347,247.195628 L380.536347,247.195628 Z M380.536347,270.657261 C380.43407,270.350571 380.357364,269.558302 380.306225,268.280429 C380.255087,267.002556 380.229518,266.210286 380.229518,265.903597 C380.229518,261.916633 381.431253,259.156468 383.83476,257.62302 C386.238266,256.089573 389.383233,255.32286 393.269754,255.32286 C396.133507,255.32286 398.076738,255.961787 399.099507,257.23966 C400.122276,258.517533 400.633652,260.3832 400.633652,262.836717 C400.633652,266.312531 399.534192,268.996025 397.33524,270.887277 C395.136287,272.778529 392.093595,273.724141 388.207074,273.724141 C386.775198,273.724141 385.343343,273.519684 383.911467,273.110765 C382.479591,272.701846 381.354562,271.884019 380.536347,270.657261 L380.536347,270.657261 L380.536347,270.657261 Z M419.350227,247.195628 L419.350227,246.735596 L445.430699,193.831913 L446.044357,193.831913 C447.680787,193.831913 449.112642,194.03637 450.339964,194.445289 C451.567287,194.854209 453.101417,195.058665 454.942401,195.058665 C456.169723,195.058665 457.141339,194.93088 457.857277,194.675305 C458.573215,194.419731 459.238005,194.16416 459.851666,193.908585 C460.465327,193.653011 461.05341,193.39744 461.615933,193.141865 C462.178456,192.886291 462.919952,192.758505 463.840444,192.758505 L466.908735,195.978729 C465.783689,198.227786 464.863211,200.11901 464.147273,201.652458 C463.431335,203.185905 462.766545,204.642659 462.152884,206.022762 C461.539223,207.402865 460.95114,208.75739 460.388617,210.086378 C459.826094,211.415366 459.186873,212.948791 458.470935,214.686698 C457.039059,217.958054 455.530498,221.331588 453.945206,224.807403 C452.359915,228.283218 451.055904,231.094496 450.033135,233.241323 C449.930858,233.548013 449.598463,234.212497 449.035941,235.234795 C448.473418,236.257094 447.859766,237.356048 447.194966,238.531691 C446.530166,239.707335 445.890946,240.88296 445.277284,242.058604 C444.663623,243.234247 444.203384,244.128745 443.896553,244.742124 C443.692,245.151043 443.25733,245.78997 442.59253,246.658924 C441.92773,247.527878 441.083959,247.962348 440.06119,247.962348 C439.958913,247.962348 439.8055,247.936791 439.600946,247.885676 C439.396393,247.834561 439.294117,247.809004 439.294117,247.809004 C439.19184,247.706774 438.936152,247.502317 438.527044,247.195628 C438.117937,246.888938 437.862249,246.735596 437.759972,246.735596 C437.555418,246.735596 437.044041,246.914495 436.225826,247.2723 C435.407611,247.630104 434.896235,247.809004 434.691681,247.809004 C434.589404,247.809004 434.46156,247.425648 434.308145,246.658924 C434.154729,245.8922 433.975747,245.048816 433.771194,244.128748 C433.56664,243.208679 433.387658,242.365295 433.234243,241.598572 C433.080827,240.831848 432.952983,240.448492 432.850706,240.448492 C432.748429,240.448492 432.492741,240.831848 432.083634,241.598572 C431.674526,242.365295 431.214287,243.208679 430.702903,244.128748 C430.191518,245.048816 429.731279,245.8922 429.322172,246.658924 C428.913064,247.425648 428.657376,247.809004 428.555099,247.809004 C428.350545,247.809004 427.839169,247.630104 427.020954,247.2723 C426.202739,246.914495 425.691362,246.735596 425.486808,246.735596 C425.282255,246.735596 424.94986,246.837824 424.489614,247.042284 C424.029368,247.246744 423.54356,247.502314 423.032176,247.809004 C422.520791,248.115693 422.060552,248.371264 421.651445,248.575724 C421.242337,248.780184 420.986649,248.882412 420.884372,248.882412 C420.679818,248.882412 420.398561,248.754627 420.040592,248.499052 C419.682623,248.243477 419.452503,248.013464 419.350227,247.809004 L419.350227,247.195628 L419.350227,247.195628 Z M419.350227,270.657261 C419.24795,270.350571 419.171243,269.558302 419.120105,268.280429 C419.068966,267.002556 419.043397,266.210286 419.043397,265.903597 C419.043397,261.916633 420.245133,259.156468 422.648639,257.62302 C425.052146,256.089573 428.197112,255.32286 432.083634,255.32286 C434.947386,255.32286 436.890618,255.961787 437.913386,257.23966 C438.936155,258.517533 439.447532,260.3832 439.447532,262.836717 C439.447532,266.312531 438.348072,268.996025 436.149119,270.887277 C433.950166,272.778529 430.907475,273.724141 427.020954,273.724141 C425.589077,273.724141 424.157223,273.519684 422.725347,273.110765 C421.29347,272.701846 420.168442,271.884019 419.350227,270.657261 L419.350227,270.657261 L419.350227,270.657261 Z" id="clash!!" fill="#FFFFFF"></path>
                            <path d="M1.60299977,286.041549 C2.60330123,291.043009 4.37303879,295.428838 6.91226556,299.19917 C9.45149233,302.969501 12.8370772,306.008804 17.0691218,308.31717 C21.3011665,310.625536 26.6488517,311.779702 33.112338,311.779702 C35.1129409,311.779702 38.2676905,311.471924 42.5766814,310.85636 C46.8856723,310.240796 51.1561259,309.240519 55.3881706,307.855499 C59.6202152,306.470479 63.3520531,304.662286 66.5837962,302.430866 C69.8155394,300.199445 71.4313867,297.46792 71.4313867,294.236207 C71.4313867,294.082316 71.3929142,293.851483 71.3159679,293.543701 C71.2390216,293.235919 71.2005491,293.08203 71.2005491,293.08203 C71.0466566,293.08203 70.5465133,293.043558 69.7001044,292.966612 C68.8536955,292.889667 67.9688267,292.77425 67.0454715,292.620359 C66.1221163,292.466468 65.2757201,292.312579 64.5062574,292.158688 C63.7367948,292.004797 63.3520692,291.850908 63.3520692,291.697017 L64.5062574,286.849473 L66.5837962,274.615194 L62.197881,273.230181 C61.7362034,266.920647 61.9670388,264.304538 62.8903939,265.381776 C59.8125433,266.612904 56.5808486,268.074848 53.1952129,269.767649 C49.8095773,271.460451 46.3470472,272.306839 42.807519,272.306839 C42.3458414,272.306839 41.5379178,271.999062 40.3837238,271.383498 C39.2295298,270.767933 38.4985512,270.306267 38.1907662,269.998485 C38.0368736,269.382921 37.921456,268.036394 37.8445097,265.958864 C37.7675634,263.881335 37.7290909,262.534808 37.7290909,261.919244 C37.7290909,259.149205 38.1907615,255.609763 39.1141167,251.300813 C40.0374719,246.991863 41.4609565,242.798394 43.3846131,238.720281 C45.3082698,234.642168 47.6935682,231.141198 50.5405801,228.217268 C53.3875919,225.293338 56.7347042,223.831394 60.5820175,223.831394 L61.7362057,223.831394 C62.1978833,224.139176 63.0827521,224.600843 64.3908386,225.216407 C65.6989251,225.831971 67.1608823,226.524471 68.7767538,227.293926 C70.3926254,228.063381 71.8545825,228.755881 73.162669,229.371445 C74.4707556,229.987009 75.3556243,230.448676 75.8173019,230.756458 L76.2789772,225.908913 L81.3574054,224.985572 L79.2798666,217.368002 L88.051697,218.291343 L89.6544937,210.68445 L70.0463609,188.975241 C58.9660986,188.975241 49.0786518,191.322045 40.3837238,196.015722 C31.6887957,200.7094 24.3405376,206.86495 18.3387289,214.482558 C12.3369202,222.100167 7.79715858,230.794882 4.71930795,240.566965 C1.64145733,250.339048 0.102555097,260.303345 0.102555097,270.460156 C0.102555097,275.846343 0.602698321,281.040089 1.60299977,286.041549 L1.60299977,286.041549 Z" id="c" fill="#FFFFFF"></path>
                            <path d="M50.250021,134.992221 L82.1869261,134.992221 L86.5390494,119.045709 L54.5381425,119.109495 L50.250021,134.992221 L50.250021,134.992221 Z M57.8662369,157.317337 L44.2338505,157.317337 L39.1137054,176.453152 L7.11279858,176.453152 L26.8253572,103.099197 C27.9773956,98.8467728 31.7747986,96.7205925 38.21768,96.7205925 L114.955855,96.7205925 C120.374702,96.7205925 123.084085,98.2514423 123.084085,101.313188 C123.084085,101.866003 122.99875,102.461334 122.828078,103.099197 L109.899711,150.938733 C108.747673,155.191157 104.992937,157.317337 98.6353922,157.317337 L93.0672344,157.317337 L128.268232,201.967571 L93.0672344,201.967571 L57.8662369,157.317337 L57.8662369,157.317337 Z M208.502816,176.453152 L131.70064,176.453152 C126.239124,176.453152 123.508408,174.90104 123.508408,171.79677 C123.508408,171.286479 123.593743,170.712411 123.764415,170.074547 L141.748925,103.099197 C142.900963,98.8467728 146.698366,96.7205925 153.141247,96.7205925 L229.879422,96.7205925 C235.298269,96.7205925 238.007652,98.2514423 238.007652,101.313188 C238.007652,101.866003 237.922318,102.461334 237.751645,103.099197 L219.767136,170.074547 C218.615097,174.326971 214.860362,176.453152 208.502816,176.453152 L208.502816,176.453152 L208.502816,176.453152 Z M160.053443,154.191821 L192.05435,154.128035 L201.462617,119.045709 L169.46171,119.109495 L160.053443,154.191821 L160.053443,154.191821 Z M274.080985,157.317337 L306.081892,157.317337 L308.641965,147.74943 L276.70506,147.74943 L274.080985,157.317337 L274.080985,157.317337 Z M332.002627,96.7205925 C337.421474,96.7205925 340.130857,98.2514423 340.130857,101.313188 C340.130857,101.866003 340.045522,102.461334 339.87485,103.099197 L333.026656,128.613616 L336.226746,128.613616 C341.602926,128.613616 344.290975,130.144466 344.290975,133.206212 C344.290975,133.759027 344.20564,134.354357 344.034968,134.992221 L334.690703,170.074547 C333.538664,174.326971 329.762595,176.453152 323.362382,176.453152 L236.959933,176.453152 L258.400541,96.7205925 L332.002627,96.7205925 L332.002627,96.7205925 Z M284.385277,119.045709 L281.825205,128.613616 L301.025749,128.613616 L303.585821,119.045709 L284.385277,119.045709 L284.385277,119.045709 Z M438.349951,176.453152 L361.547775,176.453152 C356.086259,176.453152 353.355542,174.90104 353.355542,171.79677 C353.355542,171.286479 353.440877,170.712411 353.61155,170.074547 L371.596059,103.099197 C372.748098,98.8467728 376.545501,96.7205925 382.988382,96.7205925 L459.726557,96.7205925 C465.145404,96.7205925 467.854787,98.2514423 467.854787,101.313188 C467.854787,101.866003 467.769452,102.461334 467.59878,103.099197 L449.61427,170.074547 C448.462232,174.326971 444.707496,176.453152 438.349951,176.453152 L438.349951,176.453152 L438.349951,176.453152 Z M389.900578,154.191821 L421.901485,154.128035 L431.309752,119.045709 L399.308845,119.109495 L389.900578,154.191821 L389.900578,154.191821 Z" id="ROBO" stroke="#FFFFFF" stroke-width="5"></path>
                        </g>
                        <g id="Group-+-Fill-13-+-Fill-14-+-Fill-15" transform="translate(238.752456, 0.162089)">
                            <g id="Group" transform="translate(0.188544, 143.609507)" fill="#FFFFFF">
                                <path d="M10.2397975,21.4643226 L10.3579552,21.4643226 L16.9300244,1.58816113 C17.2054569,0.68488221 17.7954389,0.21351875 18.5826193,0.21351875 C19.5665948,0.21351875 20.2747346,0.92076521 20.2747346,1.86349213 C20.2747346,2.0989726 20.2356175,2.37390107 20.1174598,2.72732304 L12.3650233,25.3137238 C11.8532754,26.7278142 11.3024104,27.3171191 10.2006805,27.3171191 C9.13806758,27.3171191 8.54768227,26.7278142 8.07545469,25.3137238 L0.323018187,2.72732304 C0.204860473,2.37390107 0.165743415,2.0989726 0.165743415,1.86349213 C0.165743415,0.92076521 0.873883161,0.21351875 1.85785866,0.21351875 C2.68415612,0.21351875 3.2350211,0.68488221 3.54997391,1.58816113 L10.2397975,21.4643226" id="Fill-3"></path>
                                <path d="M24.5296221,9.876671 C24.5296221,8.77655457 25.2381651,8.10875612 26.1826203,8.10875612 C27.1270755,8.10875612 27.8356185,8.77655457 27.8356185,9.876671 L27.8356185,25.5496068 C27.8356185,26.6493207 27.1270755,27.3171191 26.1826203,27.3171191 C25.2381651,27.3171191 24.5296221,26.6493207 24.5296221,25.5496068 L24.5296221,9.876671" id="Fill-4"></path>
                                <path d="M32.6575017,9.876671 C32.6575017,8.77655457 33.3656414,8.10875612 34.3100966,8.10875612 C35.2545518,8.10875612 35.9630948,8.77655457 35.9630948,9.876671 L35.9630948,10.426528 L36.0022119,10.426528 C36.90755,8.97298955 38.7178229,7.87327565 41.275756,7.87327565 C45.3685295,7.87327565 47.8083048,10.6620084 47.8083048,14.9437276 L47.8083048,25.5496068 C47.8083048,26.6493207 47.0997618,27.3171191 46.1553066,27.3171191 C45.2108515,27.3171191 44.5023084,26.6493207 44.5023084,25.5496068 L44.5023084,15.7294675 C44.5023084,12.7048518 43.125146,10.9373394 40.2917805,10.9373394 C37.7338474,10.9373394 35.9630948,12.7438973 35.9630948,15.5330326 L35.9630948,25.5496068 C35.9630948,26.6493207 35.2545518,27.3171191 34.3100966,27.3171191 C33.3656414,27.3171191 32.6575017,26.6493207 32.6575017,25.5496068 L32.6575017,9.876671" id="Fill-5"></path>
                                <path d="M52.6414796,9.876671 C52.6414796,8.77655457 53.3496193,8.10875612 54.2940745,8.10875612 C55.2385297,8.10875612 55.9470727,8.77655457 55.9470727,9.876671 L55.9470727,10.426528 L55.9861897,10.426528 C56.8915279,8.97298955 58.7018008,7.87327565 61.2597339,7.87327565 C65.3521041,7.87327565 67.7922827,10.6620084 67.7922827,14.9437276 L67.7922827,25.5496068 C67.7922827,26.6493207 67.0837397,27.3171191 66.1392845,27.3171191 C65.1948293,27.3171191 64.4866896,26.6493207 64.4866896,25.5496068 L64.4866896,15.7294675 C64.4866896,12.7048518 63.1091239,10.9373394 60.2757584,10.9373394 C57.7178253,10.9373394 55.9470727,12.7438973 55.9470727,15.5330326 L55.9470727,25.5496068 C55.9470727,26.6493207 55.2385297,27.3171191 54.2940745,27.3171191 C53.3496193,27.3171191 52.6414796,26.6493207 52.6414796,25.5496068 L52.6414796,9.876671" id="Fill-6"></path>
                                <path d="M84.2843574,21.5428161 C84.5993102,20.5215957 84.7174679,19.5003752 84.7174679,17.6934149 C84.7174679,15.8864545 84.5993102,14.9046821 84.2843574,13.8830592 C83.654855,11.9976053 82.1200145,10.9373394 80.0343091,10.9373394 C77.9486036,10.9373394 76.4141664,11.9976053 75.7842608,13.8830592 C75.4697112,14.9046821 75.3515535,15.8864545 75.3515535,17.6934149 C75.3515535,19.5003752 75.4697112,20.5215957 75.7842608,21.5428161 C76.4141664,23.4282699 77.9486036,24.4889383 80.0343091,24.4889383 C82.1200145,24.4889383 83.654855,23.4282699 84.2843574,21.5428161 L84.2843574,21.5428161 L84.2843574,21.5428161 Z M72.5968254,22.485543 C72.1637149,21.1893941 71.967323,19.8932452 71.967323,17.6934149 C71.967323,15.5330326 72.1637149,14.2368837 72.5968254,12.9403322 C73.6199179,9.7192815 76.3746461,7.87327565 80.0343091,7.87327565 C83.6943753,7.87327565 86.4491035,9.7192815 87.472196,12.9403322 C87.9049033,14.2368837 88.1016984,15.5330326 88.1016984,17.6934149 C88.1016984,19.8932452 87.9049033,21.1893941 87.472196,22.485543 C86.4491035,25.6675483 83.6943753,27.5530021 80.0343091,27.5530021 C76.3746461,27.5530021 73.6199179,25.6675483 72.5968254,22.485543 L72.5968254,22.485543 L72.5968254,22.485543 Z" id="Fill-7"></path>
                                <path d="M96.6965631,25.2746783 L90.990715,10.5050214 C90.8725573,10.190645 90.8330369,9.9551645 90.8330369,9.680236 C90.8330369,8.81600258 91.4629426,8.10875612 92.4465148,8.10875612 C93.2336952,8.10875612 93.7454431,8.58011958 94.0208756,9.287366 L98.9004262,22.368004 L98.9790636,22.368004 L103.74086,9.287366 C104.016292,8.58011958 104.52804,8.10875612 105.314817,8.10875612 C106.298793,8.10875612 106.928295,8.81600258 106.928295,9.680236 C106.928295,9.9551645 106.889178,10.190645 106.77102,10.5050214 L101.025652,25.2746783 C100.435267,26.8067102 99.9235188,27.3171191 98.8609059,27.3171191 C97.7986963,27.3171191 97.2869484,26.8067102 96.6965631,25.2746783" id="Fill-8"></path>
                                <path d="M122.029093,15.964948 C122.186368,15.964948 122.265005,15.8864545 122.265005,15.7294675 C122.265005,14.8652341 122.186368,14.1974357 121.989573,13.6081307 C121.36007,11.7226768 119.78571,10.6620084 117.660887,10.6620084 C115.535661,10.6620084 113.961704,11.7226768 113.331798,13.6081307 C113.135406,14.1974357 113.056366,14.8652341 113.056366,15.7294675 C113.056366,15.8864545 113.135406,15.964948 113.292681,15.964948 L122.029093,15.964948 L122.029093,15.964948 L122.029093,15.964948 Z M110.301637,22.328556 C109.908451,21.1499461 109.672135,19.8147517 109.672135,17.5754734 C109.672135,15.3365976 109.86893,14.0010007 110.26252,12.8227933 C111.325133,9.5622945 114.040341,7.75533415 117.621367,7.75533415 C121.32055,7.75533415 123.996641,9.5622945 125.019733,12.7833453 C125.452441,14.0404487 125.649236,15.4935845 125.649236,17.3399929 C125.649236,18.0862849 125.137891,18.5966938 124.350711,18.5966938 L113.292681,18.5966938 C113.135406,18.5966938 113.056366,18.6755898 113.056366,18.8325768 C113.056366,19.7358557 113.135406,20.3646087 113.371318,21.1109006 C114.079861,23.2712829 115.811094,24.3709968 118.133115,24.3709968 C119.982505,24.3709968 121.241913,23.8211399 122.658595,22.7604715 C123.052186,22.4464975 123.406255,22.289108 123.799846,22.289108 C124.587026,22.289108 125.177008,22.878413 125.177008,23.6641529 C125.177008,24.1355164 124.980213,24.5283864 124.665663,24.8423603 C123.052186,26.3353467 120.809205,27.4350606 117.896799,27.4350606 C114.000821,27.4350606 111.36425,25.6281003 110.301637,22.328556 L110.301637,22.328556 L110.301637,22.328556 Z" id="Fill-9"></path>
                                <path d="M130.476361,25.4316653 L130.476361,9.7587295 C130.476361,8.6590156 131.184501,7.99121715 132.128956,7.99121715 C133.073412,7.99121715 133.781955,8.6590156 133.781955,9.7587295 L133.781955,10.6229629 L133.821072,10.6229629 C134.608252,8.93394407 136.339888,7.75533415 138.661505,7.75533415 C139.960434,7.75533415 140.825848,8.06971064 141.455754,8.4231326 C142.124776,8.77655457 142.400209,9.287366 142.400209,9.837223 C142.400209,10.7799499 141.731186,11.4871964 140.747211,11.4871964 C140.511298,11.4871964 140.196346,11.4087029 139.920913,11.2907614 C139.212773,11.0158329 138.543751,10.8193979 137.75657,10.8193979 C134.923205,10.8193979 133.781955,13.1762152 133.781955,16.3187725 L133.781955,25.4316653 C133.781955,26.5313792 133.073412,27.1991776 132.128956,27.1991776 C131.184501,27.1991776 130.476361,26.5313792 130.476361,25.4316653" id="Fill-10"></path>
                                <path d="M156.486786,20.9144656 L156.486786,18.8325768 C156.486786,18.6755898 156.407745,18.5966938 156.250471,18.5966938 L152.47265,18.5966938 C149.245694,18.5966938 147.789491,19.5394207 147.789491,21.6607576 C147.789491,23.6247049 149.206174,24.6068798 151.72499,24.6068798 C154.636993,24.6068798 156.486786,23.2318349 156.486786,20.9144656 L156.486786,20.9144656 L156.486786,20.9144656 Z M160.972746,25.6281003 C160.972746,26.5313792 160.264607,27.1991776 159.280631,27.1991776 C158.690246,27.1991776 158.218018,26.9242491 157.824428,26.3743922 L157.076768,25.1961848 L157.037651,25.1961848 C155.778243,26.6102752 154.00749,27.4350606 151.252762,27.4350606 C147.041831,27.4350606 144.602056,25.3531718 144.602056,21.7786991 C144.602056,17.8898499 147.278146,15.964948 151.960902,15.964948 L156.250471,15.964948 C156.407745,15.964948 156.486786,15.8864545 156.486786,15.7294675 L156.486786,14.8257861 C156.486786,12.1940403 155.266495,10.7014564 151.960902,10.7014564 C150.505102,10.7014564 149.009782,11.1728199 148.104444,11.6441834 C147.789491,11.8011703 147.435421,11.9191118 147.159989,11.9191118 C146.294171,11.9191118 145.743306,11.3692549 145.743306,10.5050214 C145.743306,9.99421 145.979621,9.483801 146.530486,9.1694245 C147.710854,8.38408712 149.678401,7.75533415 152.275855,7.75533415 C157.313083,7.75533415 159.674221,10.1515995 159.674221,14.7867406 L159.674221,21.5428161 C159.674221,22.524991 159.752859,22.917861 160.028291,23.4677179 L160.697314,24.6853733 C160.854589,24.9603018 160.972746,25.3137238 160.972746,25.6281003 L160.972746,25.6281003 L160.972746,25.6281003 Z" id="Fill-11"></path>
                                <path d="M24.0182774,2.37390107 C24.0182774,1.15624567 25.0018497,0.21351875 26.1826203,0.21351875 C27.3633909,0.21351875 28.3469631,1.15624567 28.3469631,2.37390107 C28.3469631,3.552511 27.3633909,4.5342834 26.1826203,4.5342834 C25.0018497,4.5342834 24.0182774,3.552511 24.0182774,2.37390107" id="Fill-12"></path>
                            </g>
                            <g id="Fill-13-+-Fill-14-+-Fill-15" transform="translate(14.050099, 0.388385)">
                                <path d="M132.974409,66.7843411 C132.974409,103.435165 103.208747,133.146762 66.4899266,133.146762 C29.7711063,133.146762 0.0058473954,103.435165 0.0058473954,66.7843411 C0.0058473954,30.1335174 29.7711063,0.42151799 66.4899266,0.42151799 C103.208747,0.42151799 132.974409,30.1335174 132.974409,66.7843411" id="Fill-13" fill="#FFFFFF"></path>
                                <path d="M66.8500455,42.0645276 C66.0560095,44.0759736 65.6362069,47.1484905 65.6362069,50.9499906 C65.6362069,56.382545 66.4116925,62.4780676 67.677956,68.427069 C69.781002,60.6546035 70.8774895,52.8801253 71.0521048,47.161774 C71.3303602,38.0621648 67.7723209,39.7314596 66.8500455,42.0645276 L66.8500455,42.0645276 L66.8500455,42.0645276 Z M90.8122686,75.0020056 C90.9872872,78.2089678 91.4691932,81.3954009 92.5068035,84.6043757 C93.7726637,81.2464645 94.4336211,77.7235158 94.5824272,74.6948747 C94.8510041,69.2301177 90.5041714,69.3625504 90.8122686,75.0020056 L90.8122686,75.0020056 L90.8122686,75.0020056 Z M50.0405984,102.334243 L50.355148,102.324985 C42.3075188,101.974381 35.8044086,91.167639 29.7461037,69.318272 C25.417418,53.7041057 23.2974347,37.8834412 23.2744484,37.7256491 C23.0905579,36.4472116 24.0696942,35.2617586 25.3504754,35.0782046 C26.6308534,34.8930405 27.8632424,35.7822308 28.0475361,37.0606684 C28.0701192,37.2156427 30.3566524,52.7782851 34.6107334,68.1078621 C39.7487792,86.6254824 45.8034547,97.3557436 51.2411292,97.6507986 C54.0692522,97.4543636 59.0693802,92.5805218 64.1364508,79.3449095 C64.4268042,78.5873467 64.7127217,77.8193181 64.9889607,77.0428363 C62.4205427,67.9065968 60.9490154,58.0912879 60.9490154,50.9499906 C60.9490154,46.5040389 61.4684254,42.9376168 62.4903081,40.3493443 C64.3102596,35.7423803 67.4533354,35.0814249 69.1644043,35.0544553 C70.6988415,35.0303035 73.0821592,35.3366293 74.5621551,39.3007518 C75.2916681,41.2542333 75.7380865,43.8187565 75.7380865,47.161774 C75.7380865,54.3646586 73.5745502,66.2658816 69.9193232,77.1736588 C73.343074,88.5383084 78.1952024,97.6177911 82.0827122,97.6177911 C84.4414305,97.6177911 87.3405288,94.5947854 89.7528819,90.4350331 C87.4623159,85.1896554 86.1270934,79.2595729 86.1270934,75.0712409 C86.1270934,72.5735378 86.5444765,70.5363299 87.3691609,69.0163739 C88.4737137,66.978361 90.3158449,65.8557028 92.5551957,65.8557028 C94.8368897,65.8557028 96.5939312,67.0363254 97.8827778,68.8923945 C98.8732056,70.3197684 99.2680056,72.2579538 99.2680056,74.6948747 C99.2680056,78.9697508 97.6335578,85.125653 94.9566605,90.538886 C97.03793,94.5831121 99.5547296,97.4946167 101.646887,97.4946167 C102.499801,97.4946167 103.476921,97.0449899 105.471084,94.8516 C106.341741,93.8951871 107.824157,93.8231341 108.78071,94.6909903 C109.738876,95.5588465 109.811061,97.0377443 108.941614,97.9941573 C106.661936,100.501521 104.548809,102.171621 101.646887,102.171621 C98.0279545,102.171621 94.8030151,99.269375 92.2422592,95.1969714 C89.3859074,99.33861 85.8653721,102.294795 82.0831154,102.294795 C76.1663578,102.294795 70.2996055,94.3621227 66.5677574,84.1869514 C62.3765864,94.1656877 55.6863595,101.990885 50.0405984,102.323375 L50.0405984,102.334243 L50.0405984,102.334243 L50.0405984,102.334243 Z" id="Fill-14" fill="#000000"></path>
                                <path d="M92.7265849,56.3765071 L92.7225522,56.3765071 C92.0999054,56.3765071 91.4986318,55.7843844 91.0747965,55.1580466 C90.7251626,54.6424048 90.5251413,53.8808167 90.5259479,53.2713852 C90.529174,51.9253225 91.2873191,50.7728771 92.7277947,50.7728771 C94.1404448,50.7728771 94.9296415,52.0762715 94.9276252,53.4235418 C94.9256088,54.7241185 94.0210772,56.3765071 92.7265849,56.3765071 L92.7265849,56.3765071 L92.7265849,56.3765071 Z M92.5576153,45.4196211 C88.9040014,45.4196211 85.9234428,48.7147375 85.9141676,52.7762724 C85.9125545,54.6146302 86.5154411,56.5487902 87.5699887,58.104974 C88.8491568,59.9936481 90.6630592,61.0539139 92.5418878,61.0539139 L92.5539859,61.0539139 C96.4588362,61.0539139 99.1881584,56.7049721 99.1946107,52.7811028 C99.1998532,48.7163476 96.2265535,45.4264641 92.5576153,45.4196211 L92.5576153,45.4196211 L92.5576153,45.4196211 Z" id="Fill-15" fill="#3FA9F5"></path>
                            </g>
                        </g>
                    </g>
                </g>
            </g>
            <g id="-+-20-5-2015-kl-1700" transform="translate(172.237723, 517.067634)" fill="#FFFFFF" sketch:type="MSShapeGroup">
                <g id="Group" transform="translate(315.881982, 3.372145)">
                    <path d="M0,0 L4.39564073,0 L3.28863605,9.18774362 C3.28863605,9.18774362 2.19048742,9.27043092 0.879128147,7.9138798 C0.87767367,7.91237521 1.75971129,2.63947123 1.75825629,2.63795993 L0,0 L0,0 L0,0 Z" id="Rectangle-36-Copy-5"></path>
                    <rect id="Rectangle-36-Copy-4" transform="translate(2.192424, 12.548444) scale(1, -1) translate(-2.192424, -12.548444) " x="0.873731817" y="11.2294644" width="2.63738444" height="2.63795993"></rect>
                </g>
                <g id="Group-Copy" transform="translate(328.097584, 3.372145)">
                    <path d="M-4.46309656e-13,1.24344979e-14 L4.39564073,1.24344979e-14 L3.28863605,9.18774362 C3.28863605,9.18774362 2.19048742,9.27043092 0.879128147,7.9138798 C0.877673675,7.91237521 1.75971129,2.63947123 1.75825629,2.63795993 L-4.46309656e-13,1.24344979e-14 L-4.46309656e-13,1.24344979e-14 L-4.46309656e-13,1.24344979e-14 Z" id="Rectangle-36-Copy-5"></path>
                    <rect id="Rectangle-36-Copy-4" transform="translate(2.192424, 12.548444) scale(1, -1) translate(-2.192424, -12.548444) " x="0.873731817" y="11.2294644" width="2.63738444" height="2.63795993"></rect>
                </g>
                <g id="Group-Copy-2" transform="translate(343.803358, 3.372145)">
                    <path d="M0,0 L4.39564073,0 L3.28863605,9.18774362 C3.28863605,9.18774362 2.19048742,9.27043092 0.879128147,7.9138798 C0.87767367,7.91237521 1.75971129,2.63947123 1.75825629,2.63795993 L0,0 L0,0 L0,0 Z" id="Rectangle-36-Copy-5"></path>
                    <rect id="Rectangle-36-Copy-4" transform="translate(2.192424, 12.548444) scale(1, -1) translate(-2.192424, -12.548444) " x="0.873731817" y="11.2294644" width="2.63738444" height="2.63795993"></rect>
                </g>
                <path d="M6.44510238,14.8416992 C5.51671201,16.0132394 4.52754901,17.1129235 3.47758372,18.1407842 C2.42761841,19.168645 1.80317474,19.6825676 1.60423394,19.6825676 C1.56002487,19.6825676 1.53792067,19.6438853 1.53792067,19.5665194 C1.53792067,19.4891536 1.63738957,19.2957417 1.83633037,18.9862783 C4.70991962,14.6316854 6.87613132,8.71881171 8.33503047,1.24747962 C9.24131631,1.55694307 10.2415314,1.97139685 11.3357058,2.49085336 C12.4298801,3.01030988 13.1261625,3.36950314 13.4245737,3.56844394 C13.7229848,3.76738473 13.8721882,3.9497444 13.8721882,4.11552838 C13.8721882,4.28131239 13.7285109,4.39183339 13.441152,4.44709472 C13.1537931,4.50235606 12.927225,4.6515594 12.761441,4.89470926 C12.595657,5.13785912 12.2751461,5.7346725 11.7998986,6.68516742 C11.3246512,7.63566234 10.6559991,8.77402867 9.79392233,10.1003006 C10.7665218,10.2108234 11.2528142,10.4429174 11.2528142,10.7965899 C11.2528142,11.0397399 11.0428243,11.2497298 10.6228382,11.426566 L10.6228382,30.6242566 C10.6228382,30.9558246 10.5454735,31.1989708 10.3907417,31.3537025 C10.23601,31.5084342 9.80497808,31.6576376 9.09763303,31.801317 C8.39028799,31.9449966 7.78242246,32.0168351 7.27401821,32.0168351 C6.76561396,32.0168351 6.47825935,31.9836789 6.41194575,31.9173652 C6.34563215,31.8510516 6.31247585,31.7184265 6.31247585,31.5194856 L6.41194575,28.4027621 C6.43405028,27.4301627 6.44510238,26.5128384 6.44510238,25.6507616 L6.44510238,14.8416992 L6.44510238,14.8416992 L6.44510238,14.8416992 Z M16.9889117,1.81114238 C17.6299432,1.81114238 18.6080541,2.03218439 19.9232738,2.47427504 C21.2384934,2.9163657 22.188974,3.47449678 22.7747442,4.14868502 C23.3605143,4.82287327 23.653395,5.5467859 23.653395,6.32044445 C23.653395,7.09410318 23.4047227,7.73512491 22.9073708,8.24352918 C22.4100188,8.75193344 21.791101,9.00613174 21.0505993,9.00613174 C20.3100974,9.00613174 19.7298622,8.78508973 19.3098761,8.34299908 C18.8898899,7.90090842 18.6799,7.38145968 18.6799,6.78463732 C18.6799,6.62990561 18.7185823,6.37570731 18.7959482,6.02203475 C18.873314,5.6683622 18.9119965,5.24838248 18.9119965,4.76208273 C18.9119965,4.27578301 18.757267,3.83369899 18.4478036,3.4358174 C18.1383402,3.03793582 17.7570427,2.7174249 17.3038997,2.47427504 C16.8507568,2.23112518 16.6241888,2.05981763 16.6241888,1.96034723 C16.6241888,1.86087684 16.7457619,1.81114238 16.9889117,1.81114238 L16.9889117,1.81114238 L16.9889117,1.81114238 L16.9889117,1.81114238 Z M25.9743593,9.70242103 C26.3501364,8.9950761 26.7038035,8.38168449 27.0353716,7.86222789 C27.3669395,7.34277147 27.5935077,7.01673445 27.7150826,6.88410722 C27.8366575,6.75147999 27.9637566,6.68516742 28.0963838,6.68516742 C28.4279517,6.68516742 29.2402812,7.21014215 30.5333964,8.26010749 C31.8265115,9.31007284 32.4730594,10.0339854 32.4730594,10.431867 C32.4730594,10.6750169 32.1857048,10.7965899 31.610987,10.7965899 L13.706405,10.7965899 C13.2643144,10.7965899 12.8664388,10.9181631 12.5127662,11.1613129 L11.6506938,9.60295113 C12.1812026,9.66926475 12.7338076,9.70242103 13.3085254,9.70242103 L25.9743593,9.70242103 L25.9743593,9.70242103 L25.9743593,9.70242103 Z M21.6971536,29.0327382 C23.1560528,22.423483 23.951804,16.7869118 24.0844312,12.1228553 C25.3443896,12.4323187 26.5711728,12.785986 27.7648175,13.1838675 C28.9584622,13.5817492 29.6547446,13.8525256 29.8536854,13.996205 C30.0526262,14.1398846 30.1520951,14.305666 30.1520951,14.4935545 C30.1520951,14.681443 29.9918397,14.8306465 29.6713239,14.9411691 C29.3508082,15.0516918 29.0579274,15.3224683 28.7926731,15.7535066 C28.5274187,16.1845451 28.21796,16.831093 27.8642874,17.6931696 C26.2948657,21.6719855 24.6702069,25.451804 22.9902623,29.0327382 L26.5711787,29.0327382 C26.9911649,28.2811841 27.3835143,27.623584 27.7482392,27.0599185 C28.1129639,26.4962529 28.3561102,26.1481118 28.4776851,26.0154845 C28.59926,25.8828573 28.7263592,25.8165447 28.8589864,25.8165447 C29.1684498,25.8165447 29.9310447,26.3636238 31.1467941,27.4577981 C32.3625433,28.5519726 32.9704089,29.3090415 32.9704089,29.7290275 C32.9704089,29.9942819 32.6830543,30.1269071 32.1083365,30.1269071 L12.7780193,30.1269071 C12.3359287,30.1269071 11.938053,30.2484802 11.5843805,30.49163 L10.7223081,28.9332683 C11.2528168,28.9995819 11.8054219,29.0327382 12.3801397,29.0327382 L21.6971536,29.0327382 L21.6971536,29.0327382 L21.6971536,29.0327382 Z M12.9769591,12.7528313 C13.264318,12.7528313 14.1153298,13.3330666 15.5300199,14.4935545 C16.94471,15.6540424 18.055446,16.9139819 18.8622615,18.2734107 C19.6690769,19.6328395 20.0724786,21.0309303 20.0724786,22.4677248 C20.0724786,23.4624289 19.7685459,24.3079144 19.1606712,25.0042072 C18.5527965,25.7005 17.8288839,26.0486412 16.9889117,26.0486412 C15.9278942,26.0486412 15.3973933,25.3965673 15.3973933,24.0923998 C15.3973933,23.7608319 15.4526538,23.3132217 15.5631765,22.7495562 C15.6736992,22.1858906 15.7289597,21.3680351 15.7289597,20.2959653 C15.7289597,19.2238955 15.5079177,18.0523729 15.065827,16.7813622 C14.6237363,15.5103515 14.0048187,14.3775114 13.2090555,13.3828073 C12.9880102,13.1396575 12.8774892,12.9738759 12.8774892,12.8854578 C12.8774892,12.7970397 12.9106455,12.7528313 12.9769591,12.7528313 L12.9769591,12.7528313 L12.9769591,12.7528313 L12.9769591,12.7528313 Z M57.6214933,9.60295113 C58.2183157,10.0229373 58.8648636,10.5258079 59.5611563,11.1115779 C60.2574491,11.6973482 60.6774288,12.0952237 60.8211084,12.3052167 C60.9647878,12.5152099 61.0366265,12.6975695 61.0366265,12.8523012 C61.0366265,13.1617646 60.8487408,13.316494 60.4729637,13.316494 L47.6413467,13.316494 L47.4424069,15.7369283 L51.2554197,15.7369283 C52.0511829,14.4548654 52.5540534,13.8138435 52.7640465,13.8138435 C52.9740395,13.8138435 53.4990143,14.08462 54.3389866,14.6261811 C55.1789588,15.1677421 55.8310328,15.598774 56.295228,15.9192897 C56.7594231,16.2398055 56.9915173,16.5326862 56.9915173,16.7979405 C56.9915173,17.063195 56.5825895,17.3284454 55.7647218,17.5936997 L55.7647218,29.3311479 L56.4278545,29.3311479 C56.7152134,28.8227436 57.0688806,28.2756647 57.4888668,27.6898945 C57.9088529,27.1041245 58.1685772,26.7670353 58.2680476,26.6786172 C58.3675181,26.5901991 58.4725129,26.5459907 58.5830357,26.5459907 C58.6935582,26.5459907 59.0472256,26.789137 59.6440479,27.2754366 C60.2408703,27.7617364 60.8211056,28.2867111 61.3847712,28.8503767 C61.9484367,29.4140422 62.2302653,29.817444 62.2302653,30.0605938 C62.2302653,30.3037438 61.976067,30.4253168 61.4676627,30.4253168 L32.4556087,30.4253168 C32.0135181,30.4253168 31.6156425,30.5468899 31.2619699,30.7900397 L30.3998975,29.231678 C30.9304062,29.2979916 31.4830113,29.3311479 32.0577291,29.3311479 L36.6333445,29.3311479 L36.6333445,17.29529 C36.6333445,16.1900634 36.6112402,15.2064265 36.5670312,14.3443497 C38.1806621,14.7643358 39.4184973,15.228524 40.2805742,15.7369283 L43.4636109,15.7369283 L43.6625507,13.316494 L33.4834644,13.316494 C33.0413737,13.316494 32.6434981,13.4380672 32.2898256,13.681217 L31.4277531,12.1228553 C31.9582619,12.1891689 32.5108669,12.2223252 33.0855848,12.2223252 L43.7620206,12.2223252 C43.7841251,11.9128617 43.7951773,11.5260383 43.7951773,11.061843 C43.7951773,10.5976479 43.7841251,10.1003032 43.7620206,9.5697945 L37.8269833,9.5697945 C37.8048788,9.72452621 37.710936,9.86267751 37.5451519,9.98425242 C37.3793679,10.1058273 36.8543932,10.2716089 35.9702119,10.4816019 C35.0860305,10.6915951 34.5334255,10.7965899 34.3123802,10.7965899 C34.0913349,10.7965899 33.991866,10.7081732 34.0139705,10.5313369 C34.1023886,9.75767831 34.146597,8.60825982 34.146597,7.08304702 L34.146597,5.12680569 C34.146597,3.7784292 34.1244927,2.62901075 34.0802838,1.67851585 C35.3844512,1.9879793 36.688599,2.40795912 37.9927665,2.93846791 L53.7090106,2.93846791 C54.3279374,1.72271861 54.7865996,1.11485308 55.0850109,1.11485308 C55.383422,1.11485308 56.1791733,1.5016766 57.4722884,2.27533524 C58.7654036,3.04899389 59.4119515,3.57949471 59.4119515,3.86685364 C59.4119515,4.08789896 59.03618,4.38630568 58.284626,4.76208273 L58.284626,6.45307099 C58.284626,7.20462506 58.2956781,7.71302182 58.3177826,7.97827611 L58.3509392,8.77403531 C58.3509392,9.08349873 58.1077929,9.35980133 57.6214933,9.60295113 L57.6214933,9.60295113 L57.6214933,9.60295113 L57.6214933,9.60295113 Z M51.6532993,4.0326368 C51.6311949,4.25368213 51.4654133,4.44156784 51.1559498,4.59629956 L51.1559498,8.47562561 L54.2063601,8.47562561 L54.2063601,4.0326368 L51.6532993,4.0326368 L51.6532993,4.0326368 L51.6532993,4.0326368 Z M44.9225028,4.0326368 C44.9003983,4.23157759 44.7456689,4.386307 44.4583099,4.49682966 L44.4583099,8.47562561 L47.6745034,8.47562561 L47.6745034,4.0326368 L44.9225028,4.0326368 L44.9225028,4.0326368 L44.9225028,4.0326368 Z M38.3243328,4.0326368 C38.2580192,4.36420479 38.0922376,4.5852468 37.8269833,4.69576946 L37.8269833,8.47562561 L41.0431767,8.47562561 L41.0431767,4.0326368 L38.3243328,4.0326368 L38.3243328,4.0326368 L38.3243328,4.0326368 Z M56.6267943,10.0008307 C56.3836445,10.0671443 55.9912949,10.1445091 55.4497338,10.2329272 C54.9081728,10.3213453 54.5821357,10.3655537 54.4716131,10.3655537 C54.3610904,10.3655537 54.2892518,10.3047671 54.256095,10.1831922 C54.2229382,10.0616173 54.2063601,9.85715344 54.2063601,9.5697945 L45.6851054,9.5697945 C47.0776909,9.76873535 47.9121246,9.92346479 48.1884312,10.0339874 C48.4647378,10.1445101 48.6028891,10.2992396 48.6028891,10.4981802 C48.6028891,10.7634347 48.3486908,10.9844767 47.8402865,11.1613129 L47.7408166,12.2223252 L55.2673723,12.2223252 C55.6210449,11.5812938 56.0741809,10.8408031 56.6267943,10.0008307 L56.6267943,10.0008307 L56.6267943,10.0008307 L56.6267943,10.0008307 Z M40.4132007,19.0525916 L51.8190825,19.0525916 L51.8190825,16.8310972 L41.0100201,16.8310972 C40.8552884,17.0521425 40.6563505,17.1958198 40.4132007,17.2621334 L40.4132007,19.0525916 L40.4132007,19.0525916 L40.4132007,19.0525916 Z M51.8190825,20.1467605 L40.4132007,20.1467605 L40.4132007,22.4014115 L51.8190825,22.4014115 L51.8190825,20.1467605 L51.8190825,20.1467605 L51.8190825,20.1467605 Z M51.8190825,25.8165447 L51.8190825,23.4955804 L40.4132007,23.4955804 L40.4132007,25.8165447 L51.8190825,25.8165447 L51.8190825,25.8165447 L51.8190825,25.8165447 Z M51.8190825,29.3311479 L51.8190825,26.9107136 L40.4132007,26.9107136 L40.4132007,29.3311479 L51.8190825,29.3311479 L51.8190825,29.3311479 L51.8190825,29.3311479 Z M70.8666959,16.9305671 C70.8666959,17.4168668 70.7009143,18.0689407 70.3693464,18.8868084 C69.5072695,21.0309481 68.9159823,22.672185 68.5954665,23.8105684 C68.2749508,24.9489519 68.0539087,25.9989015 67.9323338,26.9604486 C67.8107589,27.9219958 67.6228732,28.5795957 67.3686711,28.9332683 C67.1144689,29.2869408 66.8326404,29.4637744 66.5231769,29.4637744 C66.2137135,29.4637744 65.9042546,29.297993 65.5947912,28.9664249 C65.2853278,28.634857 64.986921,27.6567461 64.6995621,26.0320629 C64.4122032,24.4073798 64.2685259,22.9429764 64.2685259,21.638809 C64.2685259,20.3346417 64.4066772,18.7928736 64.6829838,17.0134586 C64.9592904,15.2340439 65.4290047,12.8302119 66.0921407,9.80189093 C66.1584543,9.47032303 66.1916106,9.11665571 66.1916106,8.74087867 C66.1916106,7.9009065 66.0589853,7.29856705 65.793731,6.93384217 C65.5284765,6.56911746 65.3958514,6.2209763 65.3958514,5.88940822 C65.3958514,5.42521309 65.6279454,5.19311896 66.0921407,5.19311896 C66.313186,5.19311896 66.54528,5.25943149 66.78843,5.39205872 C67.0315798,5.52468596 67.4570857,5.86730112 68.0649604,6.41991435 C68.6728351,6.97252776 69.0707106,7.40908561 69.2585992,7.72960136 C69.4464877,8.05011711 69.5404305,8.39273228 69.5404305,8.75745699 C69.5404305,9.12218187 69.3525448,9.75767761 68.9767678,10.6639634 C68.2473182,12.432326 67.6560307,14.4659125 67.2028879,16.7647839 C66.7497449,19.0636553 66.5231769,20.9535645 66.5231769,22.4345682 C66.5231769,22.6777181 66.5563332,22.7992911 66.6226468,22.7992911 C66.6889604,22.7992911 66.7773771,22.6777181 66.8878999,22.4345682 C67.5068267,20.9977736 68.1975831,19.6383653 68.9601895,18.3563023 C69.7227959,17.0742395 70.2698747,16.4332176 70.6014428,16.4332176 C70.778279,16.4332176 70.8666959,16.5989992 70.8666959,16.9305671 L70.8666959,16.9305671 L70.8666959,16.9305671 L70.8666959,16.9305671 Z M84.4609155,6.81779395 C84.8366925,6.81779395 85.4777142,7.16040912 86.3840002,7.84564958 C87.290286,8.53089021 87.7434221,9.02823465 87.7434221,9.33769807 C87.7434221,9.64716149 87.1687128,9.87925565 86.0192772,10.0339874 C84.4056463,10.2550327 82.0404968,11.5149722 78.9237577,13.8138435 C77.9953673,14.4769795 77.3211891,14.8085425 76.9012031,14.8085425 C76.6580531,14.8085425 76.5364801,14.6593393 76.5364801,14.360928 C76.5364801,14.0625169 76.8072566,13.5430682 77.3488177,12.8025662 C77.8903787,12.0620645 78.6253433,11.4044644 79.5537338,10.8297466 C79.7305699,10.6971193 79.8189868,10.5976505 79.8189868,10.5313369 C79.8189868,10.4650232 79.6974137,10.4539713 79.4542639,10.4981802 C77.8185285,10.7634347 76.5751671,10.8960598 75.7241426,10.8960598 C74.8731181,10.8960598 74.2984088,10.796591 73.9999977,10.5976501 C73.7015864,10.3987095 73.4418622,9.99530771 73.2208168,9.38743302 C72.9997715,8.77955833 72.8892505,8.29879203 72.8892505,7.94511948 C72.8892505,7.43671521 73.0660841,7.18251692 73.4197566,7.18251692 C73.640802,7.18251692 73.9171044,7.32066822 74.2486725,7.59697483 C74.5802404,7.87328144 74.9228555,8.05564118 75.2765281,8.14405928 C75.6302006,8.23247737 76.2767485,8.27668581 77.2161911,8.27668581 C78.1556337,8.27668581 79.3326825,8.16063881 80.7473726,7.92854116 C82.1620626,7.69644368 83.0738609,7.45329737 83.4827948,7.19909523 C83.8917286,6.9448931 84.2177655,6.81779395 84.4609155,6.81779395 L84.4609155,6.81779395 L84.4609155,6.81779395 L84.4609155,6.81779395 Z M88.837591,26.4465208 C88.837591,26.6896708 88.6939137,26.8941344 88.4065548,27.0599185 C88.1191959,27.2257025 87.1521371,27.385958 85.5053494,27.5406897 C83.8585617,27.6954214 82.4936272,27.7727861 81.4105052,27.7727861 C78.5148113,27.7727861 76.3043912,27.2312332 74.7791786,26.1481111 C73.2539658,25.0649891 72.4913709,23.6724243 72.4913709,21.9703753 C72.4913709,21.0640895 72.6737305,20.1909736 73.0384553,19.3510013 C73.4031801,18.5110291 73.7734255,18.0910492 74.1492026,18.0910492 C74.5249796,18.0910492 74.7128653,18.4005081 74.7128653,19.0194349 C74.7128653,19.3288984 74.6686569,19.6549354 74.5802388,19.9975556 C74.4918207,20.3401759 74.4476123,20.6441088 74.4476123,20.909363 C74.4476123,22.1251124 75.0499517,23.1032233 76.2546488,23.8437251 C77.4593458,24.584227 79.0453222,24.9544723 81.0126256,24.9544723 C82.5157338,24.9544723 83.631996,24.7334303 84.3614456,24.2913396 C84.8477452,24.0039807 85.3008814,23.8603034 85.7208675,23.8603034 C86.1408535,23.8603034 86.7652973,24.1918664 87.5942173,24.8550024 C88.4231373,25.5181384 88.837591,26.0486393 88.837591,26.4465208 L88.837591,26.4465208 L88.837591,26.4465208 L88.837591,26.4465208 Z M118.230074,16.4995308 C118.230074,18.245789 117.743781,19.8649216 116.771182,21.3569776 C115.798583,22.8490336 113.980512,24.0868688 111.316916,25.0705205 C108.65332,26.0541722 105.818456,26.5459907 102.81224,26.5459907 C102.126999,26.5459907 101.668337,26.5128344 101.436239,26.4465208 C101.204142,26.3802072 101.021782,26.2641602 100.889155,26.0983761 C100.756528,25.9325921 100.690215,25.7502325 100.690215,25.5512917 C100.690215,25.0428874 101.077038,24.7555328 101.850697,24.6892192 C106.426335,24.2250241 109.708809,23.346382 111.698217,22.0532669 C113.687625,20.7601517 114.682314,18.9310291 114.682314,16.5658441 C114.682314,15.0406315 114.168391,13.8193742 113.140531,12.9020361 C112.11267,11.984698 110.714579,11.5260359 108.946217,11.5260359 C107.575736,11.5260359 105.569779,11.9128595 102.928288,12.686518 C100.286796,13.4601767 97.8829642,14.3885532 95.71672,15.4716752 C95.097793,15.7811386 94.5783443,15.9358681 94.1583583,15.9358681 C93.4289087,15.9358681 92.7989389,15.4606278 92.2684302,14.5101328 C91.7379215,13.5596379 91.472671,12.802569 91.472671,12.2389035 C91.472671,11.6752379 91.6716087,11.3934093 92.0694904,11.3934093 C92.423163,11.3934093 92.7934082,11.6033994 93.1802376,12.0233854 C93.5670668,12.4433715 93.904156,12.6533614 94.1915149,12.6533614 C94.4788739,12.6533614 94.8656973,12.5538925 95.3519971,12.3549517 C101.298116,10.0781848 106.028415,8.93981847 109.543036,8.93981847 C112.151371,8.93981847 114.25127,9.65820509 115.842796,11.0949996 C117.434323,12.5317943 118.230074,14.3332867 118.230074,16.4995308 L118.230074,16.4995308 L118.230074,16.4995308 L118.230074,16.4995308 Z M132.668915,17.4942298 C132.912065,17.4942298 133.033638,17.6047508 133.033638,17.8257962 C133.033638,18.0468415 132.934169,18.4336651 132.735229,18.9862783 L132.005783,21.0751462 C131.232124,23.1971814 130.76241,24.5400116 130.596626,25.1036771 C130.430842,25.6673427 130.347951,26.0486403 130.347951,26.247581 C130.347951,26.4465218 130.370055,26.6178294 130.414264,26.7615088 C130.458473,26.9051883 130.480578,27.1207042 130.480578,27.4080631 C130.480578,27.6954221 130.381109,27.9496204 130.182168,28.1706657 C129.983227,28.391711 129.729029,28.502232 129.419565,28.502232 C128.844847,28.502232 128.065674,28.1817212 127.082023,27.5406897 C126.098371,26.8996583 125.208677,25.5291978 124.412914,23.4292672 C123.61715,21.3293366 123.219275,18.7984055 123.219275,15.8363982 C123.219275,14.2006628 123.302166,12.913093 123.46795,11.9736504 C123.633733,11.0342078 123.716624,10.4429205 123.716624,10.1997705 C123.716624,9.60294817 123.539791,9.09455158 123.186118,8.67456541 C122.832446,8.25457941 122.655612,7.90091209 122.655612,7.61355315 C122.655612,7.21567163 122.90981,7.01673375 123.418215,7.01673375 C123.749783,7.01673375 124.34107,7.19356732 125.192095,7.54723988 C126.043119,7.90091244 126.595724,8.20484516 126.849926,8.45904729 C127.104128,8.71324943 127.231227,9.04481244 127.231227,9.45374629 C127.231227,9.86268013 127.054394,10.4539676 126.700721,11.2276262 C126.192317,12.2444347 125.938119,13.9685623 125.938119,16.4000609 C125.938119,18.6989323 126.175739,20.5943675 126.650986,22.0864235 C127.126234,23.5784795 127.55174,24.3244963 127.927517,24.3244963 C128.060144,24.3244963 128.214873,24.1918711 128.39171,23.9266167 L130.115855,21.2409294 C130.668468,20.3567481 131.149234,19.5665229 131.558168,18.8702301 C131.967102,18.1739373 132.2213,17.7705357 132.320771,17.660013 C132.420241,17.5494904 132.536288,17.4942298 132.668915,17.4942298 L132.668915,17.4942298 L132.668915,17.4942298 L132.668915,17.4942298 Z M147.456774,19.8483508 C147.456774,21.5725044 147.241258,22.6887665 146.810219,23.1971707 C146.379181,23.705575 145.843154,23.9597733 145.202123,23.9597733 C144.870555,23.9597733 144.5832,23.816096 144.34005,23.5287371 C144.0969,23.2413781 143.975327,22.9484975 143.975327,22.6500863 C143.975327,22.3516752 143.986379,22.1361592 144.008484,22.0035319 C144.119006,21.296187 144.174267,20.5114878 144.174267,19.649411 C144.174267,17.4610624 143.765339,15.4274758 142.947472,13.5485905 C142.129604,11.6697053 140.924925,10.5534431 139.333399,10.1997705 C138.449217,10.0008299 138.007133,9.69137098 138.007133,9.2713848 C138.007133,9.09454861 138.106602,8.91218888 138.305543,8.72430036 C138.504484,8.53641184 138.791838,8.44246897 139.167615,8.44246897 C140.272842,8.44246897 141.488573,8.77955815 142.814845,9.45374629 C144.141117,10.1279346 145.246327,11.4762908 146.130508,13.4988555 C147.01469,15.5214203 147.456774,17.6378975 147.456774,19.8483508 L147.456774,19.8483508 L147.456774,19.8483508 L147.456774,19.8483508 Z M173.500437,4.79523936 C173.942527,4.79523936 174.644335,5.21521918 175.605883,6.05519139 C176.56743,6.89516373 177.048196,7.55828976 177.048196,8.04458938 C177.048196,8.28773936 176.915572,8.49772922 176.650317,8.67456541 C176.385062,8.85140177 175.865614,8.92876649 175.091955,8.90666184 L174.263039,8.87350521 C172.339945,8.87350521 170.70976,9.24375067 169.372436,9.98425242 C168.035112,10.7247543 166.697807,11.6531308 165.360483,12.7694096 C164.023159,13.8856886 162.978735,15.0793153 162.227181,16.350326 C161.475627,17.6213367 161.099856,18.864698 161.099856,20.0804472 C161.099856,21.5393464 161.558518,22.7384993 162.475856,23.6779419 C163.393194,24.6173845 164.492878,25.0870988 165.774941,25.0870988 C166.150718,25.0870988 166.587276,25.0207862 167.084628,24.888159 C167.58198,24.7555318 167.985382,24.6892192 168.294845,24.6892192 C168.891668,24.6892192 169.654263,25.0594647 170.582653,25.7999664 C171.511043,26.5404683 171.975232,27.1428078 171.975232,27.6070029 C171.975232,28.314348 170.682136,28.6680152 168.095905,28.6680152 C166.062288,28.6680152 164.2829,28.3032959 162.757688,27.5738463 C161.232475,26.8443967 160.094108,25.8165514 159.342554,24.4902794 C158.591,23.1640075 158.215229,21.7603907 158.215229,20.279387 C158.215229,18.1794565 158.95572,16.1292918 160.436723,14.1288316 C161.917727,12.1283715 163.973418,10.4318739 166.603857,9.03928837 C166.802798,8.9287658 166.902267,8.84034892 166.902267,8.77403531 C166.902267,8.70772169 166.847006,8.67456541 166.736484,8.67456541 C166.404915,8.67456541 164.758153,8.93981585 161.796145,9.4703246 C158.834138,10.0008334 156.745291,10.4871258 155.529542,10.9292165 C154.88851,11.1502618 154.41327,11.2607828 154.103806,11.2607828 C153.462775,11.2607828 152.827279,10.6860736 152.1973,9.53663787 C151.567321,8.38720228 151.252336,7.64118536 151.252336,7.29856513 C151.252336,6.9559449 151.384961,6.78463732 151.650215,6.78463732 C151.91547,6.78463732 152.302293,6.93936676 152.810698,7.24883018 C153.319102,7.5582936 153.728029,7.75170549 154.037493,7.82907126 C154.346956,7.9064372 154.73378,7.94511948 155.197975,7.94511948 C155.66217,7.94511948 156.933162,7.77933806 159.010988,7.44776998 L162.724531,6.91726385 C164.691834,6.65200956 166.371754,6.43649354 167.764339,6.2707095 C169.156925,6.10492547 170.146088,5.96124818 170.731858,5.83967327 C171.317628,5.71809837 171.859181,5.5136345 172.356533,5.22627559 C172.853885,4.93891667 173.235182,4.79523936 173.500437,4.79523936 L173.500437,4.79523936 L173.500437,4.79523936 L173.500437,4.79523936 Z M180.744288,20.4120135 C182.51265,20.9867314 183.943898,21.5282843 185.038072,22.0366886 C186.132247,22.5450928 187.02194,23.0811197 187.707181,23.6447853 C188.392423,24.2084508 188.82898,24.7057954 189.016868,25.1368338 C189.204757,25.5678723 189.2987,26.1094251 189.2987,26.7615088 C189.2987,27.4135926 189.11634,28.0601405 188.751615,28.7011718 C188.386891,29.3422033 187.939281,29.6627142 187.408772,29.6627142 C186.878264,29.6627142 186.458283,29.5024588 186.14882,29.181943 C185.839357,28.8614273 185.458059,28.1761971 185.004916,27.1262318 C184.551773,26.0762664 183.932855,25.0760514 183.148144,24.1255565 C182.363433,23.1750615 181.385323,22.2135288 180.213782,21.2409294 L180.744288,20.4120135 L180.744288,20.4120135 L180.744288,20.4120135 Z M214.604191,3.7342271 L227.900001,3.7342271 C228.651556,2.29743248 229.182056,1.57904595 229.49152,1.57904595 C229.712564,1.57904595 230.491738,2.09296863 231.829062,3.12082939 C233.166386,4.14869016 233.835038,4.82839434 233.835038,5.15996233 C233.835038,5.44732123 233.404008,5.73467581 232.54193,6.02203475 L232.54193,26.6123039 C232.54193,28.026994 232.381675,28.9885268 232.061159,29.496931 C231.740644,30.0053353 231.099621,30.4308412 230.138074,30.7734614 C229.176526,31.1160816 228.518927,31.2873892 228.165254,31.2873892 C227.678955,31.2873892 227.413705,31.0000346 227.369495,30.4253168 C227.303182,29.4969265 227.026879,28.8338005 226.540579,28.4359188 C226.05428,28.0380372 225.302737,27.7396305 224.285928,27.5406897 C223.888047,27.4522716 223.689109,27.3638547 223.689109,27.2754366 C223.689109,27.1870185 224.125666,27.1372841 224.998796,27.1262318 C225.871925,27.1151796 226.662151,27.0433409 227.369495,26.9107136 C228.076841,26.7780864 228.430507,26.4907318 228.430507,26.0486412 L228.430507,18.9531217 L223.125446,18.9531217 L223.125446,24.3576529 L223.158603,27.7727861 C223.158603,28.060145 223.086764,28.2922392 222.943085,28.4690754 C222.799405,28.6459118 222.445738,28.8227453 221.882072,28.9995815 C221.318408,29.1764179 220.688437,29.2648346 219.992144,29.2648346 C219.295851,29.2648346 218.94771,28.9664279 218.94771,28.3696055 L219.014023,26.9770269 C219.036128,26.0486366 219.04718,25.1755206 219.04718,24.3576529 L219.04718,18.9531217 L213.941059,18.9531217 C213.720014,21.3625158 213.19504,23.3408417 212.366119,24.888159 C211.537199,26.4354763 210.210946,27.9606662 208.387323,29.4637744 C206.563699,30.9668827 205.508224,31.7184254 205.220864,31.7184254 C205.154551,31.7184254 205.121394,31.6797432 205.121394,31.6023772 C205.121394,31.5250115 205.231916,31.375808 205.452961,31.1547627 C206.933964,29.673759 208.022596,28.0601524 208.718889,26.3138942 C209.415182,24.5676363 209.868318,22.6114145 210.078311,20.4451702 C210.288304,18.278926 210.393299,15.6595782 210.393299,12.5870481 C210.393299,9.51451821 210.349091,6.03310645 210.260672,2.14270871 C211.896408,2.6069039 213.344234,3.13740472 214.604191,3.7342271 L214.604191,3.7342271 L214.604191,3.7342271 L214.604191,3.7342271 Z M214.305782,10.69712 L219.04718,10.69712 L219.04718,4.828396 L214.637348,4.828396 C214.416303,4.93891866 214.305782,5.43626315 214.305782,6.32044445 L214.305782,10.69712 L214.305782,10.69712 L214.305782,10.69712 Z M223.125446,10.69712 L228.430507,10.69712 L228.430507,4.828396 L223.722265,4.828396 C223.766475,5.04944132 223.567537,5.31469174 223.125446,5.62415516 L223.125446,10.69712 L223.125446,10.69712 L223.125446,10.69712 Z M219.04718,11.7912889 L214.272625,11.7912889 C214.25052,14.3554147 214.173157,16.3779491 214.040529,17.8589528 L219.04718,17.8589528 L219.04718,11.7912889 L219.04718,11.7912889 L219.04718,11.7912889 Z M228.430507,11.7912889 L223.125446,11.7912889 L223.125446,17.8589528 L228.430507,17.8589528 L228.430507,11.7912889 L228.430507,11.7912889 L228.430507,11.7912889 Z M246.881301,5.25943219 C246.682361,4.94996877 246.582891,4.51893685 246.582891,3.96632353 C246.538683,2.9274105 246.008182,2.07639876 244.991373,1.41326278 C244.748223,1.25853105 244.62665,1.14248401 244.62665,1.06511813 C244.62665,0.987752278 244.93611,0.949069918 245.555036,0.949069918 C249.423329,0.949069918 251.357447,1.83323796 251.357447,3.60160057 C251.357447,4.28684108 251.05904,4.83944611 250.462217,5.25943219 L256.297785,5.25943219 C256.983026,4.1542056 257.430635,3.46897536 257.640629,3.20372097 C257.850622,2.93846658 258.032981,2.80584137 258.187713,2.80584137 C258.452968,2.80584137 259.165828,3.27555566 260.326316,4.21499828 C261.486805,5.15444093 262.067039,5.74572832 262.067039,5.98887812 C262.067039,6.2320281 261.845998,6.35360109 261.403906,6.35360109 L254.242074,6.35360109 C254.927315,6.57464641 255.535181,6.82331872 256.065688,7.09962533 C256.596198,7.37593195 256.861448,7.62460425 256.861448,7.84564958 C256.861448,8.08879956 256.684615,8.21037254 256.330942,8.21037254 C255.97727,8.21037254 255.601497,8.36510198 255.203616,8.67456541 C254.805735,8.98402883 253.965776,9.75767587 252.683712,10.9955297 L259.182412,10.9955297 C260.022385,9.66925777 260.536307,8.90666289 260.724195,8.70772204 C260.912084,8.50878137 261.111022,8.40931234 261.321015,8.40931234 C261.531008,8.40931234 261.868098,8.61930237 262.332292,9.03928837 L264.089594,10.5313369 C264.774835,11.1060547 265.117449,11.5094565 265.117449,11.741554 C265.117449,11.9736516 264.896408,12.0896986 264.454317,12.0896986 L235.574889,12.0896986 C235.1328,12.0896986 234.734923,12.2112718 234.38125,12.4544216 L233.519178,10.8960598 C234.049688,10.9623734 234.602292,10.9955297 235.17701,10.9955297 L243.399855,10.9955297 C243.046183,10.8186935 242.847245,10.3821355 242.803035,9.68584272 C242.758827,8.98954993 242.587519,8.39273647 242.289107,7.89538453 C241.990696,7.39803259 241.543087,6.88410983 240.946264,6.35360109 L237.066938,6.35360109 C236.624848,6.35360109 236.226972,6.47517424 235.873299,6.71832405 L235.011226,5.15996233 C235.541736,5.22627593 236.09434,5.25943219 236.669058,5.25943219 L246.881301,5.25943219 L246.881301,5.25943219 L246.881301,5.25943219 Z M251.788483,6.35360109 L243.532481,6.35360109 C244.593499,6.66306451 245.405829,7.06646626 245.969494,7.5638182 C246.53316,8.06117014 246.814988,8.58614504 246.814988,9.13875827 C246.814988,10.0008351 246.461322,10.6197527 245.753976,10.9955297 L250.694314,10.9955297 C251.202719,9.49242158 251.567438,7.9451275 251.788483,6.35360109 L251.788483,6.35360109 L251.788483,6.35360109 L251.788483,6.35360109 Z M242.537782,21.1414595 C242.559887,21.2519822 242.570939,21.3846074 242.570939,21.5393391 C242.570939,21.6940708 242.471471,21.8266961 242.272529,21.9372187 C242.073589,22.0477414 241.775181,22.1582624 241.3773,22.268785 C243.27829,22.4456214 244.499547,22.6169288 245.041108,22.7827128 C245.582669,22.9484969 245.853445,23.1198044 245.853445,23.2966406 C245.853445,23.473477 245.632404,23.6503106 245.190313,23.8271468 L245.190313,26.512834 C245.190313,27.0212383 245.223469,27.3859576 245.289783,27.6070029 C245.356096,27.8280483 245.472144,27.9772517 245.637927,28.0546175 C245.803712,28.1319834 246.278952,28.198296 247.063663,28.2535573 C247.848374,28.3088186 248.743594,28.3364489 249.74935,28.3364489 C250.755106,28.3364489 251.550858,28.2480322 252.136627,28.0711958 C252.722399,27.8943596 253.147903,27.5572704 253.413158,27.0599185 C253.678413,26.5625665 253.998924,25.6286641 254.3747,24.258183 C254.507328,23.7718834 254.628902,23.5287371 254.739423,23.5287371 C254.849946,23.5287371 254.94389,23.9431908 255.021255,24.7721108 C255.098621,25.6010308 255.258876,26.2586309 255.502026,26.7449305 C255.745176,27.2312303 256.120947,27.6733143 256.629351,28.0711958 C257.137756,28.4690775 257.391954,28.8669531 257.391954,29.2648346 C257.391954,29.9058661 256.800666,30.441893 255.618074,30.8729313 C254.435482,31.3039698 252.352161,31.5194856 249.368049,31.5194856 C248.240718,31.5194856 246.90894,31.4752772 245.372674,31.3868591 C243.836411,31.298441 242.791985,31.0331906 242.239372,30.5910999 C241.68676,30.1490093 241.410457,29.2095808 241.410457,27.7727861 L241.410457,24.9213156 C241.410457,24.0371343 241.3773,23.1640185 241.310987,22.3019416 C240.515224,22.4566733 239.70842,22.5340381 238.890553,22.5340381 C238.647403,22.5340381 238.52583,22.4456214 238.52583,22.268785 L238.592143,20.8098931 C238.636353,20.1467572 238.658456,19.5388917 238.658456,18.9862783 L238.658456,15.4053619 C238.658456,14.4327625 238.625299,13.4712298 238.558986,12.5207349 C240.393663,12.8523029 241.797279,13.2170222 242.769879,13.6149037 L254.308387,13.6149037 C254.66206,13.084395 254.89968,12.752832 255.021255,12.6202048 C255.142829,12.4875775 255.269929,12.421265 255.402556,12.421265 C255.601497,12.421265 256.209363,12.631255 257.226171,13.051241 C258.24298,13.4712272 258.922684,13.791738 259.265304,14.0127833 C259.607925,14.2338287 259.779231,14.4659228 259.779231,14.7090726 C259.779231,14.9522226 259.45872,15.1622125 258.817689,15.3390487 L258.817689,18.1242059 C258.817689,19.0968053 258.828742,19.7820356 258.850846,20.1799171 L258.884002,21.3072426 C258.884002,21.484079 258.779007,21.6332823 258.569014,21.7548572 C258.359021,21.8764321 257.784312,22.0587918 256.844869,22.3019416 C255.905427,22.5450916 255.258879,22.6666646 254.905206,22.6666646 C254.684162,22.6666646 254.57364,22.4124663 254.57364,21.904062 L254.57364,21.1414595 L242.537782,21.1414595 L242.537782,21.1414595 L242.537782,21.1414595 Z M242.537782,16.8310972 L254.57364,16.8310972 L254.57364,14.7090726 L243.068288,14.7090726 C242.97987,14.885909 242.803037,15.0185341 242.537782,15.1069522 L242.537782,16.8310972 L242.537782,16.8310972 L242.537782,16.8310972 Z M254.57364,17.9252661 L242.537782,17.9252661 L242.537782,20.0472906 L254.57364,20.0472906 L254.57364,17.9252661 L254.57364,17.9252661 L254.57364,17.9252661 Z M246.383952,21.6719656 C247.975479,21.6719656 249.312782,21.9151119 250.395904,22.4014115 C251.479027,22.8877113 252.020579,23.7055668 252.020579,24.8550024 C252.020579,25.4518247 251.805063,25.9602215 251.374025,26.3802075 C250.942987,26.8001937 250.395908,27.0101835 249.732772,27.0101835 C248.760172,27.0101835 248.207568,26.5459954 248.07494,25.6176049 C247.942313,24.6892147 247.76548,23.976354 247.544434,23.4790021 C247.323389,22.9816502 246.997351,22.5948266 246.566313,22.3185199 C246.135275,22.0422133 245.919759,21.8653798 245.919759,21.7880138 C245.919759,21.710648 246.074489,21.6719656 246.383952,21.6719656 L246.383952,21.6719656 L246.383952,21.6719656 L246.383952,21.6719656 Z M237.431661,22.9650743 C237.608497,22.9650743 237.995322,23.4292626 238.592143,24.3576529 C239.188966,25.2860433 239.487372,26.2807324 239.487372,27.3417499 C239.487372,28.4027675 239.194492,29.2482531 238.608721,29.8782323 C238.022952,30.5082115 237.321143,30.8231964 236.503275,30.8231964 C235.906454,30.8231964 235.370426,30.6574149 234.895178,30.3258469 C234.419932,29.994279 234.182311,29.5356168 234.182311,28.9498466 C234.182311,28.3640765 234.475192,27.8612059 235.060961,27.4412198 C235.646733,27.0212338 236.116447,26.6012539 236.470118,26.1812677 C236.823791,25.7612817 237.050359,25.363406 237.149829,24.9876289 C237.249301,24.6118519 237.299034,24.070299 237.299034,23.3629539 C237.299034,23.0976996 237.343242,22.9650743 237.431661,22.9650743 L237.431661,22.9650743 L237.431661,22.9650743 L237.431661,22.9650743 Z M256.861448,23.2966406 C257.126702,23.2966406 257.784303,23.4071616 258.834267,23.628207 C259.884233,23.8492523 260.790505,24.1752893 261.553111,24.6063276 C262.315717,25.0373661 262.890426,25.5402366 263.277256,26.1149544 C263.664086,26.6896723 263.857497,27.3141161 263.857497,27.9883042 C263.857497,28.6624925 263.592248,29.2372017 263.061738,29.7124491 C262.53123,30.1876966 261.967573,30.4253168 261.37075,30.4253168 C260.773929,30.4253168 260.365001,30.3203219 260.143954,30.1103287 C259.92291,29.9003357 259.757128,29.5521946 259.646605,29.0658948 C259.38135,27.8059365 259.093995,26.8609818 258.784532,26.2310027 C258.475069,25.6010235 257.878255,24.7997462 256.994074,23.8271468 C256.773029,23.5839969 256.662508,23.4347935 256.662508,23.3795322 C256.662508,23.3242709 256.728821,23.2966406 256.861448,23.2966406 L256.861448,23.2966406 L256.861448,23.2966406 L256.861448,23.2966406 Z M265.729974,20.4120135 C267.498338,20.9867314 268.929584,21.5282843 270.023758,22.0366886 C271.117933,22.5450928 272.007628,23.0811197 272.692867,23.6447853 C273.378109,24.2084508 273.814666,24.7057954 274.002554,25.1368338 C274.190444,25.5678723 274.284386,26.1094251 274.284386,26.7615088 C274.284386,27.4135926 274.102026,28.0601405 273.737301,28.7011718 C273.372577,29.3422033 272.924967,29.6627142 272.394458,29.6627142 C271.86395,29.6627142 271.443971,29.5024588 271.134506,29.181943 C270.825043,28.8614273 270.443745,28.1761971 269.990602,27.1262318 C269.537459,26.0762664 268.918541,25.0760514 268.13383,24.1255565 C267.349119,23.1750615 266.371009,22.2135288 265.199468,21.2409294 L265.729974,20.4120135 L265.729974,20.4120135 L265.729974,20.4120135 Z M291.286758,12.8191446 C293.651945,13.3275488 295.619219,13.9133101 297.188639,14.5764461 C298.758061,15.2395821 299.808011,15.8308696 300.338519,16.350326 C300.869029,16.8697826 301.134278,17.5218565 301.134278,18.3065673 C301.134278,19.0912782 301.023759,19.721248 300.802712,20.1964954 C300.581667,20.6717429 300.222474,20.909363 299.725121,20.909363 C299.22777,20.909363 298.525961,20.351232 297.619675,19.2349531 C296.713391,18.1186743 295.768436,17.1847716 294.784783,16.4332176 C293.801132,15.6816635 292.624084,14.9964333 291.253602,14.3775063 C291.231498,17.4058273 291.24255,20.119118 291.286758,22.5174597 C291.330968,24.9158015 291.353072,26.2365276 291.353072,26.4796774 C291.353072,27.6733221 291.203868,28.7674802 290.905457,29.7621841 C290.607047,30.7568881 290.159436,31.2542326 289.562613,31.2542326 C288.965792,31.2542326 288.42424,30.745836 287.937938,29.7290275 C287.451639,28.7122189 287.208492,27.9938325 287.208492,27.5738463 C287.208492,27.1538603 287.307962,26.6233594 287.506902,25.9823279 C287.860575,24.8549968 288.037408,23.119817 288.037408,20.7767365 L288.136878,7.11620365 C288.136878,6.43096319 288.09267,5.88388415 288.004252,5.47495031 C287.915835,5.0660165 287.661635,4.58525012 287.241649,4.0326368 C286.821664,3.48002349 286.611673,3.00478316 286.611673,2.60690158 C286.611673,2.20901999 286.910081,2.01008218 287.506902,2.01008218 C288.103725,2.01008218 289.026575,2.23112419 290.275481,2.67321484 C291.524388,3.11530549 292.148831,3.65685842 292.148831,4.29788987 C292.148831,4.60735332 292.027258,5.0439113 291.784108,5.60757684 C291.540958,6.1712424 291.397282,7.18250959 291.353072,8.64140877 C291.308863,10.100308 291.286758,11.4928726 291.286758,12.8191446 L291.286758,12.8191446 L291.286758,12.8191446 L291.286758,12.8191446 Z M297.851772,2.97162454 C299.155941,2.97162454 300.576135,3.26450521 302.112399,3.85027532 C303.648665,4.43604544 304.416785,5.32573953 304.416785,6.51938425 C304.416785,7.00568404 304.25653,7.4643462 303.936014,7.89538453 C303.615499,8.32642303 303.272883,8.54193887 302.908158,8.54193887 C302.543434,8.54193887 302.106876,8.12195916 301.598471,7.28198681 C301.045858,6.37570103 300.13406,5.55231957 298.863049,4.81181768 C297.592038,4.07131585 296.956543,3.57949736 296.956543,3.3363475 C296.956543,3.09319765 297.254951,2.97162454 297.851772,2.97162454 L297.851772,2.97162454 L297.851772,2.97162454 L297.851772,2.97162454 Z M294.867675,5.32574546 C295.420289,5.32574546 296.221566,5.49152705 297.271531,5.82309496 C298.321496,6.15466303 299.255398,6.64648148 300.073266,7.29856513 C300.891134,7.95064896 301.300062,8.56956655 301.300062,9.15533659 C301.300062,9.7411068 301.139807,10.2108209 300.81929,10.5644935 C300.498776,10.9181661 300.145108,11.0949996 299.758278,11.0949996 C299.37145,11.0949996 298.945944,10.7634366 298.481748,10.1003006 C297.619672,8.92876039 296.696821,7.97275379 295.713169,7.23225186 C294.729518,6.49175012 294.237699,5.98887952 294.237699,5.72362506 C294.237699,5.45837077 294.44769,5.32574546 294.867675,5.32574546 L294.867675,5.32574546 L294.867675,5.32574546 L294.867675,5.32574546 Z" id=""></path>
            </g>
        </g>
    </g>
</svg>