<?xml version="1.0" encoding="UTF-8" standalone="no"?>
<svg width="37px" height="37px" viewBox="0 0 37 37" version="1.1" xmlns="http://www.w3.org/2000/svg" xmlns:xlink="http://www.w3.org/1999/xlink" xmlns:sketch="http://www.bohemiancoding.com/sketch/ns">
    <!-- Generator: Sketch 3.3.3 (12081) - http://www.bohemiancoding.com/sketch -->
    <title>Fill 13 + Fill 14 + Fill 15 Copy</title>
    <desc>Created with Sketch.</desc>
    <defs></defs>
    <g id="Page-1" stroke="none" stroke-width="1" fill="none" fill-rule="evenodd" sketch:type="MSPage">
        <g id="Artboard-1" sketch:type="MSArtboardGroup" transform="translate(-84.000000, -90.000000)" fill="#FFFFFF">
            <g id="Fill-13-+-Fill-14-+-Fill-15-Copy" sketch:type="MSLayerGroup" transform="translate(83.000000, 89.000000)">
                <path d="M37.6084071,19.5686262 C37.6084071,29.6806581 29.42918,37.8782552 19.3391764,37.8782552 C9.24917274,37.8782552 1.06994561,29.6806581 1.06994561,19.5686262 C1.06994561,9.45659436 9.24917274,1.25910837 19.3391764,1.25910837 C29.42918,1.25910837 37.6084071,9.45659436 37.6084071,19.5686262 Z M14.8189372,29.3770228 L14.9053726,29.3744685 C12.693956,29.277625 10.9069595,26.2960244 9.24230224,20.2678536 C8.0528181,15.9598755 7.47015483,11.5949241 7.46383839,11.551389 C7.41330693,11.1985546 7.68236483,10.8715969 8.03431206,10.820954 C8.38614848,10.7698669 8.72490878,11.0150851 8.77555106,11.3678085 C8.78164586,11.4106772 9.41007557,15.7044398 10.5789482,19.9338992 C11.9909481,25.0429459 13.6547188,28.0033342 15.1488323,28.0847405 C15.9260861,28.0305437 17.2999657,26.6859525 18.6924623,23.0342219 C18.772138,22.8250979 18.8507055,22.6133084 18.9267244,22.3990756 C18.220946,19.8782587 17.8165835,17.1703074 17.8165835,15.2000099 C17.8165835,13.9732523 17.9592019,12.9893808 18.240117,12.2751604 C18.7402234,11.0042013 19.6038017,10.8218425 20.0739881,10.8144015 C20.4956378,10.807738 21.1505522,10.8922539 21.5573526,11.9859628 C21.7577055,12.524821 21.8803773,13.2324889 21.8803773,14.1547227 C21.8803773,16.1421233 21.2858568,19.4256933 20.2814331,22.4350587 C21.2222492,25.5706982 22.5555707,28.0757447 23.6239345,28.0757447 C24.2719784,28.0757447 25.0687355,27.2416917 25.7316286,26.0938971 C25.1022015,24.6466874 24.7351835,23.0106774 24.7351835,21.8549976 C24.7351835,21.1659877 24.8498766,20.6039181 25.0764925,20.1845594 C25.3800138,19.6222677 25.8863258,19.3125242 26.5016794,19.3125242 C27.1285577,19.3125242 27.6114878,19.6382602 27.9655405,20.1503532 C28.237812,20.5441684 28.3462995,21.0789174 28.3462995,21.7511575 C28.3462995,22.930715 27.8971679,24.6291401 27.1615804,26.1226613 C27.7333839,27.238471 28.4249779,28.0416496 28.9998842,28.0416496 C29.2342571,28.0416496 29.5028717,27.9177077 30.05085,27.3125473 C30.289988,27.0486712 30.6974533,27.0287916 30.9601948,27.2681237 C31.2234903,27.5075669 31.2433262,27.9157087 31.0044098,28.1795848 C30.3779748,28.8713713 29.7973062,29.332155 28.9998842,29.332155 C28.0055446,29.332155 27.1192493,28.5314197 26.4156872,27.4078359 C25.6307873,28.5505219 24.6632648,29.3661391 23.6239345,29.3661391 C21.9980624,29.3661391 20.3859313,27.1774996 19.3605636,24.3701505 C18.2088673,27.1233028 16.3703419,29.2821785 14.8189372,29.3739132 L14.8189372,29.3770228 Z M19.4381338,12.7484938 C19.219829,13.3033445 19.104471,14.1511688 19.104471,15.2000099 C19.104471,16.698862 19.3176783,18.3805172 19.6656363,20.021969 C20.2435345,17.877531 20.5448394,15.7325377 20.5928222,14.1547227 C20.6691735,11.6442343 19.6914561,12.1047959 19.4381338,12.7484938 Z M26.0226278,21.8358955 C26.0708321,22.7208135 26.2031448,23.5998454 26.4883816,24.4853187 C26.8361179,23.5588646 27.0178539,22.5868763 27.0587445,21.7511575 C27.1324362,20.2434206 25.9379654,20.2800701 26.0226278,21.8358955 Z M26.5022334,13.6740594 C25.4983638,13.6740594 24.6792221,14.5832993 24.6767842,15.7038845 C24.6762301,16.2110909 24.8420088,16.7447294 25.1316782,17.1740834 C25.483293,17.6951722 25.9817372,17.9875905 26.4980225,17.9875905 L26.5012361,17.9875905 C27.5743649,17.9875905 28.3242474,16.7878202 28.3260205,15.7052172 C28.3275719,14.5837436 27.5104249,13.6759474 26.5022334,13.6740594 Z M26.5487756,16.6971961 L26.5476674,16.6971961 C26.3765697,16.6971961 26.2113451,16.5337173 26.0947681,16.3610206 C25.9988026,16.218754 25.9438386,16.0086304 25.9439494,15.8404871 C25.9448359,15.4691058 26.1531674,15.1511439 26.549108,15.1511439 C26.9371808,15.1511439 27.154045,15.5107529 27.1536018,15.8824674 C27.1529369,16.241299 26.9043797,16.6971961 26.5487756,16.6971961 Z" id="Fill-13" sketch:type="MSShapeGroup"></path>
            </g>
        </g>
    </g>
</svg>