<?xml version="1.0" encoding="UTF-8" standalone="no"?>
<svg width="332px" height="332px" viewBox="0 0 332 332" version="1.1" xmlns="http://www.w3.org/2000/svg" xmlns:xlink="http://www.w3.org/1999/xlink" xmlns:sketch="http://www.bohemiancoding.com/sketch/ns">
    <!-- Generator: Sketch 3.3.3 (12081) - http://www.bohemiancoding.com/sketch -->
    <title>logoSymbolBlackBig</title>
    <desc>Created with Sketch.</desc>
    <defs></defs>
    <g id="Page-1" stroke="none" stroke-width="1" fill="none" fill-rule="evenodd" sketch:type="MSPage">
        <g id="symbol-mot-vitt" sketch:type="MSArtboardGroup" transform="translate(-34.000000, 0.000000)">
            <g id="vinnovera_mot_vitt" sketch:type="MSLayerGroup" transform="translate(0.000000, -1.000000)">
                <g id="logoSymbolBlackBig" transform="translate(34.000000, 0.000000)" sketch:type="MSShapeGroup">
                    <path d="M331.15589,166.435693 C331.15589,257.916179 257.160902,332.077354 165.879699,332.077354 C74.5984962,332.077354 0.603508772,257.916179 0.603508772,166.435693 C0.603508772,74.9552075 74.5984962,0.795037736 165.879699,0.795037736 C257.160902,0.795037736 331.15589,74.9552075 331.15589,166.435693" id="Fill-13" fill="#000000"></path>
                    <path d="M166.774937,104.736024 C164.8,109.75559 163.756391,117.425599 163.756391,126.914146 C163.756391,140.473807 165.685213,155.687231 168.833083,170.536948 C174.061153,151.136868 176.786967,131.731764 177.221053,117.45775 C177.911779,94.7461226 169.066667,98.912684 166.774937,104.736024 L166.774937,104.736024 Z M226.342857,186.946991 C226.778947,194.952575 227.97594,202.90491 230.556391,210.915519 C233.702256,202.53417 235.346366,193.740887 235.716291,186.180392 C236.382957,172.540354 225.576942,172.87191 226.342857,186.946991 L226.342857,186.946991 Z M124.986466,255.169283 L125.768421,255.146175 C105.762406,254.270061 89.59599,227.296425 74.5363409,172.761392 C63.7754386,133.78842 58.5042607,94.3000283 58.4471178,93.9061792 C57.9899749,90.7141934 60.4240602,87.7563066 63.6080201,87.2981557 C66.7909774,86.8359858 69.8556391,89.0544009 70.3137845,92.2453821 C70.3689223,92.6332028 76.0541353,131.477571 86.6285714,169.740208 C99.4025063,215.960203 114.454135,242.741939 127.970927,243.478396 C135.002506,242.988094 147.431579,230.823986 160.029073,197.787887 C160.749875,195.896005 161.460652,193.980009 162.148371,192.04191 C155.763409,169.236844 152.105263,144.73883 152.105263,126.914146 C152.105263,115.816042 153.395489,106.915255 155.936842,100.45392 C160.461153,88.9559387 168.273684,87.3061934 172.527318,87.2388774 C176.341855,87.1785943 182.266667,87.943184 185.946867,97.8376368 C187.759398,102.712524 188.869173,109.11458 188.869173,117.45775 C188.869173,135.43716 183.490727,165.142623 174.40401,192.367439 C182.915288,220.734618 194.977444,243.397014 204.642607,243.397014 C210.505263,243.397014 217.713283,235.85159 223.710276,225.46784 C218.01604,212.375373 214.695739,197.574887 214.695739,187.119802 C214.695739,180.886538 215.733333,175.801665 217.783459,172.007854 C220.529323,166.920972 225.109774,164.118816 230.676692,164.118816 C236.34787,164.118816 240.716792,167.065651 243.919799,171.698401 C246.382957,175.261127 247.364411,180.09884 247.364411,186.180392 C247.364411,196.851491 243.301253,212.216627 236.646617,225.728061 C241.819549,235.822453 248.07619,243.088566 253.277193,243.088566 C255.397494,243.088566 257.827569,241.967302 262.784962,236.492599 C264.948371,234.105392 268.634586,233.925547 271.011529,236.090712 C273.393484,238.256882 273.572932,241.949217 271.411529,244.336425 C265.744361,250.594807 260.491228,254.763377 253.277193,254.763377 C244.281704,254.763377 236.263659,247.519368 229.898747,237.354646 C222.797995,247.692179 214.045113,255.070821 204.642607,255.070821 C189.933835,255.070821 175.349373,235.270863 166.073183,209.873627 C155.654135,234.780561 139.021554,254.311255 124.986466,255.141151 L124.986466,255.169283 L124.986466,255.169283 Z" id="Fill-14" fill="#FFFFFF"></path>
                    <path d="M231.102757,140.458736 L231.092732,140.458736 C229.544862,140.458736 228.050125,138.979792 226.995489,137.417458 C226.127318,136.130415 225.630075,134.229491 225.631078,132.708349 C225.639098,129.348575 227.52381,126.472071 231.105764,126.472071 C234.616541,126.472071 236.578446,129.725344 236.574436,133.088132 C236.568421,136.334373 234.319799,140.458736 231.102757,140.458736 L231.102757,140.458736 Z M230.681704,113.109335 C221.6,113.109335 214.189474,121.334953 214.167419,131.472547 C214.162406,136.06109 215.662155,140.888755 218.282707,144.772991 C221.463659,149.487123 225.972932,152.132542 230.643609,152.132542 L230.672682,152.132542 C240.380952,152.132542 247.164912,141.278585 247.180952,131.484604 C247.194987,121.338972 239.802506,113.126415 230.681704,113.109335 L230.681704,113.109335 Z" id="Fill-15" fill="#3FA9F5"></path>
                </g>
            </g>
        </g>
    </g>
</svg>