<?xml version="1.0" encoding="utf-8"?>
<!-- Generator: Adobe Illustrator 17.1.0, SVG Export Plug-In . SVG Version: 6.00 Build 0)  -->
<!DOCTYPE svg PUBLIC "-//W3C//DTD SVG 1.1//EN" "http://www.w3.org/Graphics/SVG/1.1/DTD/svg11.dtd">
<svg version="1.1" id="Layer_1" xmlns="http://www.w3.org/2000/svg" xmlns:xlink="http://www.w3.org/1999/xlink" x="0px" y="0px"
	 viewBox="0 0 150 38" enable-background="new 0 0 150 38" xml:space="preserve">
<g>
	<g>
		<g>
			<path fill="#FFFFFF" d="M48.2,25.2L48.2,25.2l4.5-13.5c0.2-0.6,0.6-0.9,1.1-0.9c0.7,0,1.1,0.5,1.1,1.1c0,0.2,0,0.3-0.1,0.6
				l-5.2,15.3c-0.3,1-0.7,1.4-1.5,1.4c-0.7,0-1.1-0.4-1.4-1.4l-5.2-15.3c-0.1-0.2-0.1-0.4-0.1-0.6c0-0.6,0.5-1.1,1.1-1.1
				c0.6,0,0.9,0.3,1.1,0.9L48.2,25.2z"/>
			<path fill="#FFFFFF" d="M57.8,17.3c0-0.7,0.5-1.2,1.1-1.2s1.1,0.5,1.1,1.2v10.6c0,0.7-0.5,1.2-1.1,1.2s-1.1-0.5-1.1-1.2V17.3z"/>
			<path fill="#FFFFFF" d="M63.3,17.3c0-0.7,0.5-1.2,1.1-1.2c0.6,0,1.1,0.5,1.1,1.2v0.4h0c0.6-1,1.8-1.7,3.6-1.7
				c2.8,0,4.4,1.9,4.4,4.8v7.2c0,0.7-0.5,1.2-1.1,1.2c-0.6,0-1.1-0.5-1.1-1.2v-6.6c0-2-0.9-3.2-2.8-3.2c-1.7,0-2.9,1.2-2.9,3.1v6.8
				c0,0.7-0.5,1.2-1.1,1.2c-0.6,0-1.1-0.5-1.1-1.2V17.3z"/>
			<path fill="#FFFFFF" d="M76.8,17.3c0-0.7,0.5-1.2,1.1-1.2c0.6,0,1.1,0.5,1.1,1.2v0.4h0c0.6-1,1.8-1.7,3.6-1.7
				c2.8,0,4.4,1.9,4.4,4.8v7.2c0,0.7-0.5,1.2-1.1,1.2s-1.1-0.5-1.1-1.2v-6.6c0-2-0.9-3.2-2.8-3.2c-1.7,0-2.9,1.2-2.9,3.1v6.8
				c0,0.7-0.5,1.2-1.1,1.2c-0.6,0-1.1-0.5-1.1-1.2V17.3z"/>
			<path fill="#FFFFFF" d="M90.3,25.9c-0.3-0.9-0.4-1.8-0.4-3.2c0-1.5,0.1-2.3,0.4-3.2c0.7-2.2,2.6-3.4,5-3.4c2.5,0,4.3,1.2,5,3.4
				c0.3,0.9,0.4,1.8,0.4,3.2c0,1.5-0.1,2.4-0.4,3.2c-0.7,2.2-2.6,3.4-5,3.4C92.8,29.3,91,28,90.3,25.9z M98.2,25.2
				c0.2-0.7,0.3-1.4,0.3-2.6c0-1.2-0.1-1.9-0.3-2.6c-0.4-1.3-1.5-2-2.9-2c-1.4,0-2.4,0.7-2.9,2c-0.2,0.7-0.3,1.4-0.3,2.6
				c0,1.2,0.1,1.9,0.3,2.6c0.4,1.3,1.5,2,2.9,2C96.7,27.2,97.8,26.5,98.2,25.2z"/>
			<path fill="#FFFFFF" d="M106.6,27.7l-3.9-10c-0.1-0.2-0.1-0.4-0.1-0.6c0-0.6,0.4-1.1,1.1-1.1c0.5,0,0.9,0.3,1.1,0.8l3.3,8.9h0.1
				l3.2-8.9c0.2-0.5,0.5-0.8,1.1-0.8c0.7,0,1.1,0.5,1.1,1.1c0,0.2,0,0.3-0.1,0.6l-3.9,10c-0.4,1-0.7,1.4-1.5,1.4
				C107.3,29.1,107,28.8,106.6,27.7z"/>
			<path fill="#FFFFFF" d="M115.8,25.8c-0.3-0.8-0.4-1.7-0.4-3.2c0-1.5,0.1-2.4,0.4-3.2c0.7-2.2,2.6-3.4,5-3.4c2.5,0,4.3,1.2,5,3.4
				c0.3,0.9,0.4,1.8,0.4,3.1c0,0.5-0.3,0.9-0.9,0.9h-7.5c-0.1,0-0.2,0.1-0.2,0.2c0,0.6,0.1,1,0.2,1.5c0.5,1.5,1.6,2.2,3.2,2.2
				c1.2,0,2.1-0.4,3.1-1.1c0.3-0.2,0.5-0.3,0.8-0.3c0.5,0,0.9,0.4,0.9,0.9c0,0.3-0.1,0.6-0.3,0.8c-1.1,1-2.6,1.8-4.6,1.8
				C118.3,29.2,116.5,28,115.8,25.8z M123.7,21.4c0.1,0,0.2-0.1,0.2-0.2c0-0.6-0.1-1-0.2-1.4c-0.4-1.3-1.5-2-2.9-2
				c-1.4,0-2.5,0.7-2.9,2c-0.1,0.4-0.2,0.9-0.2,1.4c0,0.1,0.1,0.2,0.2,0.2H123.7z"/>
			<path fill="#FFFFFF" d="M129.4,27.9V17.2c0-0.7,0.5-1.2,1.1-1.2c0.6,0,1.1,0.5,1.1,1.2v0.6h0c0.5-1.1,1.7-1.9,3.3-1.9
				c0.9,0,1.5,0.2,1.9,0.5c0.5,0.2,0.6,0.6,0.6,1c0,0.6-0.5,1.1-1.1,1.1c-0.2,0-0.4-0.1-0.6-0.1c-0.5-0.2-0.9-0.3-1.5-0.3
				c-1.9,0-2.7,1.6-2.7,3.7v6.2c0,0.7-0.5,1.2-1.1,1.2C129.9,29.1,129.4,28.6,129.4,27.9z"/>
			<path fill="#FFFFFF" d="M150,28c0,0.6-0.5,1.1-1.1,1.1c-0.4,0-0.7-0.2-1-0.6l-0.5-0.8h0c-0.9,1-2,1.5-3.9,1.5
				c-2.8,0-4.5-1.4-4.5-3.8c0-2.6,1.8-3.9,5-3.9h2.9c0.1,0,0.2-0.1,0.2-0.2v-0.6c0-1.8-0.8-2.8-3.1-2.8c-1,0-2,0.3-2.6,0.6
				c-0.2,0.1-0.5,0.2-0.6,0.2c-0.6,0-1-0.4-1-1c0-0.3,0.2-0.7,0.5-0.9c0.8-0.5,2.1-1,3.9-1c3.4,0,5,1.6,5,4.8v4.6
				c0,0.7,0.1,0.9,0.2,1.3l0.5,0.8C149.9,27.5,150,27.8,150,28z M147,24.8v-1.4c0-0.1-0.1-0.2-0.2-0.2h-2.6c-2.2,0-3.2,0.6-3.2,2.1
				c0,1.3,1,2,2.7,2C145.7,27.3,147,26.4,147,24.8z"/>
		</g>
		<path fill="#3FA9F5" d="M57.5,12.2c0-0.8,0.7-1.5,1.5-1.5c0.8,0,1.5,0.6,1.5,1.5c0,0.8-0.7,1.5-1.5,1.5
			C58.1,13.7,57.5,13,57.5,12.2z"/>
	</g>
	<g>
		<circle fill="#FFFFFF" cx="18.7" cy="18.7" r="18.7"/>
		<g>
			<path d="M14.5,28.7l-0.1,0c-2.3-0.1-4.2-3.1-5.9-9.3c-1.2-4.4-1.9-8.9-1.9-8.9c-0.1-0.4,0.2-0.7,0.6-0.7c0.4-0.1,0.7,0.2,0.7,0.6
				c0,0,0.6,4.4,1.8,8.8c1.4,5.2,3.1,8.2,4.7,8.3c0.8-0.1,2.2-1.4,3.6-5.2c0.1-0.2,0.2-0.4,0.2-0.6c-0.7-2.6-1.1-5.3-1.1-7.4
				c0-1.3,0.1-2.3,0.4-3c0.5-1.3,1.4-1.5,1.9-1.5c0.4,0,1.1,0.1,1.5,1.2c0.2,0.6,0.3,1.3,0.3,2.2c0,2-0.6,5.4-1.6,8.5
				c1,3.2,2.3,5.8,3.4,5.8c0.7,0,1.5-0.9,2.2-2c-0.6-1.5-1-3.2-1-4.3c0-0.7,0.1-1.3,0.3-1.7c0.3-0.6,0.8-0.9,1.5-0.9
				c0.6,0,1.1,0.3,1.5,0.9c0.3,0.4,0.4,0.9,0.4,1.6c0,1.2-0.5,2.9-1.2,4.5c0.6,1.1,1.3,2,1.9,2c0.2,0,0.5-0.1,1.1-0.7
				c0.2-0.3,0.7-0.3,0.9,0c0.3,0.2,0.3,0.7,0,0.9c-0.6,0.7-1.2,1.2-2.1,1.2c-1,0-1.9-0.8-2.6-2c-0.8,1.2-1.8,2-2.9,2
				c-1.7,0-3.1-2.2-4.2-5.1C17.7,26.4,16.8,28.6,14.5,28.7L14.5,28.7z M25.6,21c0,0.9,0.2,1.8,0.5,2.7c0.4-0.9,0.5-1.9,0.6-2.8
				C26.7,19.4,25.5,19.4,25.6,21z M18.8,11.7c-0.2,0.6-0.3,1.4-0.3,2.5c0,1.5,0.2,3.3,0.6,4.9c0.6-2.2,0.9-4.4,0.9-6
				C20.1,10.6,19.1,11.1,18.8,11.7z"/>
		</g>
	</g>
	<path fill="#3FA9F5" d="M26,12.7c-1,0-1.9,0.9-1.9,2.1c0,0.5,0.2,1.1,0.5,1.5c0.4,0.5,0.9,0.8,1.4,0.8h0c1.1,0,1.9-1.2,1.9-2.3
		C27.9,13.6,27.1,12.7,26,12.7z M26.1,15.8L26.1,15.8c-0.2,0-0.3-0.2-0.5-0.3c-0.1-0.1-0.2-0.4-0.2-0.5c0-0.4,0.2-0.7,0.6-0.7
		c0.4,0,0.6,0.4,0.6,0.7C26.7,15.3,26.5,15.8,26.1,15.8z"/>
</g>
</svg>
