<?xml version="1.0" encoding="UTF-8" standalone="no"?>
<svg width="640px" height="668px" viewBox="0 0 640 668" version="1.1" xmlns="http://www.w3.org/2000/svg" xmlns:xlink="http://www.w3.org/1999/xlink" xmlns:sketch="http://www.bohemiancoding.com/sketch/ns">
    <!-- Generator: Sketch 3.3.1 (12005) - http://www.bohemiancoding.com/sketch -->
    <title>Rectangle 1 + title + Group + Fill 13 + Fill 14 + Fill 15 Copy 2</title>
    <desc>Created with Sketch.</desc>
    <defs></defs>
    <g id="Page-1" stroke="none" stroke-width="1" fill="none" fill-rule="evenodd" sketch:type="MSPage">
        <g id="Artboard-2" sketch:type="MSArtboardGroup" transform="translate(-932.000000, -1068.000000)">
            <g id="Rectangle-1-+-title-+-Group-+-Fill-13-+-Fill-14-+-Fill-15-Copy-2" sketch:type="MSLayerGroup" transform="translate(932.000000, 1066.000000)">
                <path d="M0,87.5816993 L640,87.5816993 L570.560579,670 L69.4394213,670 L0,87.5816993 Z" id="Rectangle-6" fill="#3FA9F5" sketch:type="MSShapeGroup"></path>
                <g id="title-copy-2" transform="translate(79.224122, 234.211339)" sketch:type="MSShapeGroup">
                    <path d="M238.164917,35.9448765 L238.164917,44.0901833 L210.385552,44.0901833 C213.354857,41.5399531 215.202398,38.8248779 215.928228,35.9448765 L238.164917,35.9448765 Z" id="-" fill="#FFFFFF"></path>
                    <path d="M282.480038,66.0959046 L282.480038,42.1842502 L250.945631,42.1203153 C252.907214,40.7563638 254.602251,38.8809587 256.030794,36.4940437 C257.459338,34.1071286 258.173599,31.8054951 258.173599,29.5890739 L258.173599,17.1857024 L250.945631,17.1857024 L250.945631,4.52659126 C253.205715,4.52659126 254.740843,4.37741131 255.551062,4.07904693 C257.000927,3.61018861 257.939061,2.5233061 258.365492,0.818366781 L268.471853,0.946236591 C270.049648,3.16265771 271.861952,4.48396586 273.90882,4.91020069 L294.633258,4.78233088 L294.633258,17.1857024 L272.309712,17.0578326 C269.79377,18.7627719 268.535818,21.746371 268.535818,26.0087193 C268.535818,27.1169298 268.642424,28.3316809 268.855639,29.6530088 L294.633258,29.5890739 L294.633258,78.563211 L250.945631,78.563211 L250.945631,66.0959046 L282.480038,66.0959046 Z M254.143847,59.1909349 C254.143847,57.5712425 255.145945,56.7614085 257.15017,56.7614085 C259.154395,56.7614085 260.156493,57.7630453 260.156493,59.766349 C260.156493,61.4286648 259.261001,62.2598103 257.469991,62.2598103 C255.252551,62.2598103 254.143847,61.236862 254.143847,59.1909349 L254.143847,59.1909349 Z M335.762312,83.294394 L335.762312,78.563211 L304.227905,78.563211 L304.227905,66.4155791 L311.327944,66.4155791 L311.455873,17.1857024 L304.227905,17.1857024 L304.227905,6.31676859 L323.737021,6.31676859 L323.737021,66.0959046 L335.762312,66.1598395 L335.762312,4.78233088 L347.915531,4.78233088 L347.915531,83.294394 L335.762312,83.294394 Z M369.599434,17.1857024 L369.599434,78.563211 L357.510179,78.563211 L357.510179,5.1020054 L375.803972,5.1020054 C376.145117,5.18725237 376.443614,5.22987521 376.699473,5.22987521 C377.637621,5.22987521 378.49047,4.8249582 379.258045,4.01511202 C379.855049,3.41838326 380.153546,2.56592639 380.153546,1.45771583 L380.153546,0.818366781 L390.195943,0.946236591 C390.323872,2.69379939 390.792939,3.80199333 391.603158,4.27085164 C392.242804,4.69708647 393.351508,4.91020069 394.929302,4.91020069 L395.63291,4.91020069 L416.421312,4.78233088 L416.293383,78.563211 L404.459985,78.563211 L404.332056,17.1857024 L394.097766,17.0578326 C391.581824,18.7627719 390.323872,21.746371 390.323872,26.0087193 C390.323872,27.1169298 390.430478,28.3316809 390.643693,29.6530088 L390.643693,47.682652 C390.814266,55.8237372 391.07012,60.9171671 391.411265,62.9630942 C392.136198,69.6549811 393.863217,74.854968 396.592374,78.563211 L380.025617,78.563211 L379.897689,17.1857024 L369.599434,17.1857024 Z M469.703585,4.78233088 L469.639621,78.563211 L426.015959,78.563211 L426.015959,4.78233088 L469.703585,4.78233088 Z M457.230544,66.0959046 L457.230544,17.1857024 L438.297107,17.1857024 L438.297107,66.0959046 L457.230544,66.0959046 Z M445.01336,25.8808495 C445.01336,24.2611571 445.972815,23.4513231 447.891754,23.4513231 C449.938623,23.4513231 450.962041,24.4742713 450.962041,26.5201985 C450.962041,28.0972674 450.045229,28.88579 448.211576,28.88579 C446.079421,28.88579 445.01336,27.8841532 445.01336,25.8808495 L445.01336,25.8808495 Z" id="sumo" fill="#FFFFFF"></path>
                    <path d="M15.8520339,17.1857024 L15.8520339,78.563211 L3.76277857,78.563211 L3.76277857,5.1020054 L22.0565724,5.1020054 C22.3977171,5.18725237 22.6962142,5.22987521 22.9520728,5.22987521 C23.8902207,5.22987521 24.7430697,4.8249582 25.5106453,4.01511202 C26.1076486,3.41838326 26.4061457,2.56592639 26.4061457,1.45771583 L26.4061457,0.818366781 L36.448543,0.946236591 C36.5764723,2.69379939 37.0455393,3.80199333 37.8557579,4.27085164 C38.4954043,4.69708647 39.604108,4.91020069 41.1819023,4.91020069 L41.8855097,4.91020069 L62.6739118,4.78233088 L62.5459832,78.563211 L50.7125851,78.563211 L50.5846564,17.1857024 L40.3503662,17.0578326 C37.8344239,18.7627719 36.5764717,21.746371 36.5764717,26.0087193 C36.5764717,27.1169298 36.6830778,28.3316809 36.8962932,29.6530088 L36.8962932,47.682652 C37.0668656,55.8237372 37.3227203,60.9171671 37.663865,62.9630942 C38.3887975,69.6549811 40.1158167,74.854968 42.8449744,78.563211 L26.2782171,78.563211 L26.1502885,17.1857024 L15.8520339,17.1857024 Z M91.2659602,41.3530964 C91.2659602,48.9826999 91.43653,57.2302201 91.7776747,66.0959046 L103.802966,66.1598395 L103.802966,78.563211 L72.2685589,78.563211 L72.2685589,66.4155791 L79.3685978,66.4155791 L79.4965264,17.1857024 L72.2685589,17.1857024 L72.2685589,6.31676859 C76.4049385,6.31676859 78.8782006,4.48398632 79.6884193,0.818366781 L89.7947809,0.946236591 C91.3725752,3.16265771 93.1848793,4.48396586 95.2317476,4.91020069 L103.802966,4.78233088 L103.802966,17.1857024 L93.6326398,17.0578326 C92.0548455,18.2086666 91.2659602,26.3070069 91.2659602,41.3530964 L91.2659602,41.3530964 Z M96.0632837,24.0906721 C96.0632837,22.4709798 97.0440601,21.6611457 99.0056422,21.6611457 C101.05251,21.6611457 102.075929,22.684094 102.075929,24.7300212 C102.075929,26.30709 101.137795,27.0956127 99.2614994,27.0956127 C97.129345,27.0956127 96.0632837,26.0939758 96.0632837,24.0906721 L96.0632837,24.0906721 Z M144.995984,17.1857024 L134.761694,17.0578326 C132.245751,18.7627719 130.987799,21.746371 130.987799,26.0087193 C130.987799,27.1169298 131.094405,28.3316809 131.307621,29.6530088 L131.307621,47.682652 C131.520836,55.8237372 131.776691,60.9171671 132.075193,62.9630942 C132.842768,69.6549811 134.591109,74.854968 137.320266,78.563211 L120.433687,78.563211 L120.62558,17.1857024 L113.397613,17.1857024 L113.397613,6.31676859 C118.344211,5.89053376 120.817473,4.05775149 120.817473,0.818366781 L130.923835,0.946236591 C132.501629,3.16265771 134.313933,4.48396586 136.360802,4.91020069 L157.085239,4.78233088 L157.021275,78.563211 L144.93202,78.563211 L144.995984,17.1857024 Z M185.677288,41.3530964 C185.677288,48.9826999 185.847857,57.2302201 186.189002,66.0959046 L198.214293,66.1598395 L198.214293,78.563211 L166.679886,78.563211 L166.679886,66.4155791 L173.779925,66.4155791 L173.907854,17.1857024 L166.679886,17.1857024 L166.679886,6.31676859 C170.816266,6.31676859 173.289528,4.48398632 174.099747,0.818366781 L184.206108,0.946236591 C185.783903,3.16265771 187.596207,4.48396586 189.643075,4.91020069 L198.214293,4.78233088 L198.214293,17.1857024 L188.043967,17.0578326 C186.466173,18.2086666 185.677288,26.3070069 185.677288,41.3530964 L185.677288,41.3530964 Z M190.474611,24.0906721 C190.474611,22.4709798 191.455388,21.6611457 193.41697,21.6611457 C195.463838,21.6611457 196.487257,22.684094 196.487257,24.7300212 C196.487257,26.30709 195.549123,27.0956127 193.672827,27.0956127 C191.540672,27.0956127 190.474611,26.0939758 190.474611,24.0906721 L190.474611,24.0906721 Z" id="mini" fill="#FFFFFF"></path>
                    <path d="M99.1740747,270.963949 C99.2763516,271.168409 99.3274893,271.270637 99.3274893,271.270637 C99.532043,271.577326 100.068989,272.037354 100.938342,272.650733 C101.807695,273.264112 102.344641,273.570797 102.549195,273.570797 L147.346241,273.570797 L144.891609,265.750253 C144.891609,265.443563 145.172866,264.957979 145.735389,264.293485 C146.297911,263.628991 146.937132,262.964507 147.65307,262.300013 C148.369009,261.635519 149.008229,260.971034 149.570752,260.30654 C150.133275,259.642046 150.414532,259.156462 150.414532,258.849772 C150.414532,256.396256 150.542376,254.453918 150.798069,253.0227 C151.053761,251.591482 151.437293,250.262514 151.948678,249.035756 C152.460062,247.808998 153.073714,246.556701 153.789652,245.278828 C154.50559,244.000955 155.323793,242.339744 156.244285,240.295148 L150.721361,241.368556 C148.266716,242.186394 146.22121,242.595308 144.58478,242.595308 L136.300394,242.595308 L128.016009,242.595308 C125.663641,242.595308 124.231786,241.112997 123.720402,238.148331 C124.43634,234.161367 125.5358,230.251134 127.018814,226.417515 C128.501829,222.583896 131.936916,210.004493 131.936916,210.004493 L105.044948,210.004493 C105.044948,210.004493 101.961113,223.095037 100.478098,227.950955 C98.9950837,232.806873 97.5632289,237.586047 96.1824911,242.28862 C94.8017533,246.991193 93.6255869,251.080325 92.6539566,254.55614 C91.6823263,258.031955 91.1965185,259.923179 91.1965185,260.229868 L91.1965185,262.069997 C92.8329484,262.069997 94.6994734,262.146668 96.7961493,262.300013 C98.8928252,262.453357 100.708212,263.143398 102.242366,264.370157 C102.140089,264.574616 101.935538,264.906858 101.628707,265.366893 C101.321877,265.826927 100.989482,266.312511 100.631513,266.823661 C100.273544,267.33481 99.9667178,267.820394 99.7110256,268.280429 C99.4553334,268.740463 99.3274893,269.021591 99.3274893,269.123821 C99.3274893,269.123821 99.2763516,269.251606 99.1740747,269.507181 C99.0717978,269.762755 99.0206602,270.043883 99.0206602,270.350573 C99.0206602,270.555033 99.0717978,270.759489 99.1740747,270.963949 Z M155.937456,272.804077 C156.653394,272.804077 157.82956,272.77852 159.46599,272.727405 C161.10242,272.67629 162.789963,272.650733 164.52867,272.650733 C166.369654,272.650733 168.082766,272.67629 169.668057,272.727405 C171.253349,272.77852 172.455084,272.804077 173.273299,272.804077 C173.477853,272.804077 174.014798,272.880748 174.884152,273.034093 C175.753505,273.187438 176.648414,273.366337 177.568906,273.570797 C178.489398,273.775257 179.384307,273.954156 180.253661,274.107501 C181.123014,274.260846 181.65996,274.337517 181.864514,274.337517 L182.938415,274.337517 L183.552074,274.337517 L190.148899,263.603437 L198.740113,263.603437 L199.046942,274.644205 C199.967434,274.644205 200.836775,274.33752 201.65499,273.724141 C202.473205,273.212992 203.316976,272.676293 204.18633,272.114029 C205.055683,271.551765 205.592629,271.270637 205.797182,271.270637 C206.20629,271.270637 206.845511,271.526208 207.714864,272.037357 C208.584218,272.548506 209.172301,272.804077 209.479131,272.804077 C209.581408,272.804077 209.939372,272.829634 210.553033,272.880749 C211.166694,272.931864 211.626933,272.957421 211.933764,272.957421 C212.342872,272.957421 212.879817,272.931864 213.544617,272.880749 C214.209416,272.829634 214.592949,272.804077 214.695226,272.804077 C214.89978,272.804077 215.436725,272.548506 216.306079,272.037357 C217.175432,271.526208 217.712377,271.270637 217.916931,271.270637 C218.223762,271.270637 218.70957,271.398422 219.374369,271.653997 C220.039169,271.909572 220.755096,272.190699 221.522173,272.497389 C222.28925,272.804079 223.005177,273.136321 223.669977,273.494125 C224.334776,273.85193 224.769446,274.133057 224.974,274.337517 C225.076277,274.030828 225.22969,273.519686 225.434244,272.804077 C225.638798,272.088468 225.817779,271.321756 225.971195,270.503917 C226.12461,269.686078 226.252454,268.919366 226.354731,268.203757 C226.457008,267.488148 226.508146,266.977006 226.508146,266.670317 C226.814976,263.398962 227.198509,259.3865 227.658755,254.632812 C228.119001,249.879124 228.604809,244.921051 229.116193,239.758443 C229.627577,234.595836 230.138954,229.458863 230.650338,224.347371 C231.161723,219.235878 231.596393,214.58449 231.954362,210.393066 C232.312331,206.201642 232.593588,202.776994 232.798142,200.119018 C233.002696,197.461042 233.053833,195.978731 232.951556,195.672041 L232.798142,190.765033 C232.286758,190.765033 231.903225,190.816147 231.647533,190.918377 C231.391841,191.020607 230.803757,191.276178 229.883266,191.685097 C228.962774,191.889557 227.888883,192.29847 226.66156,192.911849 C225.434238,193.525228 224.667173,193.934142 224.360342,194.138601 C223.951235,193.320763 223.490996,192.835178 222.979611,192.681833 C222.468227,192.528489 221.803437,192.451817 220.985222,192.451817 C219.860176,192.451817 218.862992,192.732945 217.993638,193.295209 C217.124285,193.857474 216.127101,194.138601 215.002055,194.138601 L214.081568,194.138601 L212.240593,192.605161 C212.240593,192.605161 212.112749,192.579604 211.857057,192.528489 C211.601365,192.477374 211.422383,192.451817 211.320106,192.451817 C211.217829,192.451817 211.064416,192.477374 210.859862,192.528489 C210.655308,192.579604 210.553033,192.605161 210.553033,192.605161 L208.865473,194.138601 C208.865473,194.138601 208.763198,194.164158 208.558644,194.215273 C208.35409,194.266388 208.200677,194.291945 208.0984,194.291945 C207.79157,194.291945 207.56145,194.266388 207.408035,194.215273 C207.25462,194.164158 207.177913,194.138601 207.177913,194.138601 C206.973359,193.934142 206.666533,193.423 206.257426,192.605161 C205.848318,191.787323 205.541492,191.276181 205.336939,191.071721 C205.336939,191.071721 205.234663,191.046164 205.03011,190.995049 C204.825556,190.943934 204.621005,190.918377 204.416451,190.918377 C204.314175,190.918377 204.160762,190.943934 203.956208,190.995049 C203.751654,191.046164 203.649379,191.071721 203.649379,191.071721 C203.342548,191.173951 203.010153,191.403965 202.652184,191.761769 C202.294215,192.119574 202.064096,192.400702 201.961819,192.605161 L155.937456,272.804077 Z M208.0984,223.733995 L205.183524,243.515372 L195.978652,243.362028 C197.103697,241.62412 197.742918,240.550723 197.896333,240.141804 C198.049749,239.732884 198.126455,239.477313 198.126455,239.375083 C198.535563,239.068394 198.893526,238.710595 199.200357,238.301675 C199.507188,237.892756 199.967427,237.151601 200.581088,236.078187 C201.194749,235.004774 202.089658,233.496906 203.265842,231.554539 C204.442026,229.612172 206.052863,227.00535 208.0984,223.733995 L208.0984,223.733995 Z M236.940335,258.236396 C236.940335,258.440856 237.144885,258.926441 237.553993,259.693164 C237.9631,260.459888 238.269926,260.996587 238.47448,261.303276 C242.361001,266.00585 246.452015,269.251599 250.747643,271.040621 C255.043272,272.829643 260.157039,273.724141 266.089098,273.724141 C270.28245,273.724141 274.322326,273.008543 278.208847,271.577325 C282.095368,270.146107 285.521592,268.101541 288.487621,265.443565 C291.45365,262.785589 293.831552,259.616511 295.621397,255.936236 C297.411243,252.255962 298.306152,248.166829 298.306152,243.668716 C298.306152,240.70405 297.845913,238.071671 296.925421,235.771499 C296.004929,233.471328 294.854332,231.324533 293.473594,229.331051 C292.092856,227.337569 290.609864,225.369674 289.024572,223.427307 C287.43928,221.48494 285.930719,219.287031 284.498843,216.833514 C284.703397,216.833514 285.086929,216.807957 285.649452,216.756842 C286.211975,216.705728 286.595507,216.68017 286.800061,216.68017 C288.334214,216.68017 289.663794,217.012412 290.788839,217.676906 C291.913885,218.3414 292.987776,219.108113 294.010545,219.977067 C295.033313,220.84602 296.081636,221.612733 297.155543,222.277227 C298.22945,222.941721 299.380048,223.273963 300.60737,223.273963 L301.527857,222.353899 L301.681272,217.753578 L306.130294,216.68017 L305.67005,209.626346 L310.886144,210.393066 L313.954435,207.939562 C313.443051,205.997195 313.340776,204.872683 313.647606,204.565994 C310.374746,200.57903 306.258164,197.537737 301.297735,195.442025 C296.337307,193.346314 291.249109,192.298473 286.032988,192.298473 C282.453298,192.298473 278.771386,192.860729 274.987141,193.985257 C271.202897,195.109786 267.725535,196.770996 264.554952,198.968938 C261.384369,201.166879 258.776348,203.824816 256.730811,206.942826 C254.685273,210.060836 253.66252,213.61327 253.66252,217.600234 C253.66252,220.973819 254.352878,223.912884 255.733616,226.417515 C257.114354,228.922146 258.776328,231.273397 260.719589,233.471339 C262.662849,235.669281 264.708356,237.86719 266.856171,240.065132 C269.003985,242.263073 270.793803,244.74211 272.22568,247.502316 C271.918849,248.320155 271.509748,248.805739 270.998363,248.959084 C270.486979,249.112429 269.924464,249.1891 269.310803,249.1891 C267.367543,249.1891 265.654431,248.703515 264.171416,247.732332 C262.688401,246.761148 261.256547,245.662194 259.875809,244.435436 C258.495071,243.208678 257.139923,242.109723 255.810323,241.13854 C254.480724,240.167356 253.048869,239.681771 251.514716,239.681771 C251.310162,239.681771 250.798786,239.477315 249.980571,239.068395 L248.753254,244.58878 L243.997404,246.275564 L248.753254,251.949292 L238.781309,252.562668 L236.940335,258.236396 Z M331.597108,192.758505 L330.830035,192.758505 C330.830035,192.758505 330.72776,192.937405 330.523206,193.295209 C330.318652,193.653014 330.088533,194.087484 329.832841,194.598633 C329.577148,195.109783 329.32146,195.595367 329.065768,196.055401 C328.810076,196.515436 328.631094,196.796564 328.528817,196.898794 C328.119709,197.818862 327.582764,199.096716 326.917964,200.732394 C326.253165,202.368071 325.588375,203.978167 324.923575,205.56273 C324.258775,207.147293 323.670692,208.552932 323.159308,209.77969 C322.647924,211.006448 322.341098,211.773161 322.238821,212.07985 C321.420606,214.124447 320.551265,216.322356 319.630773,218.673643 C318.710282,221.024929 317.687528,223.785094 316.562483,226.954219 C315.33516,229.918885 314.184563,232.857949 313.110655,235.771499 C312.036748,238.68505 310.937288,241.624114 309.812243,244.58878 C308.789474,247.451215 307.817858,250.109152 306.897366,252.562668 C305.976874,255.016184 305.158672,257.188536 304.442734,259.079788 C303.726796,260.971041 303.164281,262.478908 302.755174,263.603437 C302.346066,264.727965 302.141515,265.341335 302.141515,265.443565 L301.374443,273.264109 C301.78355,273.264109 302.576184,273.187438 303.752368,273.034093 C304.928552,272.880748 306.206994,272.727406 307.587732,272.574061 C308.96847,272.420716 310.246911,272.267374 311.423095,272.114029 C312.599279,271.960684 313.443051,271.884013 313.954435,271.884013 C314.158989,271.884013 314.747072,271.551771 315.718703,270.887277 C316.690333,270.222783 317.278416,269.839427 317.48297,269.737197 L318.250043,269.737197 L319.017115,269.737197 L322.085406,271.884013 L322.852479,271.884013 L323.619552,271.884013 C323.721828,271.475094 323.977517,270.785052 324.386624,269.813869 C324.795732,268.842685 325.255971,267.794845 325.767355,266.670317 C326.27874,265.545788 326.738979,264.472391 327.148086,263.450093 C327.557194,262.427794 327.812882,261.609968 327.915159,260.996588 C328.426543,259.87206 329.193608,258.287521 330.216377,256.242924 C331.239146,254.198327 332.134055,252.460446 332.901131,251.029228 C333.668208,249.59801 334.102878,248.780184 334.205155,248.575724 L341.875882,248.575724 C341.466775,252.051539 340.597434,255.425073 339.267835,258.696428 C337.938236,261.967784 337.068895,265.392432 336.659788,268.970477 C336.557511,268.970477 336.506373,269.37939 336.506373,270.197229 C336.506373,271.219527 336.455236,271.781783 336.352959,271.884013 C336.762066,271.577323 337.580269,271.16841 338.807591,270.657261 C340.034914,270.146112 340.904254,269.839427 341.415639,269.737197 L342.336126,269.737197 L343.103199,269.737197 C343.205475,269.839427 343.410026,270.222783 343.716857,270.887277 C344.023687,271.551771 344.228238,271.884013 344.330515,271.884013 C344.535069,271.884013 345.097583,271.526214 346.018075,270.810605 C346.938567,270.094996 347.501081,269.737197 347.705635,269.737197 C347.807912,269.737197 348.370426,269.686083 349.393195,269.583853 C350.415964,269.481623 351.234166,269.430509 351.847828,269.430509 C352.359212,269.430509 353.126277,269.481623 354.149046,269.583853 C355.171814,269.686083 355.734329,269.737197 355.836606,269.737197 C356.041159,269.737197 356.501398,270.094996 357.217337,270.810605 C357.933275,271.526214 358.393514,271.884013 358.598067,271.884013 C358.802621,271.884013 359.109447,271.602885 359.518555,271.040621 C359.927662,270.478357 360.234488,270.043886 360.439042,269.737197 L389.280976,196.898794 L389.434391,195.978729 C388.820729,195.978729 387.746838,195.850944 386.212685,195.595369 C384.678532,195.339795 383.655779,195.160895 383.144394,195.058665 C383.042117,195.058665 382.811998,194.675309 382.454029,193.908585 C382.09606,193.141862 381.86594,192.758505 381.763663,192.758505 C381.661387,192.758505 381.277854,193.090747 380.613054,193.755241 C379.948255,194.419735 379.257896,195.135334 378.541958,195.902057 C377.82602,196.668781 377.135661,197.38438 376.470862,198.048874 C375.806062,198.713368 375.42253,199.04561 375.320253,199.04561 C375.115699,199.04561 374.987855,198.841153 374.936716,198.432234 C374.885578,198.023314 374.783302,197.588844 374.629887,197.12881 C374.476472,196.668775 374.271921,196.234305 374.016229,195.825385 C373.760537,195.416466 373.325867,195.212009 372.712205,195.212009 C371.58716,195.212009 370.462131,195.186452 369.337085,195.135337 C368.21204,195.084223 367.444975,195.058665 367.035867,195.058665 C365.910822,195.978734 364.683518,197.409931 363.353918,199.352298 C362.024319,201.294665 360.720308,203.390345 359.441847,205.639402 C358.163386,207.888459 357.012789,210.035253 355.99002,212.07985 C354.967251,214.124447 354.251324,215.657872 353.842217,216.68017 L348.012464,216.68017 C348.217018,214.840033 348.651688,212.948809 349.316488,211.006442 C349.981287,209.064075 350.697215,207.147294 351.464291,205.256042 C352.231368,203.36479 352.947295,201.499123 353.612095,199.658986 C354.276894,197.818848 354.711565,196.080967 354.916118,194.445289 C354.609288,194.445289 354.046773,194.470846 353.228558,194.521961 C352.410343,194.573076 351.541003,194.649748 350.620511,194.751977 C349.700019,194.854207 348.830679,194.930879 348.012464,194.981993 C347.194249,195.033108 346.631735,195.058665 346.324904,195.058665 C346.222627,195.058665 345.94137,195.160894 345.481124,195.365353 C345.020878,195.569813 344.509501,195.77427 343.946979,195.978729 C343.384456,196.183189 342.84751,196.387646 342.336126,196.592106 C341.824741,196.796565 341.517915,196.898794 341.415639,196.898794 C341.313362,196.898794 341.083242,196.617666 340.725273,196.055401 C340.367304,195.493137 340.137185,195.160895 340.034908,195.058665 L339.11442,195.058665 L338.347348,195.058665 C338.142794,195.160895 337.58028,195.569809 336.659788,196.285417 C335.739296,197.001026 335.176781,197.256597 334.972228,197.052138 C334.869951,196.949908 334.716538,196.771008 334.511984,196.515434 C334.30743,196.259859 333.949467,195.825389 333.438082,195.212009 C333.028975,194.394171 332.747718,193.780801 332.594302,193.371881 C332.440887,192.962962 332.364181,192.758505 332.364181,192.758505 L331.597108,192.758505 Z M380.536347,247.195628 L380.536347,246.735596 L406.616819,193.831913 L407.230478,193.831913 C408.866908,193.831913 410.298762,194.03637 411.526085,194.445289 C412.753407,194.854209 414.287537,195.058665 416.128521,195.058665 C417.355844,195.058665 418.327459,194.93088 419.043397,194.675305 C419.759336,194.419731 420.424125,194.16416 421.037787,193.908585 C421.651448,193.653011 422.239531,193.39744 422.802054,193.141865 C423.364577,192.886291 424.106073,192.758505 425.026565,192.758505 L428.094856,195.978729 C426.96981,198.227786 426.049332,200.11901 425.333394,201.652458 C424.617456,203.185905 423.952666,204.642659 423.339005,206.022762 C422.725343,207.402865 422.13726,208.75739 421.574737,210.086378 C421.012215,211.415366 420.372994,212.948791 419.657056,214.686698 C418.225179,217.958054 416.716618,221.331588 415.131327,224.807403 C413.546035,228.283218 412.242024,231.094496 411.219256,233.241323 C411.116979,233.548013 410.784584,234.212497 410.222061,235.234795 C409.659538,236.257094 409.045886,237.356048 408.381087,238.531691 C407.716287,239.707335 407.077066,240.88296 406.463405,242.058604 C405.849744,243.234247 405.389505,244.128745 405.082674,244.742124 C404.87812,245.151043 404.44345,245.78997 403.77865,246.658924 C403.113851,247.527878 402.270079,247.962348 401.24731,247.962348 C401.145034,247.962348 400.991621,247.936791 400.787067,247.885676 C400.582513,247.834561 400.480238,247.809004 400.480238,247.809004 C400.377961,247.706774 400.122273,247.502317 399.713165,247.195628 C399.304058,246.888938 399.048369,246.735596 398.946092,246.735596 C398.741539,246.735596 398.230162,246.914495 397.411947,247.2723 C396.593732,247.630104 396.082355,247.809004 395.877801,247.809004 C395.775525,247.809004 395.64768,247.425648 395.494265,246.658924 C395.34085,245.8922 395.161868,245.048816 394.957314,244.128748 C394.75276,243.208679 394.573779,242.365295 394.420363,241.598572 C394.266948,240.831848 394.139104,240.448492 394.036827,240.448492 C393.93455,240.448492 393.678862,240.831848 393.269754,241.598572 C392.860647,242.365295 392.400408,243.208679 391.889023,244.128748 C391.377639,245.048816 390.9174,245.8922 390.508292,246.658924 C390.099185,247.425648 389.843497,247.809004 389.74122,247.809004 C389.536666,247.809004 389.025289,247.630104 388.207074,247.2723 C387.388859,246.914495 386.877483,246.735596 386.672929,246.735596 C386.468375,246.735596 386.13598,246.837824 385.675734,247.042284 C385.215488,247.246744 384.729681,247.502314 384.218296,247.809004 C383.706912,248.115693 383.246673,248.371264 382.837565,248.575724 C382.428458,248.780184 382.172769,248.882412 382.070493,248.882412 C381.865939,248.882412 381.584682,248.754627 381.226713,248.499052 C380.868743,248.243477 380.638624,248.013464 380.536347,247.809004 L380.536347,247.195628 Z M380.536347,270.657261 C380.43407,270.350571 380.357364,269.558302 380.306225,268.280429 C380.255087,267.002556 380.229518,266.210286 380.229518,265.903597 C380.229518,261.916633 381.431253,259.156468 383.83476,257.62302 C386.238266,256.089573 389.383233,255.32286 393.269754,255.32286 C396.133507,255.32286 398.076738,255.961787 399.099507,257.23966 C400.122276,258.517533 400.633652,260.3832 400.633652,262.836717 C400.633652,266.312531 399.534192,268.996025 397.33524,270.887277 C395.136287,272.778529 392.093595,273.724141 388.207074,273.724141 C386.775198,273.724141 385.343343,273.519684 383.911467,273.110765 C382.479591,272.701846 381.354562,271.884019 380.536347,270.657261 L380.536347,270.657261 Z M419.350227,247.195628 L419.350227,246.735596 L445.430699,193.831913 L446.044357,193.831913 C447.680787,193.831913 449.112642,194.03637 450.339964,194.445289 C451.567287,194.854209 453.101417,195.058665 454.942401,195.058665 C456.169723,195.058665 457.141339,194.93088 457.857277,194.675305 C458.573215,194.419731 459.238005,194.16416 459.851666,193.908585 C460.465327,193.653011 461.05341,193.39744 461.615933,193.141865 C462.178456,192.886291 462.919952,192.758505 463.840444,192.758505 L466.908735,195.978729 C465.783689,198.227786 464.863211,200.11901 464.147273,201.652458 C463.431335,203.185905 462.766545,204.642659 462.152884,206.022762 C461.539223,207.402865 460.95114,208.75739 460.388617,210.086378 C459.826094,211.415366 459.186873,212.948791 458.470935,214.686698 C457.039059,217.958054 455.530498,221.331588 453.945206,224.807403 C452.359915,228.283218 451.055904,231.094496 450.033135,233.241323 C449.930858,233.548013 449.598463,234.212497 449.035941,235.234795 C448.473418,236.257094 447.859766,237.356048 447.194966,238.531691 C446.530166,239.707335 445.890946,240.88296 445.277284,242.058604 C444.663623,243.234247 444.203384,244.128745 443.896553,244.742124 C443.692,245.151043 443.25733,245.78997 442.59253,246.658924 C441.92773,247.527878 441.083959,247.962348 440.06119,247.962348 C439.958913,247.962348 439.8055,247.936791 439.600946,247.885676 C439.396393,247.834561 439.294117,247.809004 439.294117,247.809004 C439.19184,247.706774 438.936152,247.502317 438.527044,247.195628 C438.117937,246.888938 437.862249,246.735596 437.759972,246.735596 C437.555418,246.735596 437.044041,246.914495 436.225826,247.2723 C435.407611,247.630104 434.896235,247.809004 434.691681,247.809004 C434.589404,247.809004 434.46156,247.425648 434.308145,246.658924 C434.154729,245.8922 433.975747,245.048816 433.771194,244.128748 C433.56664,243.208679 433.387658,242.365295 433.234243,241.598572 C433.080827,240.831848 432.952983,240.448492 432.850706,240.448492 C432.748429,240.448492 432.492741,240.831848 432.083634,241.598572 C431.674526,242.365295 431.214287,243.208679 430.702903,244.128748 C430.191518,245.048816 429.731279,245.8922 429.322172,246.658924 C428.913064,247.425648 428.657376,247.809004 428.555099,247.809004 C428.350545,247.809004 427.839169,247.630104 427.020954,247.2723 C426.202739,246.914495 425.691362,246.735596 425.486808,246.735596 C425.282255,246.735596 424.94986,246.837824 424.489614,247.042284 C424.029368,247.246744 423.54356,247.502314 423.032176,247.809004 C422.520791,248.115693 422.060552,248.371264 421.651445,248.575724 C421.242337,248.780184 420.986649,248.882412 420.884372,248.882412 C420.679818,248.882412 420.398561,248.754627 420.040592,248.499052 C419.682623,248.243477 419.452503,248.013464 419.350227,247.809004 L419.350227,247.195628 Z M419.350227,270.657261 C419.24795,270.350571 419.171243,269.558302 419.120105,268.280429 C419.068966,267.002556 419.043397,266.210286 419.043397,265.903597 C419.043397,261.916633 420.245133,259.156468 422.648639,257.62302 C425.052146,256.089573 428.197112,255.32286 432.083634,255.32286 C434.947386,255.32286 436.890618,255.961787 437.913386,257.23966 C438.936155,258.517533 439.447532,260.3832 439.447532,262.836717 C439.447532,266.312531 438.348072,268.996025 436.149119,270.887277 C433.950166,272.778529 430.907475,273.724141 427.020954,273.724141 C425.589077,273.724141 424.157223,273.519684 422.725347,273.110765 C421.29347,272.701846 420.168442,271.884019 419.350227,270.657261 L419.350227,270.657261 Z" id="clash!!" fill="#FFFFFF"></path>
                    <path d="M1.60299977,286.041549 C2.60330123,291.043009 4.37303879,295.428838 6.91226556,299.19917 C9.45149233,302.969501 12.8370772,306.008804 17.0691218,308.31717 C21.3011665,310.625536 26.6488517,311.779702 33.112338,311.779702 C35.1129409,311.779702 38.2676905,311.471924 42.5766814,310.85636 C46.8856723,310.240796 51.1561259,309.240519 55.3881706,307.855499 C59.6202152,306.470479 63.3520531,304.662286 66.5837962,302.430866 C69.8155394,300.199445 71.4313867,297.46792 71.4313867,294.236207 C71.4313867,294.082316 71.3929142,293.851483 71.3159679,293.543701 C71.2390216,293.235919 71.2005491,293.08203 71.2005491,293.08203 C71.0466566,293.08203 70.5465133,293.043558 69.7001044,292.966612 C68.8536955,292.889667 67.9688267,292.77425 67.0454715,292.620359 C66.1221163,292.466468 65.2757201,292.312579 64.5062574,292.158688 C63.7367948,292.004797 63.3520692,291.850908 63.3520692,291.697017 L64.5062574,286.849473 L66.5837962,274.615194 L62.197881,273.230181 C61.7362034,266.920647 61.9670388,264.304538 62.8903939,265.381776 C59.8125433,266.612904 56.5808486,268.074848 53.1952129,269.767649 C49.8095773,271.460451 46.3470472,272.306839 42.807519,272.306839 C42.3458414,272.306839 41.5379178,271.999062 40.3837238,271.383498 C39.2295298,270.767933 38.4985512,270.306267 38.1907662,269.998485 C38.0368736,269.382921 37.921456,268.036394 37.8445097,265.958864 C37.7675634,263.881335 37.7290909,262.534808 37.7290909,261.919244 C37.7290909,259.149205 38.1907615,255.609763 39.1141167,251.300813 C40.0374719,246.991863 41.4609565,242.798394 43.3846131,238.720281 C45.3082698,234.642168 47.6935682,231.141198 50.5405801,228.217268 C53.3875919,225.293338 56.7347042,223.831394 60.5820175,223.831394 L61.7362057,223.831394 C62.1978833,224.139176 63.0827521,224.600843 64.3908386,225.216407 C65.6989251,225.831971 67.1608823,226.524471 68.7767538,227.293926 C70.3926254,228.063381 71.8545825,228.755881 73.162669,229.371445 C74.4707556,229.987009 75.3556243,230.448676 75.8173019,230.756458 L76.2789772,225.908913 L81.3574054,224.985572 L79.2798666,217.368002 L88.051697,218.291343 L89.6544937,210.68445 L70.0463609,188.975241 C58.9660986,188.975241 49.0786518,191.322045 40.3837238,196.015722 C31.6887957,200.7094 24.3405376,206.86495 18.3387289,214.482558 C12.3369202,222.100167 7.79715858,230.794882 4.71930795,240.566965 C1.64145733,250.339048 0.102555097,260.303345 0.102555097,270.460156 C0.102555097,275.846343 0.602698321,281.040089 1.60299977,286.041549 Z" id="c" fill="#FFFFFF"></path>
                    <path d="M107.72901,302.913099 L88.5878972,302.913099 L88.5878972,301.756408 C88.5878972,301.453464 88.6430187,301.191834 88.7532632,300.971511 C88.8635077,300.751188 89.0839935,300.599718 89.4147271,300.517096 L105.124496,300.517096 C105.400107,300.434475 105.696385,300.31743 106.013338,300.165958 C106.330291,300.014486 106.619679,299.828591 106.881509,299.608268 C107.14334,299.387945 107.370716,299.14697 107.563644,298.885336 C107.756572,298.623702 107.866815,298.341417 107.894376,298.038473 L107.894376,295.477228 L85.1978945,295.477228 C84.7844775,295.477228 84.4124077,295.642468 84.0816741,295.972953 C83.7509404,296.303438 83.4753332,296.723423 83.2548441,297.23292 C83.0343551,297.742418 82.8689907,298.306987 82.7587462,298.926646 C82.6485016,299.546305 82.5933802,300.13153 82.5933802,300.682338 L82.5933802,308.407382 L107.72901,308.407382 L107.72901,302.913099 Z M107.894376,292.585501 C107.894376,292.034693 107.853035,291.463238 107.770352,290.871119 C107.687668,290.279001 107.529194,289.741971 107.294924,289.260014 C107.060655,288.778057 106.750597,288.385612 106.364741,288.082668 C105.978885,287.779723 105.496572,287.628254 104.917788,287.628254 L82.8000877,287.628254 L82.8000877,293.039915 L107.894376,293.039915 L107.894376,292.585501 Z M111.987184,307.581174 C112.180112,307.801497 112.47639,307.994277 112.876026,308.159519 C113.275663,308.324762 113.54438,308.407382 113.682186,308.407382 L132.823299,308.407382 C133.154032,308.407382 133.512322,308.297222 133.898178,308.076898 C134.284033,307.856575 134.642323,307.57429 134.973056,307.230035 C135.30379,306.88578 135.579397,306.520876 135.799886,306.13531 C136.020375,305.749744 136.130618,305.391725 136.130618,305.06124 L136.130618,295.477228 L130.342809,295.477228 L130.342809,302.747858 L122.65329,302.747858 L128.4411,295.477228 L121.909143,295.477228 L116.162675,302.706547 L116.162675,295.477228 L110.374866,295.477228 L110.374866,305.06124 C110.374866,305.254023 110.429987,305.467457 110.540232,305.701551 C110.650476,305.935644 110.78139,306.176619 110.932976,306.424483 C111.084562,306.672346 111.256817,306.899551 111.449745,307.106104 C111.642673,307.312657 111.821817,307.471012 111.987184,307.581174 L111.987184,307.581174 Z M110.374866,293.039915 L136.130618,293.039915 L136.130618,290.974395 C136.130618,290.643911 136.020375,290.285891 135.799886,289.900325 C135.579397,289.51476 135.30379,289.15674 134.973056,288.826255 C134.642323,288.49577 134.284033,288.213485 133.898178,287.979392 C133.512322,287.745298 133.154032,287.628254 132.823299,287.628254 L113.682186,287.628254 C113.351452,287.628254 112.993163,287.745298 112.607307,287.979392 C112.221451,288.213485 111.863161,288.49577 111.532428,288.826255 C111.201694,289.15674 110.926087,289.51476 110.705598,289.900325 C110.485109,290.285891 110.374866,290.643911 110.374866,290.974395 L110.374866,293.039915 Z M138.611108,300.517096 L151.881729,300.517096 L151.881729,295.477228 L138.611108,295.477228 L138.611108,300.517096 Z M154.527584,302.913099 L154.527584,308.407382 L176.976017,308.407382 C177.582362,308.407382 178.064675,308.249027 178.422969,307.932312 C178.781264,307.615598 179.049981,307.216268 179.229129,306.734311 C179.408276,306.252354 179.518519,305.722209 179.559861,305.143861 C179.601202,304.565512 179.621873,304.014712 179.621873,303.491445 L179.621873,300.682338 C179.621873,300.13153 179.566751,299.546305 179.456507,298.926646 C179.346262,298.306987 179.187788,297.742418 178.98108,297.23292 C178.774371,296.723423 178.498764,296.303438 178.15425,295.972953 C177.809735,295.642468 177.416995,295.477228 176.976017,295.477228 L154.362218,295.477228 L154.362218,298.038473 C154.389779,298.341417 154.493132,298.623702 154.67228,298.885336 C154.851427,299.14697 155.071913,299.387945 155.333743,299.608268 C155.595574,299.828591 155.878072,300.014486 156.181244,300.165958 C156.484417,300.31743 156.773804,300.434475 157.049416,300.517096 L172.759184,300.517096 C173.089918,300.599718 173.310404,300.751188 173.420648,300.971511 C173.530893,301.191834 173.586014,301.453464 173.586014,301.756408 C173.530892,302.059353 173.4551,302.307213 173.358636,302.499995 C173.262172,302.692778 173.062357,302.830478 172.759184,302.913099 L154.527584,302.913099 Z M179.456507,287.628254 L154.362218,287.628254 L154.362218,293.039915 L179.456507,293.039915 L179.456507,287.628254 Z M182.102363,300.517096 L195.372983,300.517096 L195.372983,295.477228 L182.102363,295.477228 L182.102363,300.517096 Z M222.989103,302.913099 L203.84799,302.913099 L203.84799,301.756408 C203.84799,301.453464 203.903111,301.191834 204.013356,300.971511 C204.1236,300.751188 204.344086,300.599718 204.67482,300.517096 L220.384588,300.517096 C220.6602,300.434475 220.956478,300.31743 221.273431,300.165958 C221.590384,300.014486 221.879771,299.828591 222.141602,299.608268 C222.403433,299.387945 222.630809,299.14697 222.823737,298.885336 C223.016665,298.623702 223.126908,298.341417 223.154469,298.038473 L223.154469,295.477228 L200.457987,295.477228 C200.04457,295.477228 199.6725,295.642468 199.341767,295.972953 C199.011033,296.303438 198.735426,296.723423 198.514937,297.23292 C198.294448,297.742418 198.129083,298.306987 198.018839,298.926646 C197.908594,299.546305 197.853473,300.13153 197.853473,300.682338 L197.853473,308.407382 L222.989103,308.407382 L222.989103,302.913099 Z M223.154469,292.585501 C223.154469,292.034693 223.113128,291.463238 223.030444,290.871119 C222.947761,290.279001 222.789287,289.741971 222.555017,289.260014 C222.320747,288.778057 222.010689,288.385612 221.624833,288.082668 C221.238977,287.779723 220.756665,287.628254 220.177881,287.628254 L198.06018,287.628254 L198.06018,293.039915 L223.154469,293.039915 L223.154469,292.585501 Z M227.247277,307.581174 C227.440205,307.801497 227.736483,307.994277 228.136119,308.159519 C228.535756,308.324762 228.804473,308.407382 228.942278,308.407382 L248.083391,308.407382 C248.414125,308.407382 248.772414,308.297222 249.15827,308.076898 C249.544126,307.856575 249.902415,307.57429 250.233149,307.230035 C250.563883,306.88578 250.83949,306.520876 251.059979,306.13531 C251.280468,305.749744 251.390711,305.391725 251.390711,305.06124 L251.390711,295.477228 L245.602901,295.477228 L245.602901,302.747858 L237.913383,302.747858 L243.701193,295.477228 L237.169236,295.477228 L231.422768,302.706547 L231.422768,295.477228 L225.634959,295.477228 L225.634959,305.06124 C225.634959,305.254023 225.69008,305.467457 225.800324,305.701551 C225.910569,305.935644 226.041482,306.176619 226.193069,306.424483 C226.344655,306.672346 226.516909,306.899551 226.709837,307.106104 C226.902765,307.312657 227.08191,307.471012 227.247277,307.581174 L227.247277,307.581174 Z M225.634959,293.039915 L251.390711,293.039915 L251.390711,290.974395 C251.390711,290.643911 251.280468,290.285891 251.059979,289.900325 C250.83949,289.51476 250.563883,289.15674 250.233149,288.826255 C249.902415,288.49577 249.544126,288.213485 249.15827,287.979392 C248.772414,287.745298 248.414125,287.628254 248.083391,287.628254 L228.942278,287.628254 C228.611545,287.628254 228.253255,287.745298 227.867399,287.979392 C227.481543,288.213485 227.123254,288.49577 226.79252,288.826255 C226.461787,289.15674 226.18618,289.51476 225.96569,289.900325 C225.745201,290.285891 225.634959,290.643911 225.634959,290.974395 L225.634959,293.039915 Z M264.289258,308.407382 L264.289258,295.477228 L258.54279,295.477228 L258.54279,308.407382 L264.289258,308.407382 Z M264.289258,287.628254 L253.871201,287.628254 L253.871201,293.039915 L264.289258,293.039915 L264.289258,287.628254 Z M266.935114,302.913099 L266.935114,308.407382 L289.383546,308.407382 C289.989891,308.407382 290.472204,308.249027 290.830499,307.932312 C291.188793,307.615598 291.45751,307.216268 291.636658,306.734311 C291.815805,306.252354 291.926048,305.722209 291.96739,305.143861 C292.008732,304.565512 292.029402,304.014712 292.029402,303.491445 L292.029402,300.682338 C292.029402,300.13153 291.974281,299.546305 291.864036,298.926646 C291.753792,298.306987 291.595317,297.742418 291.388609,297.23292 C291.1819,296.723423 290.906293,296.303438 290.561779,295.972953 C290.217265,295.642468 289.824524,295.477228 289.383546,295.477228 L266.769748,295.477228 L266.769748,298.038473 C266.797309,298.341417 266.900661,298.623702 267.079809,298.885336 C267.258956,299.14697 267.479442,299.387945 267.741273,299.608268 C268.003104,299.828591 268.285601,300.014486 268.588773,300.165958 C268.891946,300.31743 269.181334,300.434475 269.456945,300.517096 L285.166714,300.517096 C285.497447,300.599718 285.717933,300.751188 285.828178,300.971511 C285.938422,301.191834 285.993544,301.453464 285.993544,301.756408 C285.938421,302.059353 285.862629,302.307213 285.766165,302.499995 C285.669701,302.692778 285.469886,302.830478 285.166714,302.913099 L266.935114,302.913099 Z M291.864036,287.628254 L266.769748,287.628254 L266.769748,293.039915 L291.864036,293.039915 L291.864036,287.628254 Z M311.914662,308.407382 L311.914662,300.517096 L319.066741,300.517096 L325.019916,308.407382 L331.675897,308.407382 L324.02772,297.997162 L325.888088,295.477228 L306.416243,295.477228 L306.416243,308.407382 L311.914662,308.407382 Z M331.675897,287.628254 L325.019916,287.628254 L320.885767,293.039915 L327.665772,293.039915 L331.675897,287.628254 Z M311.997345,287.628254 L306.416243,287.628254 L306.416243,293.039915 L311.997345,293.039915 L311.997345,287.628254 Z M357.886406,308.407382 L357.886406,302.95441 L339.944197,302.95441 C339.641024,302.95441 339.434319,302.85802 339.324074,302.665237 C339.21383,302.472454 339.158708,302.238364 339.158708,301.96296 L339.158708,295.477228 L333.742972,295.477228 L333.742972,305.06124 C333.742972,305.391725 333.853215,305.749744 334.073704,306.13531 C334.294193,306.520876 334.5698,306.88578 334.900534,307.230035 C335.231268,307.57429 335.589557,307.856575 335.975413,308.076898 C336.361269,308.297222 336.719558,308.407382 337.050292,308.407382 L357.886406,308.407382 Z M333.742972,293.039915 L339.158708,293.039915 L339.158708,287.628254 L333.742972,287.628254 L333.742972,293.039915 Z M382.691304,308.407382 L382.691304,295.477228 L376.944836,295.477228 L376.944836,308.407382 L382.691304,308.407382 Z M382.691304,287.628254 L372.273247,287.628254 L372.273247,293.039915 L382.691304,293.039915 L382.691304,287.628254 Z M385.171794,293.039915 L410.142058,293.039915 L410.142058,287.628254 L385.171794,287.628254 L385.171794,293.039915 Z M385.171794,308.407382 L394.18424,308.407382 L407.620227,295.477228 L398.442414,295.477228 L385.171794,308.407382 Z M414.234866,307.581174 C414.427794,307.801497 414.724072,307.994277 415.123708,308.159519 C415.523345,308.324762 415.792062,308.407382 415.929867,308.407382 L435.07098,308.407382 C435.401714,308.407382 435.760003,308.297222 436.145859,308.076898 C436.531715,307.856575 436.890005,307.57429 437.220738,307.230035 C437.551472,306.88578 437.827079,306.520876 438.047568,306.13531 C438.268057,305.749744 438.3783,305.391725 438.3783,305.06124 L438.3783,295.477228 L432.590491,295.477228 L432.590491,302.747858 L424.900972,302.747858 L430.688782,295.477228 L424.156825,295.477228 L418.410357,302.706547 L418.410357,295.477228 L412.622548,295.477228 L412.622548,305.06124 C412.622548,305.254023 412.677669,305.467457 412.787914,305.701551 C412.898158,305.935644 413.029072,306.176619 413.180658,306.424483 C413.332244,306.672346 413.504499,306.899551 413.697427,307.106104 C413.890355,307.312657 414.069499,307.471012 414.234866,307.581174 L414.234866,307.581174 Z M412.622548,293.039915 L438.3783,293.039915 L438.3783,290.974395 C438.3783,290.643911 438.268057,290.285891 438.047568,289.900325 C437.827079,289.51476 437.551472,289.15674 437.220738,288.826255 C436.890005,288.49577 436.531715,288.213485 436.145859,287.979392 C435.760003,287.745298 435.401714,287.628254 435.07098,287.628254 L415.929867,287.628254 C415.599134,287.628254 415.240844,287.745298 414.854989,287.979392 C414.469133,288.213485 414.110843,288.49577 413.78011,288.826255 C413.449376,289.15674 413.173769,289.51476 412.95328,289.900325 C412.732791,290.285891 412.622548,290.643911 412.622548,290.974395 L412.622548,293.039915 Z M442.471108,307.581174 C442.664036,307.801497 442.960314,307.994277 443.35995,308.159519 C443.759587,308.324762 444.028304,308.407382 444.16611,308.407382 L463.307223,308.407382 C463.637956,308.407382 463.996246,308.297222 464.382101,308.076898 C464.767957,307.856575 465.126247,307.57429 465.45698,307.230035 C465.787714,306.88578 466.063321,306.520876 466.28381,306.13531 C466.504299,305.749744 466.614542,305.391725 466.614542,305.06124 L466.614542,295.477228 L460.826733,295.477228 L460.826733,302.747858 L453.137214,302.747858 L458.925024,295.477228 L452.393067,295.477228 L446.646599,302.706547 L446.646599,295.477228 L440.85879,295.477228 L440.85879,305.06124 C440.85879,305.254023 440.913911,305.467457 441.024156,305.701551 C441.1344,305.935644 441.265314,306.176619 441.4169,306.424483 C441.568486,306.672346 441.740741,306.899551 441.933669,307.106104 C442.126597,307.312657 442.305741,307.471012 442.471108,307.581174 L442.471108,307.581174 Z M440.85879,293.039915 L466.614542,293.039915 L466.614542,290.974395 C466.614542,290.643911 466.504299,290.285891 466.28381,289.900325 C466.063321,289.51476 465.787714,289.15674 465.45698,288.826255 C465.126247,288.49577 464.767957,288.213485 464.382101,287.979392 C463.996246,287.745298 463.637956,287.628254 463.307223,287.628254 L444.16611,287.628254 C443.835376,287.628254 443.477087,287.745298 443.091231,287.979392 C442.705375,288.213485 442.347085,288.49577 442.016352,288.826255 C441.685618,289.15674 441.410011,289.51476 441.189522,289.900325 C440.969033,290.285891 440.85879,290.643911 440.85879,290.974395 L440.85879,293.039915 Z" id="20-5-2015-kl-1700" opacity="0.541452892" fill="#FFFFFF"></path>
                    <path d="M50.250021,134.992221 L82.1869261,134.992221 L86.5390494,119.045709 L54.5381425,119.109495 L50.250021,134.992221 Z M57.8662369,157.317337 L44.2338505,157.317337 L39.1137054,176.453152 L7.11279858,176.453152 L26.8253572,103.099197 C27.9773956,98.8467728 31.7747986,96.7205925 38.21768,96.7205925 L114.955855,96.7205925 C120.374702,96.7205925 123.084085,98.2514423 123.084085,101.313188 C123.084085,101.866003 122.99875,102.461334 122.828078,103.099197 L109.899711,150.938733 C108.747673,155.191157 104.992937,157.317337 98.6353922,157.317337 L93.0672344,157.317337 L128.268232,201.967571 L93.0672344,201.967571 L57.8662369,157.317337 Z M208.502816,176.453152 L131.70064,176.453152 C126.239124,176.453152 123.508408,174.90104 123.508408,171.79677 C123.508408,171.286479 123.593743,170.712411 123.764415,170.074547 L141.748925,103.099197 C142.900963,98.8467728 146.698366,96.7205925 153.141247,96.7205925 L229.879422,96.7205925 C235.298269,96.7205925 238.007652,98.2514423 238.007652,101.313188 C238.007652,101.866003 237.922318,102.461334 237.751645,103.099197 L219.767136,170.074547 C218.615097,174.326971 214.860362,176.453152 208.502816,176.453152 L208.502816,176.453152 Z M160.053443,154.191821 L192.05435,154.128035 L201.462617,119.045709 L169.46171,119.109495 L160.053443,154.191821 Z M274.080985,157.317337 L306.081892,157.317337 L308.641965,147.74943 L276.70506,147.74943 L274.080985,157.317337 Z M332.002627,96.7205925 C337.421474,96.7205925 340.130857,98.2514423 340.130857,101.313188 C340.130857,101.866003 340.045522,102.461334 339.87485,103.099197 L333.026656,128.613616 L336.226746,128.613616 C341.602926,128.613616 344.290975,130.144466 344.290975,133.206212 C344.290975,133.759027 344.20564,134.354357 344.034968,134.992221 L334.690703,170.074547 C333.538664,174.326971 329.762595,176.453152 323.362382,176.453152 L236.959933,176.453152 L258.400541,96.7205925 L332.002627,96.7205925 Z M284.385277,119.045709 L281.825205,128.613616 L301.025749,128.613616 L303.585821,119.045709 L284.385277,119.045709 Z M438.349951,176.453152 L361.547775,176.453152 C356.086259,176.453152 353.355542,174.90104 353.355542,171.79677 C353.355542,171.286479 353.440877,170.712411 353.61155,170.074547 L371.596059,103.099197 C372.748098,98.8467728 376.545501,96.7205925 382.988382,96.7205925 L459.726557,96.7205925 C465.145404,96.7205925 467.854787,98.2514423 467.854787,101.313188 C467.854787,101.866003 467.769452,102.461334 467.59878,103.099197 L449.61427,170.074547 C448.462232,174.326971 444.707496,176.453152 438.349951,176.453152 L438.349951,176.453152 Z M389.900578,154.191821 L421.901485,154.128035 L431.309752,119.045709 L399.308845,119.109495 L389.900578,154.191821 Z" id="ROBO" stroke="#FFFFFF" stroke-width="5"></path>
                </g>
                <g id="Group-+-Fill-13-+-Fill-14-+-Fill-15" transform="translate(237.752456, 0.162089)" sketch:type="MSShapeGroup">
                    <g id="Group" transform="translate(1.188544, 144.609507)" fill="#FFFFFF">
                        <path d="M10.2397975,22.4643226 L10.3579552,22.4643226 L16.9300244,2.58816113 C17.2054569,1.68488221 17.7954389,1.21351875 18.5826193,1.21351875 C19.5665948,1.21351875 20.2747346,1.92076521 20.2747346,2.86349213 C20.2747346,3.0989726 20.2356175,3.37390107 20.1174598,3.72732304 L12.3650233,26.3137238 C11.8532754,27.7278142 11.3024104,28.3171191 10.2006805,28.3171191 C9.13806758,28.3171191 8.54768227,27.7278142 8.07545469,26.3137238 L0.323018187,3.72732304 C0.204860473,3.37390107 0.165743415,3.0989726 0.165743415,2.86349213 C0.165743415,1.92076521 0.873883161,1.21351875 1.85785866,1.21351875 C2.68415612,1.21351875 3.2350211,1.68488221 3.54997391,2.58816113 L10.2397975,22.4643226" id="Fill-3"></path>
                        <path d="M24.5296221,10.876671 C24.5296221,9.77655457 25.2381651,9.10875612 26.1826203,9.10875612 C27.1270755,9.10875612 27.8356185,9.77655457 27.8356185,10.876671 L27.8356185,26.5496068 C27.8356185,27.6493207 27.1270755,28.3171191 26.1826203,28.3171191 C25.2381651,28.3171191 24.5296221,27.6493207 24.5296221,26.5496068 L24.5296221,10.876671" id="Fill-4"></path>
                        <path d="M32.6575017,10.876671 C32.6575017,9.77655457 33.3656414,9.10875612 34.3100966,9.10875612 C35.2545518,9.10875612 35.9630948,9.77655457 35.9630948,10.876671 L35.9630948,11.426528 L36.0022119,11.426528 C36.90755,9.97298955 38.7178229,8.87327565 41.275756,8.87327565 C45.3685295,8.87327565 47.8083048,11.6620084 47.8083048,15.9437276 L47.8083048,26.5496068 C47.8083048,27.6493207 47.0997618,28.3171191 46.1553066,28.3171191 C45.2108515,28.3171191 44.5023084,27.6493207 44.5023084,26.5496068 L44.5023084,16.7294675 C44.5023084,13.7048518 43.125146,11.9373394 40.2917805,11.9373394 C37.7338474,11.9373394 35.9630948,13.7438973 35.9630948,16.5330326 L35.9630948,26.5496068 C35.9630948,27.6493207 35.2545518,28.3171191 34.3100966,28.3171191 C33.3656414,28.3171191 32.6575017,27.6493207 32.6575017,26.5496068 L32.6575017,10.876671" id="Fill-5"></path>
                        <path d="M52.6414796,10.876671 C52.6414796,9.77655457 53.3496193,9.10875612 54.2940745,9.10875612 C55.2385297,9.10875612 55.9470727,9.77655457 55.9470727,10.876671 L55.9470727,11.426528 L55.9861897,11.426528 C56.8915279,9.97298955 58.7018008,8.87327565 61.2597339,8.87327565 C65.3521041,8.87327565 67.7922827,11.6620084 67.7922827,15.9437276 L67.7922827,26.5496068 C67.7922827,27.6493207 67.0837397,28.3171191 66.1392845,28.3171191 C65.1948293,28.3171191 64.4866896,27.6493207 64.4866896,26.5496068 L64.4866896,16.7294675 C64.4866896,13.7048518 63.1091239,11.9373394 60.2757584,11.9373394 C57.7178253,11.9373394 55.9470727,13.7438973 55.9470727,16.5330326 L55.9470727,26.5496068 C55.9470727,27.6493207 55.2385297,28.3171191 54.2940745,28.3171191 C53.3496193,28.3171191 52.6414796,27.6493207 52.6414796,26.5496068 L52.6414796,10.876671" id="Fill-6"></path>
                        <path d="M84.2843574,22.5428161 C84.5993102,21.5215957 84.7174679,20.5003752 84.7174679,18.6934149 C84.7174679,16.8864545 84.5993102,15.9046821 84.2843574,14.8830592 C83.654855,12.9976053 82.1200145,11.9373394 80.0343091,11.9373394 C77.9486036,11.9373394 76.4141664,12.9976053 75.7842608,14.8830592 C75.4697112,15.9046821 75.3515535,16.8864545 75.3515535,18.6934149 C75.3515535,20.5003752 75.4697112,21.5215957 75.7842608,22.5428161 C76.4141664,24.4282699 77.9486036,25.4889383 80.0343091,25.4889383 C82.1200145,25.4889383 83.654855,24.4282699 84.2843574,22.5428161 L84.2843574,22.5428161 Z M72.5968254,23.485543 C72.1637149,22.1893941 71.967323,20.8932452 71.967323,18.6934149 C71.967323,16.5330326 72.1637149,15.2368837 72.5968254,13.9403322 C73.6199179,10.7192815 76.3746461,8.87327565 80.0343091,8.87327565 C83.6943753,8.87327565 86.4491035,10.7192815 87.472196,13.9403322 C87.9049033,15.2368837 88.1016984,16.5330326 88.1016984,18.6934149 C88.1016984,20.8932452 87.9049033,22.1893941 87.472196,23.485543 C86.4491035,26.6675483 83.6943753,28.5530021 80.0343091,28.5530021 C76.3746461,28.5530021 73.6199179,26.6675483 72.5968254,23.485543 L72.5968254,23.485543 Z" id="Fill-7"></path>
                        <path d="M96.6965631,26.2746783 L90.990715,11.5050214 C90.8725573,11.190645 90.8330369,10.9551645 90.8330369,10.680236 C90.8330369,9.81600258 91.4629426,9.10875612 92.4465148,9.10875612 C93.2336952,9.10875612 93.7454431,9.58011958 94.0208756,10.287366 L98.9004262,23.368004 L98.9790636,23.368004 L103.74086,10.287366 C104.016292,9.58011958 104.52804,9.10875612 105.314817,9.10875612 C106.298793,9.10875612 106.928295,9.81600258 106.928295,10.680236 C106.928295,10.9551645 106.889178,11.190645 106.77102,11.5050214 L101.025652,26.2746783 C100.435267,27.8067102 99.9235188,28.3171191 98.8609059,28.3171191 C97.7986963,28.3171191 97.2869484,27.8067102 96.6965631,26.2746783" id="Fill-8"></path>
                        <path d="M122.029093,16.964948 C122.186368,16.964948 122.265005,16.8864545 122.265005,16.7294675 C122.265005,15.8652341 122.186368,15.1974357 121.989573,14.6081307 C121.36007,12.7226768 119.78571,11.6620084 117.660887,11.6620084 C115.535661,11.6620084 113.961704,12.7226768 113.331798,14.6081307 C113.135406,15.1974357 113.056366,15.8652341 113.056366,16.7294675 C113.056366,16.8864545 113.135406,16.964948 113.292681,16.964948 L122.029093,16.964948 L122.029093,16.964948 Z M110.301637,23.328556 C109.908451,22.1499461 109.672135,20.8147517 109.672135,18.5754734 C109.672135,16.3365976 109.86893,15.0010007 110.26252,13.8227933 C111.325133,10.5622945 114.040341,8.75533415 117.621367,8.75533415 C121.32055,8.75533415 123.996641,10.5622945 125.019733,13.7833453 C125.452441,15.0404487 125.649236,16.4935845 125.649236,18.3399929 C125.649236,19.0862849 125.137891,19.5966938 124.350711,19.5966938 L113.292681,19.5966938 C113.135406,19.5966938 113.056366,19.6755898 113.056366,19.8325768 C113.056366,20.7358557 113.135406,21.3646087 113.371318,22.1109006 C114.079861,24.2712829 115.811094,25.3709968 118.133115,25.3709968 C119.982505,25.3709968 121.241913,24.8211399 122.658595,23.7604715 C123.052186,23.4464975 123.406255,23.289108 123.799846,23.289108 C124.587026,23.289108 125.177008,23.878413 125.177008,24.6641529 C125.177008,25.1355164 124.980213,25.5283864 124.665663,25.8423603 C123.052186,27.3353467 120.809205,28.4350606 117.896799,28.4350606 C114.000821,28.4350606 111.36425,26.6281003 110.301637,23.328556 L110.301637,23.328556 Z" id="Fill-9"></path>
                        <path d="M130.476361,26.4316653 L130.476361,10.7587295 C130.476361,9.6590156 131.184501,8.99121715 132.128956,8.99121715 C133.073412,8.99121715 133.781955,9.6590156 133.781955,10.7587295 L133.781955,11.6229629 L133.821072,11.6229629 C134.608252,9.93394407 136.339888,8.75533415 138.661505,8.75533415 C139.960434,8.75533415 140.825848,9.06971064 141.455754,9.4231326 C142.124776,9.77655457 142.400209,10.287366 142.400209,10.837223 C142.400209,11.7799499 141.731186,12.4871964 140.747211,12.4871964 C140.511298,12.4871964 140.196346,12.4087029 139.920913,12.2907614 C139.212773,12.0158329 138.543751,11.8193979 137.75657,11.8193979 C134.923205,11.8193979 133.781955,14.1762152 133.781955,17.3187725 L133.781955,26.4316653 C133.781955,27.5313792 133.073412,28.1991776 132.128956,28.1991776 C131.184501,28.1991776 130.476361,27.5313792 130.476361,26.4316653" id="Fill-10"></path>
                        <path d="M156.486786,21.9144656 L156.486786,19.8325768 C156.486786,19.6755898 156.407745,19.5966938 156.250471,19.5966938 L152.47265,19.5966938 C149.245694,19.5966938 147.789491,20.5394207 147.789491,22.6607576 C147.789491,24.6247049 149.206174,25.6068798 151.72499,25.6068798 C154.636993,25.6068798 156.486786,24.2318349 156.486786,21.9144656 L156.486786,21.9144656 Z M160.972746,26.6281003 C160.972746,27.5313792 160.264607,28.1991776 159.280631,28.1991776 C158.690246,28.1991776 158.218018,27.9242491 157.824428,27.3743922 L157.076768,26.1961848 L157.037651,26.1961848 C155.778243,27.6102752 154.00749,28.4350606 151.252762,28.4350606 C147.041831,28.4350606 144.602056,26.3531718 144.602056,22.7786991 C144.602056,18.8898499 147.278146,16.964948 151.960902,16.964948 L156.250471,16.964948 C156.407745,16.964948 156.486786,16.8864545 156.486786,16.7294675 L156.486786,15.8257861 C156.486786,13.1940403 155.266495,11.7014564 151.960902,11.7014564 C150.505102,11.7014564 149.009782,12.1728199 148.104444,12.6441834 C147.789491,12.8011703 147.435421,12.9191118 147.159989,12.9191118 C146.294171,12.9191118 145.743306,12.3692549 145.743306,11.5050214 C145.743306,10.99421 145.979621,10.483801 146.530486,10.1694245 C147.710854,9.38408712 149.678401,8.75533415 152.275855,8.75533415 C157.313083,8.75533415 159.674221,11.1515995 159.674221,15.7867406 L159.674221,22.5428161 C159.674221,23.524991 159.752859,23.917861 160.028291,24.4677179 L160.697314,25.6853733 C160.854589,25.9603018 160.972746,26.3137238 160.972746,26.6281003 L160.972746,26.6281003 Z" id="Fill-11"></path>
                        <path d="M24.0182774,3.37390107 C24.0182774,2.15624567 25.0018497,1.21351875 26.1826203,1.21351875 C27.3633909,1.21351875 28.3469631,2.15624567 28.3469631,3.37390107 C28.3469631,4.552511 27.3633909,5.5342834 26.1826203,5.5342834 C25.0018497,5.5342834 24.0182774,4.552511 24.0182774,3.37390107" id="Fill-12"></path>
                    </g>
                    <g id="Fill-13-+-Fill-14-+-Fill-15" transform="translate(15.050099, 1.388385)">
                        <path d="M132.974409,67.7843411 C132.974409,104.435165 103.208747,134.146762 66.4899266,134.146762 C29.7711063,134.146762 0.0058473954,104.435165 0.0058473954,67.7843411 C0.0058473954,31.1335174 29.7711063,1.42151799 66.4899266,1.42151799 C103.208747,1.42151799 132.974409,31.1335174 132.974409,67.7843411" id="Fill-13" fill="#FFFFFF"></path>
                        <path d="M66.8500455,43.0645276 C66.0560095,45.0759736 65.6362069,48.1484905 65.6362069,51.9499906 C65.6362069,57.382545 66.4116925,63.4780676 67.677956,69.427069 C69.781002,61.6546035 70.8774895,53.8801253 71.0521048,48.161774 C71.3303602,39.0621648 67.7723209,40.7314596 66.8500455,43.0645276 L66.8500455,43.0645276 Z M90.8122686,76.0020056 C90.9872872,79.2089678 91.4691932,82.3954009 92.5068035,85.6043757 C93.7726637,82.2464645 94.4336211,78.7235158 94.5824272,75.6948747 C94.8510041,70.2301177 90.5041714,70.3625504 90.8122686,76.0020056 L90.8122686,76.0020056 Z M50.0405984,103.334243 L50.355148,103.324985 C42.3075188,102.974381 35.8044086,92.167639 29.7461037,70.318272 C25.417418,54.7041057 23.2974347,38.8834412 23.2744484,38.7256491 C23.0905579,37.4472116 24.0696942,36.2617586 25.3504754,36.0782046 C26.6308534,35.8930405 27.8632424,36.7822308 28.0475361,38.0606684 C28.0701192,38.2156427 30.3566524,53.7782851 34.6107334,69.1078621 C39.7487792,87.6254824 45.8034547,98.3557436 51.2411292,98.6507986 C54.0692522,98.4543636 59.0693802,93.5805218 64.1364508,80.3449095 C64.4268042,79.5873467 64.7127217,78.8193181 64.9889607,78.0428363 C62.4205427,68.9065968 60.9490154,59.0912879 60.9490154,51.9499906 C60.9490154,47.5040389 61.4684254,43.9376168 62.4903081,41.3493443 C64.3102596,36.7423803 67.4533354,36.0814249 69.1644043,36.0544553 C70.6988415,36.0303035 73.0821592,36.3366293 74.5621551,40.3007518 C75.2916681,42.2542333 75.7380865,44.8187565 75.7380865,48.161774 C75.7380865,55.3646586 73.5745502,67.2658816 69.9193232,78.1736588 C73.343074,89.5383084 78.1952024,98.6177911 82.0827122,98.6177911 C84.4414305,98.6177911 87.3405288,95.5947854 89.7528819,91.4350331 C87.4623159,86.1896554 86.1270934,80.2595729 86.1270934,76.0712409 C86.1270934,73.5735378 86.5444765,71.5363299 87.3691609,70.0163739 C88.4737137,67.978361 90.3158449,66.8557028 92.5551957,66.8557028 C94.8368897,66.8557028 96.5939312,68.0363254 97.8827778,69.8923945 C98.8732056,71.3197684 99.2680056,73.2579538 99.2680056,75.6948747 C99.2680056,79.9697508 97.6335578,86.125653 94.9566605,91.538886 C97.03793,95.5831121 99.5547296,98.4946167 101.646887,98.4946167 C102.499801,98.4946167 103.476921,98.0449899 105.471084,95.8516 C106.341741,94.8951871 107.824157,94.8231341 108.78071,95.6909903 C109.738876,96.5588465 109.811061,98.0377443 108.941614,98.9941573 C106.661936,101.501521 104.548809,103.171621 101.646887,103.171621 C98.0279545,103.171621 94.8030151,100.269375 92.2422592,96.1969714 C89.3859074,100.33861 85.8653721,103.294795 82.0831154,103.294795 C76.1663578,103.294795 70.2996055,95.3621227 66.5677574,85.1869514 C62.3765864,95.1656877 55.6863595,102.990885 50.0405984,103.323375 L50.0405984,103.334243 L50.0405984,103.334243 Z" id="Fill-14" fill="#000000"></path>
                        <path d="M92.7265849,57.3765071 L92.7225522,57.3765071 C92.0999054,57.3765071 91.4986318,56.7843844 91.0747965,56.1580466 C90.7251626,55.6424048 90.5251413,54.8808167 90.5259479,54.2713852 C90.529174,52.9253225 91.2873191,51.7728771 92.7277947,51.7728771 C94.1404448,51.7728771 94.9296415,53.0762715 94.9276252,54.4235418 C94.9256088,55.7241185 94.0210772,57.3765071 92.7265849,57.3765071 L92.7265849,57.3765071 Z M92.5576153,46.4196211 C88.9040014,46.4196211 85.9234428,49.7147375 85.9141676,53.7762724 C85.9125545,55.6146302 86.5154411,57.5487902 87.5699887,59.104974 C88.8491568,60.9936481 90.6630592,62.0539139 92.5418878,62.0539139 L92.5539859,62.0539139 C96.4588362,62.0539139 99.1881584,57.7049721 99.1946107,53.7811028 C99.1998532,49.7163476 96.2265535,46.4264641 92.5576153,46.4196211 L92.5576153,46.4196211 Z" id="Fill-15" fill="#3FA9F5"></path>
                    </g>
                </g>
            </g>
        </g>
    </g>
</svg>